%TF.GenerationSoftware,KiCad,Pcbnew,7.0.5*%
%TF.CreationDate,2023-08-24T03:33:07+02:00*%
%TF.ProjectId,Reader_Module,52656164-6572-45f4-9d6f-64756c652e6b,rev?*%
%TF.SameCoordinates,Original*%
%TF.FileFunction,Copper,L2,Inr*%
%TF.FilePolarity,Positive*%
%FSLAX46Y46*%
G04 Gerber Fmt 4.6, Leading zero omitted, Abs format (unit mm)*
G04 Created by KiCad (PCBNEW 7.0.5) date 2023-08-24 03:33:07*
%MOMM*%
%LPD*%
G01*
G04 APERTURE LIST*
G04 Aperture macros list*
%AMRoundRect*
0 Rectangle with rounded corners*
0 $1 Rounding radius*
0 $2 $3 $4 $5 $6 $7 $8 $9 X,Y pos of 4 corners*
0 Add a 4 corners polygon primitive as box body*
4,1,4,$2,$3,$4,$5,$6,$7,$8,$9,$2,$3,0*
0 Add four circle primitives for the rounded corners*
1,1,$1+$1,$2,$3*
1,1,$1+$1,$4,$5*
1,1,$1+$1,$6,$7*
1,1,$1+$1,$8,$9*
0 Add four rect primitives between the rounded corners*
20,1,$1+$1,$2,$3,$4,$5,0*
20,1,$1+$1,$4,$5,$6,$7,0*
20,1,$1+$1,$6,$7,$8,$9,0*
20,1,$1+$1,$8,$9,$2,$3,0*%
%AMFreePoly0*
4,1,5,0.400000,-0.750000,-0.400000,-0.750000,-0.400000,0.750000,0.400000,0.750000,0.400000,-0.750000,0.400000,-0.750000,$1*%
G04 Aperture macros list end*
%TA.AperFunction,ComponentPad*%
%ADD10RoundRect,0.250000X0.350000X0.650000X-0.350000X0.650000X-0.350000X-0.650000X0.350000X-0.650000X0*%
%TD*%
%TA.AperFunction,ComponentPad*%
%ADD11O,1.200000X1.800000*%
%TD*%
%TA.AperFunction,ComponentPad*%
%ADD12FreePoly0,0.000000*%
%TD*%
%TA.AperFunction,ComponentPad*%
%ADD13R,1.000000X1.000000*%
%TD*%
%TA.AperFunction,ComponentPad*%
%ADD14O,1.000000X1.000000*%
%TD*%
%TA.AperFunction,ViaPad*%
%ADD15C,0.800000*%
%TD*%
%TA.AperFunction,Conductor*%
%ADD16C,0.300000*%
%TD*%
G04 APERTURE END LIST*
D10*
%TO.N,GND*%
%TO.C,J2*%
X133250000Y-65000000D03*
D11*
%TO.N,/CAN/CAN_CON-*%
X131250000Y-65000000D03*
%TO.N,/CAN/CAN_CON+*%
X129250000Y-65000000D03*
%TO.N,/CAN/CONN_5V*%
X127250000Y-65000000D03*
%TD*%
D12*
%TO.N,GND*%
%TO.C,AE1*%
X127500000Y-90312500D03*
%TD*%
D13*
%TO.N,GND*%
%TO.C,J1*%
X117450000Y-64125000D03*
D14*
%TO.N,/MCU/NRST*%
X117450000Y-65395000D03*
%TO.N,unconnected-(J1-Pin_3-Pad3)*%
X118720000Y-64125000D03*
%TO.N,unconnected-(J1-Pin_4-Pad4)*%
X118720000Y-65395000D03*
%TO.N,GND*%
X119990000Y-64125000D03*
%TO.N,/MCU/SWO*%
X119990000Y-65395000D03*
%TO.N,GND*%
X121260000Y-64125000D03*
%TO.N,/MCU/SWCLK*%
X121260000Y-65395000D03*
%TO.N,+3V3*%
X122530000Y-64125000D03*
%TO.N,/MCU/SWDIO*%
X122530000Y-65395000D03*
%TD*%
D15*
%TO.N,GND*%
X127000000Y-77000000D03*
X123750000Y-71500000D03*
X123012299Y-74512299D03*
X117500000Y-78000000D03*
X109250000Y-68750000D03*
X113750000Y-83500000D03*
X127500000Y-84500000D03*
X111500002Y-67000000D03*
X111250000Y-77500000D03*
X115000000Y-83500000D03*
X111500000Y-71750000D03*
X123250000Y-84500000D03*
X112500000Y-73000052D03*
X118500000Y-78000000D03*
X118000000Y-70500000D03*
X117500000Y-77000000D03*
X120000000Y-71500000D03*
X111250024Y-79250000D03*
X112500000Y-83500000D03*
X130000016Y-82500000D03*
X127500000Y-83500000D03*
X119000000Y-70500000D03*
X117500000Y-83500000D03*
X129615009Y-77135009D03*
X118000000Y-71500000D03*
X124500000Y-76750000D03*
X124000000Y-65500000D03*
X116250000Y-83500000D03*
X119700700Y-80500000D03*
X126250026Y-83500000D03*
X133500000Y-70000000D03*
X113500000Y-71800003D03*
X123750000Y-73500000D03*
X133762653Y-78487347D03*
X117500000Y-76000000D03*
X131250000Y-82500000D03*
X119500000Y-77000000D03*
X113000000Y-67500000D03*
X132500000Y-82500000D03*
X115250000Y-62750000D03*
X119000000Y-71500000D03*
X124250000Y-79000000D03*
X120000000Y-70500000D03*
X118500000Y-76000000D03*
X135000000Y-78500000D03*
X129250000Y-70750000D03*
X119500000Y-76000000D03*
X133750000Y-72520000D03*
X113000000Y-66250000D03*
X131250000Y-70750000D03*
X127000000Y-70000000D03*
X125750000Y-68500000D03*
X118500000Y-77000000D03*
X123250000Y-81500000D03*
X119500000Y-78000000D03*
X111250000Y-83500000D03*
%TO.N,+3V3*%
X109000000Y-80250000D03*
X110250000Y-81250000D03*
X114000000Y-62750000D03*
X113500000Y-70800000D03*
X123750000Y-72500000D03*
X133750000Y-75500000D03*
X135000000Y-72520000D03*
X113000000Y-68500000D03*
X135000000Y-75500000D03*
X110250000Y-79249998D03*
%TO.N,+5V*%
X116000000Y-74500000D03*
X117000000Y-80500000D03*
X124000000Y-68500000D03*
%TO.N,Net-(U2-R)*%
X133750000Y-79500000D03*
X127000000Y-76000000D03*
%TO.N,/TRF/VDD_X*%
X114750000Y-79250000D03*
X121000000Y-74500000D03*
%TO.N,/MCU/TRF_IRQ*%
X122750000Y-71500000D03*
X122000000Y-74500000D03*
%TO.N,/MCU/Strapping/DBG_LED*%
X115394298Y-69500000D03*
%TD*%
D16*
%TO.N,GND*%
X111250024Y-77500024D02*
X111250000Y-77500000D01*
X111250024Y-79250000D02*
X111250024Y-77500024D01*
%TD*%
%TA.AperFunction,Conductor*%
%TO.N,GND*%
G36*
X112765677Y-72519685D02*
G01*
X112786319Y-72536319D01*
X113213681Y-72963681D01*
X113247166Y-73025004D01*
X113250000Y-73051362D01*
X113250000Y-75250000D01*
X115500000Y-77500000D01*
X116198638Y-77500000D01*
X116265677Y-77519685D01*
X116286319Y-77536319D01*
X116463682Y-77713682D01*
X116497166Y-77775003D01*
X116500000Y-77801361D01*
X116500000Y-78198638D01*
X116480315Y-78265677D01*
X116463681Y-78286319D01*
X116286319Y-78463681D01*
X116224996Y-78497166D01*
X116198638Y-78500000D01*
X113551362Y-78500000D01*
X113484323Y-78480315D01*
X113463681Y-78463681D01*
X113000000Y-78000000D01*
X110801362Y-78000000D01*
X110734323Y-77980315D01*
X110713681Y-77963681D01*
X110500000Y-77750000D01*
X108124500Y-77750000D01*
X108057461Y-77730315D01*
X108011706Y-77677511D01*
X108000500Y-77626000D01*
X108000500Y-72874000D01*
X108020185Y-72806961D01*
X108072989Y-72761206D01*
X108124500Y-72750000D01*
X112000000Y-72750000D01*
X112213680Y-72536319D01*
X112275004Y-72502834D01*
X112301362Y-72500000D01*
X112698638Y-72500000D01*
X112765677Y-72519685D01*
G37*
%TD.AperFunction*%
%TD*%
%TA.AperFunction,Conductor*%
%TO.N,GND*%
G36*
X133752018Y-61750633D02*
G01*
X133935281Y-61762644D01*
X134006937Y-61767340D01*
X134014970Y-61768398D01*
X134249158Y-61814980D01*
X134263517Y-61817837D01*
X134271358Y-61819938D01*
X134340361Y-61843361D01*
X134511337Y-61901399D01*
X134518811Y-61904495D01*
X134746107Y-62016585D01*
X134753132Y-62020642D01*
X134963840Y-62161433D01*
X134970268Y-62166365D01*
X135147415Y-62321718D01*
X135160801Y-62333457D01*
X135166540Y-62339196D01*
X135333632Y-62529729D01*
X135338570Y-62536164D01*
X135479357Y-62746867D01*
X135483416Y-62753897D01*
X135586113Y-62962146D01*
X135595498Y-62981175D01*
X135598602Y-62988670D01*
X135615222Y-63037629D01*
X135680061Y-63228641D01*
X135682162Y-63236482D01*
X135731599Y-63485016D01*
X135732659Y-63493065D01*
X135749367Y-63747980D01*
X135749500Y-63752036D01*
X135749500Y-72145045D01*
X135729815Y-72212084D01*
X135677011Y-72257839D01*
X135607853Y-72267783D01*
X135544297Y-72238758D01*
X135527124Y-72220532D01*
X135509190Y-72197160D01*
X135428282Y-72091718D01*
X135302841Y-71995464D01*
X135257736Y-71976781D01*
X135156762Y-71934956D01*
X135156760Y-71934955D01*
X135000001Y-71914318D01*
X134999999Y-71914318D01*
X134843239Y-71934955D01*
X134843237Y-71934956D01*
X134697160Y-71995463D01*
X134571718Y-72091718D01*
X134475463Y-72217160D01*
X134414956Y-72363237D01*
X134414955Y-72363239D01*
X134394318Y-72519998D01*
X134394318Y-72520001D01*
X134414955Y-72676760D01*
X134414956Y-72676762D01*
X134475464Y-72822841D01*
X134571718Y-72948282D01*
X134697159Y-73044536D01*
X134843238Y-73105044D01*
X134921619Y-73115363D01*
X134999999Y-73125682D01*
X135000000Y-73125682D01*
X135000001Y-73125682D01*
X135052253Y-73118802D01*
X135156762Y-73105044D01*
X135302841Y-73044536D01*
X135428282Y-72948282D01*
X135524536Y-72822841D01*
X135524537Y-72822839D01*
X135527124Y-72819468D01*
X135583552Y-72778265D01*
X135653298Y-72774110D01*
X135714218Y-72808322D01*
X135746971Y-72870040D01*
X135749500Y-72894954D01*
X135749500Y-75125045D01*
X135729815Y-75192084D01*
X135677011Y-75237839D01*
X135607853Y-75247783D01*
X135544297Y-75218758D01*
X135527124Y-75200532D01*
X135520642Y-75192084D01*
X135428282Y-75071718D01*
X135302841Y-74975464D01*
X135156762Y-74914956D01*
X135156760Y-74914955D01*
X135000001Y-74894318D01*
X134999999Y-74894318D01*
X134843239Y-74914955D01*
X134843237Y-74914956D01*
X134697160Y-74975463D01*
X134571718Y-75071718D01*
X134473376Y-75199880D01*
X134416947Y-75241082D01*
X134347201Y-75245237D01*
X134286281Y-75211024D01*
X134276624Y-75199880D01*
X134204343Y-75105682D01*
X134178282Y-75071718D01*
X134052841Y-74975464D01*
X133906762Y-74914956D01*
X133906760Y-74914955D01*
X133750001Y-74894318D01*
X133749999Y-74894318D01*
X133593239Y-74914955D01*
X133593237Y-74914956D01*
X133447160Y-74975463D01*
X133321718Y-75071718D01*
X133225463Y-75197160D01*
X133164956Y-75343237D01*
X133164955Y-75343239D01*
X133144318Y-75499998D01*
X133144318Y-75500001D01*
X133164955Y-75656760D01*
X133164956Y-75656762D01*
X133225464Y-75802841D01*
X133321718Y-75928282D01*
X133447159Y-76024536D01*
X133593238Y-76085044D01*
X133671619Y-76095363D01*
X133749999Y-76105682D01*
X133750000Y-76105682D01*
X133750001Y-76105682D01*
X133802254Y-76098802D01*
X133906762Y-76085044D01*
X134052841Y-76024536D01*
X134178282Y-75928282D01*
X134274536Y-75802841D01*
X134274535Y-75802841D01*
X134276624Y-75800120D01*
X134333052Y-75758917D01*
X134402798Y-75754762D01*
X134463718Y-75788974D01*
X134473376Y-75800120D01*
X134506461Y-75843238D01*
X134571718Y-75928282D01*
X134697159Y-76024536D01*
X134843238Y-76085044D01*
X134921619Y-76095363D01*
X134999999Y-76105682D01*
X135000000Y-76105682D01*
X135000001Y-76105682D01*
X135052254Y-76098802D01*
X135156762Y-76085044D01*
X135302841Y-76024536D01*
X135428282Y-75928282D01*
X135524536Y-75802841D01*
X135524537Y-75802839D01*
X135527124Y-75799468D01*
X135583552Y-75758265D01*
X135653298Y-75754110D01*
X135714218Y-75788322D01*
X135746971Y-75850040D01*
X135749500Y-75874954D01*
X135749500Y-79876000D01*
X135729815Y-79943039D01*
X135677011Y-79988794D01*
X135625500Y-80000000D01*
X134374698Y-80000000D01*
X134307659Y-79980315D01*
X134261904Y-79927511D01*
X134251960Y-79858353D01*
X134272003Y-79810765D01*
X134270472Y-79809881D01*
X134274534Y-79802843D01*
X134274536Y-79802841D01*
X134335044Y-79656762D01*
X134355682Y-79500000D01*
X134335044Y-79343238D01*
X134274536Y-79197159D01*
X134178282Y-79071718D01*
X134052841Y-78975464D01*
X133984504Y-78947158D01*
X133906762Y-78914956D01*
X133906760Y-78914955D01*
X133750001Y-78894318D01*
X133749999Y-78894318D01*
X133593239Y-78914955D01*
X133593237Y-78914956D01*
X133447160Y-78975463D01*
X133321718Y-79071718D01*
X133225463Y-79197160D01*
X133164956Y-79343237D01*
X133164955Y-79343239D01*
X133144318Y-79499998D01*
X133144318Y-79500001D01*
X133164955Y-79656760D01*
X133164956Y-79656762D01*
X133173869Y-79678281D01*
X133225465Y-79802843D01*
X133229528Y-79809881D01*
X133227706Y-79810932D01*
X133248872Y-79865686D01*
X133234832Y-79934130D01*
X133186017Y-79984119D01*
X133125302Y-80000000D01*
X127624000Y-80000000D01*
X127556961Y-79980315D01*
X127511206Y-79927511D01*
X127500000Y-79876000D01*
X127500000Y-77500000D01*
X120500000Y-77500000D01*
X120500000Y-77750000D01*
X127126000Y-77750000D01*
X127193039Y-77769685D01*
X127238794Y-77822489D01*
X127250000Y-77874000D01*
X127250000Y-80250000D01*
X135625500Y-80250000D01*
X135692539Y-80269685D01*
X135738294Y-80322489D01*
X135749500Y-80374000D01*
X135749500Y-85126000D01*
X135729815Y-85193039D01*
X135677011Y-85238794D01*
X135625500Y-85250000D01*
X108124500Y-85250000D01*
X108057461Y-85230315D01*
X108011706Y-85177511D01*
X108000500Y-85126000D01*
X108000500Y-81250001D01*
X109644318Y-81250001D01*
X109664955Y-81406760D01*
X109664956Y-81406762D01*
X109725464Y-81552841D01*
X109821718Y-81678282D01*
X109947159Y-81774536D01*
X110093238Y-81835044D01*
X110171618Y-81845363D01*
X110249999Y-81855682D01*
X110250000Y-81855682D01*
X110250001Y-81855682D01*
X110302254Y-81848802D01*
X110406762Y-81835044D01*
X110552841Y-81774536D01*
X110678282Y-81678282D01*
X110774536Y-81552841D01*
X110835044Y-81406762D01*
X110855682Y-81250000D01*
X110835044Y-81093238D01*
X110774536Y-80947159D01*
X110678282Y-80821718D01*
X110552841Y-80725464D01*
X110406762Y-80664956D01*
X110406760Y-80664955D01*
X110250001Y-80644318D01*
X110249999Y-80644318D01*
X110093239Y-80664955D01*
X110093237Y-80664956D01*
X109947160Y-80725463D01*
X109821718Y-80821718D01*
X109725463Y-80947160D01*
X109664956Y-81093237D01*
X109664955Y-81093239D01*
X109644318Y-81249998D01*
X109644318Y-81250001D01*
X108000500Y-81250001D01*
X108000500Y-80250000D01*
X108394318Y-80250000D01*
X108414955Y-80406760D01*
X108414956Y-80406762D01*
X108453576Y-80500000D01*
X108475464Y-80552841D01*
X108571718Y-80678282D01*
X108697159Y-80774536D01*
X108843238Y-80835044D01*
X108921619Y-80845363D01*
X108999999Y-80855682D01*
X109000000Y-80855682D01*
X109000001Y-80855682D01*
X109052253Y-80848802D01*
X109156762Y-80835044D01*
X109302841Y-80774536D01*
X109428282Y-80678282D01*
X109524536Y-80552841D01*
X109546423Y-80500001D01*
X116394318Y-80500001D01*
X116414955Y-80656760D01*
X116414956Y-80656762D01*
X116475464Y-80802841D01*
X116571718Y-80928282D01*
X116697159Y-81024536D01*
X116843238Y-81085044D01*
X116905478Y-81093238D01*
X116999999Y-81105682D01*
X117000000Y-81105682D01*
X117000001Y-81105682D01*
X117094514Y-81093239D01*
X117156762Y-81085044D01*
X117302841Y-81024536D01*
X117428282Y-80928282D01*
X117524536Y-80802841D01*
X117585044Y-80656762D01*
X117605682Y-80500000D01*
X117585044Y-80343238D01*
X117524536Y-80197159D01*
X117428282Y-80071718D01*
X117302841Y-79975464D01*
X117156762Y-79914956D01*
X117156760Y-79914955D01*
X117000001Y-79894318D01*
X116999999Y-79894318D01*
X116843239Y-79914955D01*
X116843237Y-79914956D01*
X116697160Y-79975463D01*
X116571718Y-80071718D01*
X116475463Y-80197160D01*
X116414956Y-80343237D01*
X116414955Y-80343239D01*
X116394318Y-80499998D01*
X116394318Y-80500001D01*
X109546423Y-80500001D01*
X109585044Y-80406762D01*
X109605682Y-80250000D01*
X109598725Y-80197159D01*
X109585044Y-80093239D01*
X109585044Y-80093238D01*
X109524536Y-79947159D01*
X109428282Y-79821718D01*
X109302841Y-79725464D01*
X109156762Y-79664956D01*
X109156760Y-79664955D01*
X109000001Y-79644318D01*
X108999999Y-79644318D01*
X108843239Y-79664955D01*
X108843237Y-79664956D01*
X108697160Y-79725463D01*
X108571718Y-79821718D01*
X108475463Y-79947160D01*
X108414956Y-80093237D01*
X108414955Y-80093239D01*
X108394318Y-80249998D01*
X108394318Y-80250000D01*
X108000500Y-80250000D01*
X108000500Y-79249999D01*
X109644318Y-79249999D01*
X109664955Y-79406758D01*
X109664956Y-79406760D01*
X109703576Y-79499998D01*
X109725464Y-79552839D01*
X109821718Y-79678280D01*
X109947159Y-79774534D01*
X110093238Y-79835042D01*
X110171618Y-79845361D01*
X110249999Y-79855680D01*
X110250000Y-79855680D01*
X110250001Y-79855680D01*
X110302254Y-79848800D01*
X110406762Y-79835042D01*
X110552841Y-79774534D01*
X110678282Y-79678280D01*
X110774536Y-79552839D01*
X110835044Y-79406760D01*
X110855682Y-79249998D01*
X110835044Y-79093236D01*
X110774536Y-78947157D01*
X110678282Y-78821716D01*
X110552841Y-78725462D01*
X110406762Y-78664954D01*
X110406760Y-78664953D01*
X110250001Y-78644316D01*
X110249999Y-78644316D01*
X110093239Y-78664953D01*
X110093237Y-78664954D01*
X109947160Y-78725461D01*
X109821718Y-78821716D01*
X109725463Y-78947158D01*
X109664956Y-79093235D01*
X109664955Y-79093237D01*
X109644318Y-79249996D01*
X109644318Y-79249999D01*
X108000500Y-79249999D01*
X108000500Y-78374000D01*
X108020185Y-78306961D01*
X108072989Y-78261206D01*
X108124500Y-78250000D01*
X110448638Y-78250000D01*
X110515677Y-78269685D01*
X110536319Y-78286319D01*
X110750000Y-78500000D01*
X112948638Y-78500000D01*
X113015677Y-78519685D01*
X113036319Y-78536319D01*
X113500000Y-79000000D01*
X114035836Y-79000000D01*
X114102875Y-79019685D01*
X114148630Y-79072489D01*
X114158775Y-79140185D01*
X114144318Y-79249998D01*
X114144318Y-79250001D01*
X114164955Y-79406760D01*
X114164956Y-79406762D01*
X114203576Y-79500000D01*
X114225464Y-79552841D01*
X114321718Y-79678282D01*
X114447159Y-79774536D01*
X114593238Y-79835044D01*
X114671619Y-79845363D01*
X114749999Y-79855682D01*
X114750000Y-79855682D01*
X114750001Y-79855682D01*
X114802253Y-79848802D01*
X114906762Y-79835044D01*
X115052841Y-79774536D01*
X115178282Y-79678282D01*
X115274536Y-79552841D01*
X115335044Y-79406762D01*
X115355682Y-79250000D01*
X115355682Y-79249998D01*
X115341225Y-79140185D01*
X115351991Y-79071150D01*
X115398371Y-79018894D01*
X115464164Y-79000000D01*
X116250000Y-79000000D01*
X116750000Y-78500000D01*
X116750000Y-77500000D01*
X116250000Y-77000000D01*
X115551362Y-77000000D01*
X115484323Y-76980315D01*
X115463681Y-76963681D01*
X114500001Y-76000001D01*
X126394318Y-76000001D01*
X126414955Y-76156760D01*
X126414956Y-76156762D01*
X126475464Y-76302841D01*
X126571718Y-76428282D01*
X126697159Y-76524536D01*
X126843238Y-76585044D01*
X126921619Y-76595363D01*
X126999999Y-76605682D01*
X127000000Y-76605682D01*
X127000001Y-76605682D01*
X127052253Y-76598802D01*
X127156762Y-76585044D01*
X127302841Y-76524536D01*
X127428282Y-76428282D01*
X127524536Y-76302841D01*
X127585044Y-76156762D01*
X127605682Y-76000000D01*
X127585044Y-75843238D01*
X127524536Y-75697159D01*
X127428282Y-75571718D01*
X127302841Y-75475464D01*
X127156762Y-75414956D01*
X127156760Y-75414955D01*
X127000001Y-75394318D01*
X126999999Y-75394318D01*
X126843239Y-75414955D01*
X126843237Y-75414956D01*
X126697160Y-75475463D01*
X126571718Y-75571718D01*
X126475463Y-75697160D01*
X126414956Y-75843237D01*
X126414955Y-75843239D01*
X126394318Y-75999998D01*
X126394318Y-76000001D01*
X114500001Y-76000001D01*
X113786319Y-75286319D01*
X113752834Y-75224996D01*
X113750000Y-75198638D01*
X113750000Y-74500001D01*
X115394318Y-74500001D01*
X115414955Y-74656760D01*
X115414956Y-74656762D01*
X115475464Y-74802841D01*
X115571718Y-74928282D01*
X115697159Y-75024536D01*
X115843238Y-75085044D01*
X115921619Y-75095363D01*
X115999999Y-75105682D01*
X116000000Y-75105682D01*
X116000001Y-75105682D01*
X116052253Y-75098802D01*
X116156762Y-75085044D01*
X116302841Y-75024536D01*
X116428282Y-74928282D01*
X116524536Y-74802841D01*
X116585044Y-74656762D01*
X116605682Y-74500001D01*
X120394318Y-74500001D01*
X120414955Y-74656760D01*
X120414956Y-74656762D01*
X120475464Y-74802841D01*
X120571718Y-74928282D01*
X120697159Y-75024536D01*
X120843238Y-75085044D01*
X120921619Y-75095363D01*
X120999999Y-75105682D01*
X121000000Y-75105682D01*
X121000001Y-75105682D01*
X121052253Y-75098802D01*
X121156762Y-75085044D01*
X121302841Y-75024536D01*
X121424515Y-74931171D01*
X121489683Y-74905979D01*
X121558127Y-74920017D01*
X121575478Y-74931167D01*
X121697159Y-75024536D01*
X121843238Y-75085044D01*
X121921619Y-75095363D01*
X121999999Y-75105682D01*
X122000000Y-75105682D01*
X122000001Y-75105682D01*
X122052253Y-75098802D01*
X122156762Y-75085044D01*
X122302841Y-75024536D01*
X122428282Y-74928282D01*
X122524536Y-74802841D01*
X122585044Y-74656762D01*
X122605682Y-74500000D01*
X122585044Y-74343238D01*
X122524536Y-74197159D01*
X122428282Y-74071718D01*
X122302841Y-73975464D01*
X122156762Y-73914956D01*
X122156760Y-73914955D01*
X122000001Y-73894318D01*
X121999999Y-73894318D01*
X121843239Y-73914955D01*
X121843237Y-73914956D01*
X121697157Y-73975464D01*
X121575486Y-74068826D01*
X121510317Y-74094020D01*
X121441872Y-74079981D01*
X121424514Y-74068826D01*
X121302842Y-73975464D01*
X121156762Y-73914956D01*
X121156760Y-73914955D01*
X121000001Y-73894318D01*
X120999999Y-73894318D01*
X120843239Y-73914955D01*
X120843237Y-73914956D01*
X120697160Y-73975463D01*
X120571718Y-74071718D01*
X120475463Y-74197160D01*
X120414956Y-74343237D01*
X120414955Y-74343239D01*
X120394318Y-74499998D01*
X120394318Y-74500001D01*
X116605682Y-74500001D01*
X116605682Y-74500000D01*
X116585044Y-74343238D01*
X116524536Y-74197159D01*
X116428282Y-74071718D01*
X116302841Y-73975464D01*
X116156762Y-73914956D01*
X116156760Y-73914955D01*
X116000001Y-73894318D01*
X115999999Y-73894318D01*
X115843239Y-73914955D01*
X115843237Y-73914956D01*
X115697160Y-73975463D01*
X115571718Y-74071718D01*
X115475463Y-74197160D01*
X115414956Y-74343237D01*
X115414955Y-74343239D01*
X115394318Y-74499998D01*
X115394318Y-74500001D01*
X113750000Y-74500001D01*
X113750000Y-73000000D01*
X113000000Y-72250000D01*
X108124500Y-72250000D01*
X108057461Y-72230315D01*
X108011706Y-72177511D01*
X108000500Y-72126000D01*
X108000500Y-71500001D01*
X122144318Y-71500001D01*
X122164955Y-71656760D01*
X122164956Y-71656762D01*
X122225464Y-71802841D01*
X122321718Y-71928282D01*
X122447159Y-72024536D01*
X122593238Y-72085044D01*
X122671619Y-72095363D01*
X122749999Y-72105682D01*
X122750000Y-72105682D01*
X122750001Y-72105682D01*
X122802254Y-72098802D01*
X122906762Y-72085044D01*
X123052841Y-72024536D01*
X123052845Y-72024532D01*
X123059881Y-72020472D01*
X123061476Y-72023235D01*
X123112625Y-72003434D01*
X123181077Y-72017440D01*
X123231089Y-72066231D01*
X123246784Y-72134315D01*
X123227228Y-72188791D01*
X123229528Y-72190119D01*
X123225465Y-72197156D01*
X123164956Y-72343237D01*
X123164955Y-72343239D01*
X123144318Y-72499998D01*
X123144318Y-72500001D01*
X123164955Y-72656760D01*
X123164956Y-72656762D01*
X123225464Y-72802841D01*
X123321718Y-72928282D01*
X123447159Y-73024536D01*
X123593238Y-73085044D01*
X123671619Y-73095363D01*
X123749999Y-73105682D01*
X123750000Y-73105682D01*
X123750001Y-73105682D01*
X123802254Y-73098802D01*
X123906762Y-73085044D01*
X124052841Y-73024536D01*
X124178282Y-72928282D01*
X124274536Y-72802841D01*
X124335044Y-72656762D01*
X124355682Y-72500000D01*
X124335044Y-72343238D01*
X124274536Y-72197159D01*
X124178282Y-72071718D01*
X124052841Y-71975464D01*
X123906762Y-71914956D01*
X123906760Y-71914955D01*
X123750001Y-71894318D01*
X123749999Y-71894318D01*
X123593239Y-71914955D01*
X123593237Y-71914956D01*
X123447156Y-71975465D01*
X123440119Y-71979528D01*
X123438533Y-71976781D01*
X123387251Y-71996575D01*
X123318814Y-71982501D01*
X123268850Y-71933661D01*
X123253222Y-71865561D01*
X123272789Y-71811218D01*
X123270472Y-71809881D01*
X123274534Y-71802843D01*
X123274536Y-71802841D01*
X123335044Y-71656762D01*
X123355682Y-71500000D01*
X123335044Y-71343238D01*
X123274536Y-71197159D01*
X123178282Y-71071718D01*
X123052841Y-70975464D01*
X123007690Y-70956762D01*
X122906762Y-70914956D01*
X122906760Y-70914955D01*
X122750001Y-70894318D01*
X122749999Y-70894318D01*
X122593239Y-70914955D01*
X122593237Y-70914956D01*
X122447160Y-70975463D01*
X122321718Y-71071718D01*
X122225463Y-71197160D01*
X122164956Y-71343237D01*
X122164955Y-71343239D01*
X122144318Y-71499998D01*
X122144318Y-71500001D01*
X108000500Y-71500001D01*
X108000500Y-70800001D01*
X112894318Y-70800001D01*
X112914955Y-70956760D01*
X112914956Y-70956762D01*
X112975464Y-71102841D01*
X113071718Y-71228282D01*
X113197159Y-71324536D01*
X113343238Y-71385044D01*
X113421619Y-71395363D01*
X113499999Y-71405682D01*
X113500000Y-71405682D01*
X113500001Y-71405682D01*
X113552253Y-71398802D01*
X113656762Y-71385044D01*
X113802841Y-71324536D01*
X113928282Y-71228282D01*
X114024536Y-71102841D01*
X114085044Y-70956762D01*
X114105682Y-70800000D01*
X114085044Y-70643238D01*
X114024536Y-70497159D01*
X113928282Y-70371718D01*
X113802841Y-70275464D01*
X113656762Y-70214956D01*
X113656760Y-70214955D01*
X113500001Y-70194318D01*
X113499999Y-70194318D01*
X113343239Y-70214955D01*
X113343237Y-70214956D01*
X113197160Y-70275463D01*
X113071718Y-70371718D01*
X112975463Y-70497160D01*
X112914956Y-70643237D01*
X112914955Y-70643239D01*
X112894318Y-70799998D01*
X112894318Y-70800001D01*
X108000500Y-70800001D01*
X108000500Y-69500001D01*
X114788616Y-69500001D01*
X114809253Y-69656760D01*
X114809254Y-69656762D01*
X114869762Y-69802841D01*
X114966016Y-69928282D01*
X115091457Y-70024536D01*
X115237536Y-70085044D01*
X115315916Y-70095363D01*
X115394297Y-70105682D01*
X115394298Y-70105682D01*
X115394299Y-70105682D01*
X115446551Y-70098802D01*
X115551060Y-70085044D01*
X115697139Y-70024536D01*
X115822580Y-69928282D01*
X115918834Y-69802841D01*
X115979342Y-69656762D01*
X115999980Y-69500000D01*
X115979342Y-69343238D01*
X115918834Y-69197159D01*
X115822580Y-69071718D01*
X115697139Y-68975464D01*
X115623172Y-68944826D01*
X115551060Y-68914956D01*
X115551058Y-68914955D01*
X115394299Y-68894318D01*
X115394297Y-68894318D01*
X115237537Y-68914955D01*
X115237535Y-68914956D01*
X115091458Y-68975463D01*
X114966016Y-69071718D01*
X114869761Y-69197160D01*
X114809254Y-69343237D01*
X114809253Y-69343239D01*
X114788616Y-69499998D01*
X114788616Y-69500001D01*
X108000500Y-69500001D01*
X108000500Y-69499500D01*
X108020185Y-69432461D01*
X108072989Y-69386706D01*
X108124500Y-69375500D01*
X108164348Y-69375500D01*
X108164350Y-69375500D01*
X108164355Y-69375499D01*
X108164359Y-69375499D01*
X108177088Y-69373890D01*
X108281792Y-69360664D01*
X108428732Y-69302486D01*
X108556587Y-69209594D01*
X108657324Y-69087823D01*
X108724614Y-68944826D01*
X108754227Y-68789588D01*
X108749246Y-68710415D01*
X110245773Y-68710415D01*
X110255696Y-68868137D01*
X110255696Y-68868140D01*
X110280614Y-68944828D01*
X110304533Y-69018441D01*
X110389214Y-69151877D01*
X110504418Y-69260062D01*
X110504420Y-69260063D01*
X110504422Y-69260065D01*
X110581578Y-69302481D01*
X110642908Y-69336197D01*
X110795981Y-69375500D01*
X110795984Y-69375500D01*
X110914348Y-69375500D01*
X110914350Y-69375500D01*
X110914355Y-69375499D01*
X110914359Y-69375499D01*
X110927088Y-69373890D01*
X111031792Y-69360664D01*
X111178732Y-69302486D01*
X111306587Y-69209594D01*
X111407324Y-69087823D01*
X111474614Y-68944826D01*
X111504227Y-68789588D01*
X111494304Y-68631862D01*
X111451459Y-68500001D01*
X112394318Y-68500001D01*
X112414955Y-68656760D01*
X112414956Y-68656762D01*
X112475464Y-68802841D01*
X112571718Y-68928282D01*
X112697159Y-69024536D01*
X112843238Y-69085044D01*
X112864332Y-69087821D01*
X112999999Y-69105682D01*
X113000000Y-69105682D01*
X113000001Y-69105682D01*
X113052253Y-69098802D01*
X113156762Y-69085044D01*
X113302841Y-69024536D01*
X113428282Y-68928282D01*
X113524536Y-68802841D01*
X113585044Y-68656762D01*
X113605682Y-68500001D01*
X123394318Y-68500001D01*
X123414955Y-68656760D01*
X123414956Y-68656762D01*
X123475464Y-68802841D01*
X123571718Y-68928282D01*
X123697159Y-69024536D01*
X123843238Y-69085044D01*
X123864332Y-69087821D01*
X123999999Y-69105682D01*
X124000000Y-69105682D01*
X124000001Y-69105682D01*
X124052253Y-69098802D01*
X124156762Y-69085044D01*
X124302841Y-69024536D01*
X124428282Y-68928282D01*
X124524536Y-68802841D01*
X124585044Y-68656762D01*
X124605682Y-68500000D01*
X124585044Y-68343238D01*
X124524536Y-68197159D01*
X124428282Y-68071718D01*
X124302841Y-67975464D01*
X124156762Y-67914956D01*
X124156760Y-67914955D01*
X124000001Y-67894318D01*
X123999999Y-67894318D01*
X123843239Y-67914955D01*
X123843237Y-67914956D01*
X123697160Y-67975463D01*
X123571718Y-68071718D01*
X123475463Y-68197160D01*
X123414956Y-68343237D01*
X123414955Y-68343239D01*
X123394318Y-68499998D01*
X123394318Y-68500001D01*
X113605682Y-68500001D01*
X113605682Y-68500000D01*
X113585044Y-68343238D01*
X113524536Y-68197159D01*
X113428282Y-68071718D01*
X113302841Y-67975464D01*
X113156762Y-67914956D01*
X113156760Y-67914955D01*
X113000001Y-67894318D01*
X112999999Y-67894318D01*
X112843239Y-67914955D01*
X112843237Y-67914956D01*
X112697160Y-67975463D01*
X112571718Y-68071718D01*
X112475463Y-68197160D01*
X112414956Y-68343237D01*
X112414955Y-68343239D01*
X112394318Y-68499998D01*
X112394318Y-68500001D01*
X111451459Y-68500001D01*
X111445467Y-68481559D01*
X111360786Y-68348123D01*
X111245582Y-68239938D01*
X111245579Y-68239936D01*
X111245577Y-68239934D01*
X111107095Y-68163804D01*
X111107087Y-68163801D01*
X110954021Y-68124500D01*
X110954019Y-68124500D01*
X110835650Y-68124500D01*
X110835640Y-68124500D01*
X110718208Y-68139336D01*
X110718206Y-68139336D01*
X110571269Y-68197513D01*
X110571260Y-68197518D01*
X110443416Y-68290402D01*
X110443415Y-68290403D01*
X110342674Y-68412178D01*
X110275387Y-68555171D01*
X110275385Y-68555174D01*
X110260757Y-68631862D01*
X110245773Y-68710412D01*
X110245773Y-68710414D01*
X110245773Y-68710415D01*
X108749246Y-68710415D01*
X108744304Y-68631862D01*
X108695467Y-68481559D01*
X108610786Y-68348123D01*
X108495582Y-68239938D01*
X108495579Y-68239936D01*
X108495577Y-68239934D01*
X108357095Y-68163804D01*
X108357087Y-68163801D01*
X108204021Y-68124500D01*
X108204019Y-68124500D01*
X108124500Y-68124500D01*
X108057461Y-68104815D01*
X108011706Y-68052011D01*
X108000500Y-68000500D01*
X108000500Y-65394999D01*
X116744355Y-65394999D01*
X116764859Y-65563869D01*
X116764860Y-65563874D01*
X116825182Y-65722931D01*
X116879941Y-65802262D01*
X116921817Y-65862929D01*
X116997316Y-65929815D01*
X117049150Y-65975736D01*
X117199773Y-66054789D01*
X117199775Y-66054790D01*
X117364944Y-66095500D01*
X117535056Y-66095500D01*
X117700225Y-66054790D01*
X117779692Y-66013081D01*
X117850849Y-65975736D01*
X117850850Y-65975734D01*
X117850852Y-65975734D01*
X117978183Y-65862929D01*
X117982950Y-65856021D01*
X118037230Y-65812033D01*
X118106678Y-65804372D01*
X118169244Y-65835473D01*
X118187046Y-65856017D01*
X118191817Y-65862929D01*
X118267316Y-65929815D01*
X118319150Y-65975736D01*
X118469773Y-66054789D01*
X118469775Y-66054790D01*
X118634944Y-66095500D01*
X118805056Y-66095500D01*
X118970225Y-66054790D01*
X119049692Y-66013081D01*
X119120849Y-65975736D01*
X119120850Y-65975734D01*
X119120852Y-65975734D01*
X119248183Y-65862929D01*
X119252946Y-65856028D01*
X119307223Y-65812035D01*
X119376671Y-65804371D01*
X119439238Y-65835469D01*
X119457047Y-65856019D01*
X119461815Y-65862927D01*
X119589150Y-65975736D01*
X119739773Y-66054789D01*
X119739775Y-66054790D01*
X119904944Y-66095500D01*
X120075056Y-66095500D01*
X120240225Y-66054790D01*
X120319692Y-66013081D01*
X120390849Y-65975736D01*
X120390850Y-65975734D01*
X120390852Y-65975734D01*
X120518183Y-65862929D01*
X120522950Y-65856021D01*
X120577230Y-65812033D01*
X120646678Y-65804372D01*
X120709244Y-65835473D01*
X120727046Y-65856017D01*
X120731817Y-65862929D01*
X120807316Y-65929815D01*
X120859150Y-65975736D01*
X121009773Y-66054789D01*
X121009775Y-66054790D01*
X121174944Y-66095500D01*
X121345056Y-66095500D01*
X121510225Y-66054790D01*
X121589692Y-66013081D01*
X121660849Y-65975736D01*
X121660850Y-65975734D01*
X121660852Y-65975734D01*
X121788183Y-65862929D01*
X121792950Y-65856021D01*
X121847230Y-65812033D01*
X121916678Y-65804372D01*
X121979244Y-65835473D01*
X121997046Y-65856017D01*
X122001817Y-65862929D01*
X122077316Y-65929815D01*
X122129150Y-65975736D01*
X122279773Y-66054789D01*
X122279775Y-66054790D01*
X122444944Y-66095500D01*
X122615056Y-66095500D01*
X122780225Y-66054790D01*
X122859692Y-66013081D01*
X122930849Y-65975736D01*
X122930850Y-65975734D01*
X122930852Y-65975734D01*
X123058183Y-65862929D01*
X123154818Y-65722930D01*
X123215140Y-65563872D01*
X123235645Y-65395000D01*
X123229569Y-65344960D01*
X126449500Y-65344960D01*
X126464630Y-65479249D01*
X126464631Y-65479254D01*
X126524211Y-65649523D01*
X126553466Y-65696081D01*
X126620184Y-65802262D01*
X126747738Y-65929816D01*
X126900478Y-66025789D01*
X127070744Y-66085367D01*
X127070745Y-66085368D01*
X127070750Y-66085369D01*
X127249996Y-66105565D01*
X127250000Y-66105565D01*
X127250004Y-66105565D01*
X127429249Y-66085369D01*
X127429252Y-66085368D01*
X127429255Y-66085368D01*
X127599522Y-66025789D01*
X127752262Y-65929816D01*
X127879816Y-65802262D01*
X127975789Y-65649522D01*
X128035368Y-65479255D01*
X128050499Y-65344960D01*
X128449500Y-65344960D01*
X128464630Y-65479249D01*
X128464631Y-65479254D01*
X128524211Y-65649523D01*
X128553466Y-65696081D01*
X128620184Y-65802262D01*
X128747738Y-65929816D01*
X128900478Y-66025789D01*
X129070744Y-66085367D01*
X129070745Y-66085368D01*
X129070750Y-66085369D01*
X129249996Y-66105565D01*
X129250000Y-66105565D01*
X129250004Y-66105565D01*
X129429249Y-66085369D01*
X129429252Y-66085368D01*
X129429255Y-66085368D01*
X129599522Y-66025789D01*
X129752262Y-65929816D01*
X129879816Y-65802262D01*
X129975789Y-65649522D01*
X130035368Y-65479255D01*
X130050499Y-65344960D01*
X130449500Y-65344960D01*
X130464630Y-65479249D01*
X130464631Y-65479254D01*
X130524211Y-65649523D01*
X130553466Y-65696081D01*
X130620184Y-65802262D01*
X130747738Y-65929816D01*
X130900478Y-66025789D01*
X131070744Y-66085367D01*
X131070745Y-66085368D01*
X131070750Y-66085369D01*
X131249996Y-66105565D01*
X131250000Y-66105565D01*
X131250004Y-66105565D01*
X131429249Y-66085369D01*
X131429252Y-66085368D01*
X131429255Y-66085368D01*
X131599522Y-66025789D01*
X131752262Y-65929816D01*
X131879816Y-65802262D01*
X131975789Y-65649522D01*
X132035368Y-65479255D01*
X132050500Y-65344954D01*
X132050500Y-64655046D01*
X132035368Y-64520745D01*
X131975789Y-64350478D01*
X131879816Y-64197738D01*
X131752262Y-64070184D01*
X131732435Y-64057726D01*
X131599523Y-63974211D01*
X131429254Y-63914631D01*
X131429249Y-63914630D01*
X131250004Y-63894435D01*
X131249996Y-63894435D01*
X131070750Y-63914630D01*
X131070745Y-63914631D01*
X130900476Y-63974211D01*
X130747737Y-64070184D01*
X130620184Y-64197737D01*
X130524211Y-64350476D01*
X130464631Y-64520745D01*
X130464630Y-64520750D01*
X130449500Y-64655039D01*
X130449500Y-65344960D01*
X130050499Y-65344960D01*
X130050500Y-65344954D01*
X130050500Y-64655046D01*
X130035368Y-64520745D01*
X129975789Y-64350478D01*
X129879816Y-64197738D01*
X129752262Y-64070184D01*
X129732435Y-64057726D01*
X129599523Y-63974211D01*
X129429254Y-63914631D01*
X129429249Y-63914630D01*
X129250004Y-63894435D01*
X129249996Y-63894435D01*
X129070750Y-63914630D01*
X129070745Y-63914631D01*
X128900476Y-63974211D01*
X128747737Y-64070184D01*
X128620184Y-64197737D01*
X128524211Y-64350476D01*
X128464631Y-64520745D01*
X128464630Y-64520750D01*
X128449500Y-64655039D01*
X128449500Y-65344960D01*
X128050499Y-65344960D01*
X128050500Y-65344954D01*
X128050500Y-64655046D01*
X128035368Y-64520745D01*
X127975789Y-64350478D01*
X127879816Y-64197738D01*
X127752262Y-64070184D01*
X127732435Y-64057726D01*
X127599523Y-63974211D01*
X127429254Y-63914631D01*
X127429249Y-63914630D01*
X127250004Y-63894435D01*
X127249996Y-63894435D01*
X127070750Y-63914630D01*
X127070745Y-63914631D01*
X126900476Y-63974211D01*
X126747737Y-64070184D01*
X126620184Y-64197737D01*
X126524211Y-64350476D01*
X126464631Y-64520745D01*
X126464630Y-64520750D01*
X126449500Y-64655039D01*
X126449500Y-65344960D01*
X123229569Y-65344960D01*
X123215140Y-65226128D01*
X123154818Y-65067070D01*
X123058183Y-64927071D01*
X122974363Y-64852813D01*
X122937238Y-64793626D01*
X122938006Y-64723761D01*
X122974363Y-64667186D01*
X123058183Y-64592929D01*
X123154818Y-64452930D01*
X123215140Y-64293872D01*
X123235645Y-64125000D01*
X123215140Y-63956128D01*
X123154818Y-63797070D01*
X123058183Y-63657071D01*
X122930852Y-63544266D01*
X122930849Y-63544263D01*
X122780226Y-63465210D01*
X122615056Y-63424500D01*
X122444944Y-63424500D01*
X122279773Y-63465210D01*
X122129150Y-63544263D01*
X122001816Y-63657072D01*
X121905182Y-63797068D01*
X121844860Y-63956125D01*
X121844859Y-63956130D01*
X121824355Y-64124999D01*
X121844859Y-64293869D01*
X121844860Y-64293874D01*
X121905182Y-64452931D01*
X122001818Y-64592930D01*
X122085634Y-64667185D01*
X122122761Y-64726374D01*
X122121993Y-64796240D01*
X122085634Y-64852815D01*
X122001817Y-64927070D01*
X122001816Y-64927070D01*
X121997045Y-64933983D01*
X121942759Y-64977970D01*
X121873310Y-64985625D01*
X121810747Y-64954518D01*
X121792951Y-64933979D01*
X121788183Y-64927071D01*
X121660852Y-64814266D01*
X121660849Y-64814263D01*
X121510226Y-64735210D01*
X121345056Y-64694500D01*
X121174944Y-64694500D01*
X121009773Y-64735210D01*
X120859150Y-64814263D01*
X120731815Y-64927072D01*
X120727049Y-64933978D01*
X120672766Y-64977968D01*
X120603317Y-64985627D01*
X120540753Y-64954523D01*
X120522951Y-64933978D01*
X120518184Y-64927072D01*
X120390849Y-64814263D01*
X120240226Y-64735210D01*
X120075056Y-64694500D01*
X119904944Y-64694500D01*
X119739773Y-64735210D01*
X119589150Y-64814263D01*
X119461815Y-64927072D01*
X119457049Y-64933978D01*
X119402766Y-64977968D01*
X119333317Y-64985627D01*
X119270753Y-64954523D01*
X119252951Y-64933978D01*
X119248184Y-64927072D01*
X119248182Y-64927070D01*
X119164363Y-64852813D01*
X119127238Y-64793626D01*
X119128006Y-64723761D01*
X119164363Y-64667186D01*
X119248183Y-64592929D01*
X119344818Y-64452930D01*
X119405140Y-64293872D01*
X119425645Y-64125000D01*
X119405140Y-63956128D01*
X119344818Y-63797070D01*
X119248183Y-63657071D01*
X119120852Y-63544266D01*
X119120849Y-63544263D01*
X118970226Y-63465210D01*
X118805056Y-63424500D01*
X118634944Y-63424500D01*
X118469773Y-63465210D01*
X118319150Y-63544263D01*
X118191816Y-63657072D01*
X118095182Y-63797068D01*
X118034860Y-63956125D01*
X118034859Y-63956130D01*
X118014355Y-64124999D01*
X118034859Y-64293869D01*
X118034860Y-64293874D01*
X118095182Y-64452931D01*
X118191818Y-64592930D01*
X118275634Y-64667185D01*
X118312761Y-64726374D01*
X118311993Y-64796240D01*
X118275634Y-64852815D01*
X118191817Y-64927070D01*
X118187049Y-64933978D01*
X118132766Y-64977968D01*
X118063317Y-64985627D01*
X118000753Y-64954523D01*
X117982951Y-64933978D01*
X117978184Y-64927072D01*
X117850849Y-64814263D01*
X117700226Y-64735210D01*
X117535056Y-64694500D01*
X117364944Y-64694500D01*
X117199773Y-64735210D01*
X117049150Y-64814263D01*
X116921816Y-64927072D01*
X116825182Y-65067068D01*
X116764860Y-65226125D01*
X116764859Y-65226130D01*
X116744355Y-65394999D01*
X108000500Y-65394999D01*
X108000500Y-63752036D01*
X108000633Y-63747980D01*
X108003451Y-63704989D01*
X108419844Y-63704989D01*
X108429577Y-63884501D01*
X108429578Y-63884506D01*
X108477670Y-64057718D01*
X108477674Y-64057726D01*
X108561881Y-64216557D01*
X108675635Y-64350478D01*
X108678265Y-64353574D01*
X108821382Y-64462369D01*
X108984541Y-64537854D01*
X109160113Y-64576500D01*
X109160116Y-64576500D01*
X109294810Y-64576500D01*
X109294816Y-64576500D01*
X109428721Y-64561937D01*
X109599085Y-64504535D01*
X109753126Y-64411851D01*
X109883642Y-64288220D01*
X109984529Y-64139423D01*
X110051070Y-63972416D01*
X110053741Y-63956128D01*
X110080155Y-63795010D01*
X110070422Y-63615498D01*
X110070421Y-63615493D01*
X110022329Y-63442281D01*
X110022325Y-63442273D01*
X109938118Y-63283442D01*
X109821735Y-63146426D01*
X109698626Y-63052841D01*
X109678618Y-63037631D01*
X109678616Y-63037630D01*
X109678615Y-63037629D01*
X109515457Y-62962145D01*
X109339887Y-62923500D01*
X109205184Y-62923500D01*
X109205182Y-62923500D01*
X109071278Y-62938063D01*
X108999806Y-62962145D01*
X108900915Y-62995465D01*
X108900913Y-62995465D01*
X108900913Y-62995466D01*
X108746876Y-63088147D01*
X108616356Y-63211781D01*
X108515471Y-63360575D01*
X108515470Y-63360576D01*
X108448929Y-63527583D01*
X108448928Y-63527587D01*
X108419845Y-63704986D01*
X108419844Y-63704989D01*
X108003451Y-63704989D01*
X108011578Y-63580976D01*
X108017340Y-63493060D01*
X108018397Y-63485031D01*
X108067837Y-63236479D01*
X108069938Y-63228641D01*
X108075661Y-63211780D01*
X108151401Y-62988657D01*
X108154493Y-62981193D01*
X108266588Y-62753886D01*
X108268832Y-62750001D01*
X113394318Y-62750001D01*
X113414955Y-62906760D01*
X113414956Y-62906762D01*
X113475464Y-63052841D01*
X113571718Y-63178282D01*
X113697159Y-63274536D01*
X113843238Y-63335044D01*
X113921619Y-63345363D01*
X113999999Y-63355682D01*
X114000000Y-63355682D01*
X114000001Y-63355682D01*
X114052253Y-63348802D01*
X114156762Y-63335044D01*
X114302841Y-63274536D01*
X114428282Y-63178282D01*
X114524536Y-63052841D01*
X114585044Y-62906762D01*
X114605682Y-62750000D01*
X114585044Y-62593238D01*
X114524536Y-62447159D01*
X114428282Y-62321718D01*
X114302841Y-62225464D01*
X114156762Y-62164956D01*
X114156760Y-62164955D01*
X114000001Y-62144318D01*
X113999999Y-62144318D01*
X113843239Y-62164955D01*
X113843237Y-62164956D01*
X113697160Y-62225463D01*
X113571718Y-62321718D01*
X113475463Y-62447160D01*
X113414956Y-62593237D01*
X113414955Y-62593239D01*
X113394318Y-62749998D01*
X113394318Y-62750001D01*
X108268832Y-62750001D01*
X108270642Y-62746867D01*
X108411438Y-62536151D01*
X108416359Y-62529738D01*
X108583466Y-62339188D01*
X108589188Y-62333466D01*
X108779738Y-62166359D01*
X108786151Y-62161438D01*
X108996872Y-62020639D01*
X109003886Y-62016588D01*
X109231193Y-61904493D01*
X109238657Y-61901401D01*
X109478639Y-61819938D01*
X109486479Y-61817837D01*
X109735031Y-61768397D01*
X109743060Y-61767340D01*
X109825783Y-61761918D01*
X109997982Y-61750633D01*
X110002038Y-61750500D01*
X110065892Y-61750500D01*
X133684108Y-61750500D01*
X133747962Y-61750500D01*
X133752018Y-61750633D01*
G37*
%TD.AperFunction*%
%TD*%
M02*
