M48
; DRILL file {KiCad 7.0.5} date Thu Aug 24 03:33:00 2023
; FORMAT={-:-/ absolute / inch / decimal}
; #@! TF.CreationDate,2023-08-24T03:33:00+02:00
; #@! TF.GenerationSoftware,Kicad,Pcbnew,7.0.5
; #@! TF.FileFunction,Plated,1,4,PTH
FMAT,2
INCH
; #@! TA.AperFunction,Plated,PTH,ViaDrill
T1C0.0157
; #@! TA.AperFunction,Plated,PTH,ComponentDrill
T2C0.0157
; #@! TA.AperFunction,Plated,PTH,ComponentDrill
T3C0.0256
; #@! TA.AperFunction,Plated,PTH,ComponentDrill
T4C0.0315
%
G90
G05
T1
X4.2913Y-3.1594
X4.3012Y-2.7067
X4.3406Y-3.1201
X4.3406Y-3.1988
X4.3799Y-3.0512
X4.3799Y-3.2874
X4.3799Y-3.1201
X4.3898Y-2.8248
X4.3898Y-2.6378
X4.4291Y-2.874
X4.4291Y-3.2874
X4.4488Y-2.6083
X4.4488Y-2.6575
X4.4488Y-2.6969
X4.4685Y-2.7874
X4.4685Y-2.8268
X4.4783Y-3.2874
X4.4882Y-2.4705
X4.5177Y-3.1201
X4.5276Y-3.2874
X4.5374Y-2.4705
X4.5431Y-2.7362
X4.5669Y-2.9331
X4.5768Y-3.2874
X4.6063Y-3.1693
X4.626Y-2.9921
X4.626Y-3.0315
X4.626Y-3.0709
X4.626Y-3.2874
X4.6457Y-2.7756
X4.6457Y-2.815
X4.6654Y-2.9921
X4.6654Y-3.0315
X4.6654Y-3.0709
X4.685Y-2.7756
X4.685Y-2.815
X4.7047Y-2.9921
X4.7047Y-3.0315
X4.7047Y-3.0709
X4.7126Y-3.1693
X4.7244Y-2.7756
X4.7244Y-2.815
X4.7638Y-2.9331
X4.8031Y-2.9331
X4.8327Y-2.815
X4.843Y-2.9336
X4.8524Y-3.2087
X4.8524Y-3.3268
X4.872Y-2.815
X4.872Y-2.8543
X4.872Y-2.8937
X4.8819Y-2.5787
X4.8819Y-2.6969
X4.8917Y-3.1102
X4.9016Y-3.0217
X4.9508Y-2.6969
X4.9705Y-3.2874
X5.0Y-2.7559
X5.0Y-2.9921
X5.0Y-3.0315
X5.0197Y-3.2874
X5.0197Y-3.3268
X5.0886Y-2.7854
X5.103Y-3.0368
X5.1181Y-3.248
X5.1673Y-2.7854
X5.1673Y-3.248
X5.2165Y-3.248
X5.2559Y-2.7559
X5.2657Y-2.8551
X5.2657Y-2.9724
X5.2657Y-3.1299
X5.2662Y-3.0901
X5.315Y-2.8551
X5.315Y-2.9724
X5.315Y-3.0906
T2
X5.0197Y-3.5556
T3
X4.624Y-2.5246
X4.624Y-2.5746
X4.674Y-2.5246
X4.674Y-2.5746
X4.724Y-2.5246
X4.724Y-2.5746
X4.774Y-2.5246
X4.774Y-2.5746
X4.824Y-2.5246
X4.824Y-2.5746
T4
X5.0098Y-2.5591
X5.0886Y-2.5591
X5.1673Y-2.5591
X5.2461Y-2.5591
T0
M30
