%TF.GenerationSoftware,KiCad,Pcbnew,7.0.5*%
%TF.CreationDate,2023-08-24T03:33:07+02:00*%
%TF.ProjectId,Reader_Module,52656164-6572-45f4-9d6f-64756c652e6b,rev?*%
%TF.SameCoordinates,Original*%
%TF.FileFunction,Copper,L1,Top*%
%TF.FilePolarity,Positive*%
%FSLAX46Y46*%
G04 Gerber Fmt 4.6, Leading zero omitted, Abs format (unit mm)*
G04 Created by KiCad (PCBNEW 7.0.5) date 2023-08-24 03:33:07*
%MOMM*%
%LPD*%
G01*
G04 APERTURE LIST*
G04 Aperture macros list*
%AMRoundRect*
0 Rectangle with rounded corners*
0 $1 Rounding radius*
0 $2 $3 $4 $5 $6 $7 $8 $9 X,Y pos of 4 corners*
0 Add a 4 corners polygon primitive as box body*
4,1,4,$2,$3,$4,$5,$6,$7,$8,$9,$2,$3,0*
0 Add four circle primitives for the rounded corners*
1,1,$1+$1,$2,$3*
1,1,$1+$1,$4,$5*
1,1,$1+$1,$6,$7*
1,1,$1+$1,$8,$9*
0 Add four rect primitives between the rounded corners*
20,1,$1+$1,$2,$3,$4,$5,0*
20,1,$1+$1,$4,$5,$6,$7,0*
20,1,$1+$1,$6,$7,$8,$9,0*
20,1,$1+$1,$8,$9,$2,$3,0*%
%AMFreePoly0*
4,1,5,0.400000,-0.750000,-0.400000,-0.750000,-0.400000,0.750000,0.400000,0.750000,0.400000,-0.750000,0.400000,-0.750000,$1*%
G04 Aperture macros list end*
%TA.AperFunction,EtchedComponent*%
%ADD10C,0.250000*%
%TD*%
%TA.AperFunction,SMDPad,CuDef*%
%ADD11R,0.300000X0.850000*%
%TD*%
%TA.AperFunction,SMDPad,CuDef*%
%ADD12R,0.850000X0.300000*%
%TD*%
%TA.AperFunction,SMDPad,CuDef*%
%ADD13R,3.550000X3.550000*%
%TD*%
%TA.AperFunction,ComponentPad*%
%ADD14RoundRect,0.250000X0.350000X0.650000X-0.350000X0.650000X-0.350000X-0.650000X0.350000X-0.650000X0*%
%TD*%
%TA.AperFunction,ComponentPad*%
%ADD15O,1.200000X1.800000*%
%TD*%
%TA.AperFunction,SMDPad,CuDef*%
%ADD16RoundRect,0.135000X0.135000X0.185000X-0.135000X0.185000X-0.135000X-0.185000X0.135000X-0.185000X0*%
%TD*%
%TA.AperFunction,SMDPad,CuDef*%
%ADD17RoundRect,0.140000X0.170000X-0.140000X0.170000X0.140000X-0.170000X0.140000X-0.170000X-0.140000X0*%
%TD*%
%TA.AperFunction,SMDPad,CuDef*%
%ADD18RoundRect,0.140000X-0.170000X0.140000X-0.170000X-0.140000X0.170000X-0.140000X0.170000X0.140000X0*%
%TD*%
%TA.AperFunction,SMDPad,CuDef*%
%ADD19RoundRect,0.150000X0.150000X-0.512500X0.150000X0.512500X-0.150000X0.512500X-0.150000X-0.512500X0*%
%TD*%
%TA.AperFunction,SMDPad,CuDef*%
%ADD20RoundRect,0.140000X0.140000X0.170000X-0.140000X0.170000X-0.140000X-0.170000X0.140000X-0.170000X0*%
%TD*%
%TA.AperFunction,SMDPad,CuDef*%
%ADD21R,1.000000X1.550000*%
%TD*%
%TA.AperFunction,SMDPad,CuDef*%
%ADD22RoundRect,0.062500X-0.375000X-0.062500X0.375000X-0.062500X0.375000X0.062500X-0.375000X0.062500X0*%
%TD*%
%TA.AperFunction,SMDPad,CuDef*%
%ADD23RoundRect,0.062500X-0.062500X-0.375000X0.062500X-0.375000X0.062500X0.375000X-0.062500X0.375000X0*%
%TD*%
%TA.AperFunction,SMDPad,CuDef*%
%ADD24R,3.450000X3.450000*%
%TD*%
%TA.AperFunction,SMDPad,CuDef*%
%ADD25RoundRect,0.135000X0.185000X-0.135000X0.185000X0.135000X-0.185000X0.135000X-0.185000X-0.135000X0*%
%TD*%
%TA.AperFunction,SMDPad,CuDef*%
%ADD26RoundRect,0.140000X-0.140000X-0.170000X0.140000X-0.170000X0.140000X0.170000X-0.140000X0.170000X0*%
%TD*%
%TA.AperFunction,SMDPad,CuDef*%
%ADD27RoundRect,0.218750X0.381250X-0.218750X0.381250X0.218750X-0.381250X0.218750X-0.381250X-0.218750X0*%
%TD*%
%TA.AperFunction,SMDPad,CuDef*%
%ADD28RoundRect,0.135000X-0.185000X0.135000X-0.185000X-0.135000X0.185000X-0.135000X0.185000X0.135000X0*%
%TD*%
%TA.AperFunction,SMDPad,CuDef*%
%ADD29RoundRect,0.218750X-0.218750X-0.381250X0.218750X-0.381250X0.218750X0.381250X-0.218750X0.381250X0*%
%TD*%
%TA.AperFunction,ConnectorPad*%
%ADD30RoundRect,0.062500X-0.062500X0.662500X-0.062500X-0.662500X0.062500X-0.662500X0.062500X0.662500X0*%
%TD*%
%TA.AperFunction,ComponentPad*%
%ADD31FreePoly0,0.000000*%
%TD*%
%TA.AperFunction,SMDPad,CuDef*%
%ADD32RoundRect,0.150000X0.150000X-0.825000X0.150000X0.825000X-0.150000X0.825000X-0.150000X-0.825000X0*%
%TD*%
%TA.AperFunction,SMDPad,CuDef*%
%ADD33R,1.200000X1.400000*%
%TD*%
%TA.AperFunction,SMDPad,CuDef*%
%ADD34RoundRect,0.135000X-0.135000X-0.185000X0.135000X-0.185000X0.135000X0.185000X-0.135000X0.185000X0*%
%TD*%
%TA.AperFunction,ComponentPad*%
%ADD35R,1.000000X1.000000*%
%TD*%
%TA.AperFunction,ComponentPad*%
%ADD36O,1.000000X1.000000*%
%TD*%
%TA.AperFunction,ViaPad*%
%ADD37C,0.800000*%
%TD*%
%TA.AperFunction,Conductor*%
%ADD38C,0.500000*%
%TD*%
%TA.AperFunction,Conductor*%
%ADD39C,0.250000*%
%TD*%
%TA.AperFunction,Conductor*%
%ADD40C,0.300000*%
%TD*%
%TA.AperFunction,Conductor*%
%ADD41C,0.600000*%
%TD*%
%TA.AperFunction,Conductor*%
%ADD42C,0.349300*%
%TD*%
G04 APERTURE END LIST*
D10*
%TO.C,AE1*%
X134350000Y-101462500D02*
X134350000Y-85812500D01*
X133900000Y-101012500D02*
X109800000Y-101012500D01*
X133900000Y-86912500D02*
X133900000Y-101012500D01*
X133450000Y-100562500D02*
X110250000Y-100562500D01*
X133450000Y-87362500D02*
X133450000Y-100562500D01*
X133000000Y-100112500D02*
X110700000Y-100112500D01*
X133000000Y-87812500D02*
X133000000Y-100112500D01*
X132550000Y-99662500D02*
X111150000Y-99662500D01*
X132550000Y-88262500D02*
X132550000Y-99662500D01*
X127500000Y-88712500D02*
X127500000Y-89712500D01*
X111150000Y-99662500D02*
X111150000Y-88712500D01*
X111150000Y-88712500D02*
X127500000Y-88712500D01*
X110700000Y-100112500D02*
X110700000Y-88262500D01*
X110700000Y-88262500D02*
X132550000Y-88262500D01*
X110250000Y-100562500D02*
X110250000Y-87812500D01*
X110250000Y-87812500D02*
X133000000Y-87812500D01*
X109800000Y-101012500D02*
X109800000Y-87362500D01*
X109800000Y-87362500D02*
X133450000Y-87362500D01*
X109350000Y-101462500D02*
X134350000Y-101462500D01*
X109350000Y-86912500D02*
X133900000Y-86912500D01*
X109350000Y-86912500D02*
X109350000Y-101462500D01*
%TD*%
D11*
%TO.P,D1,1,VDD_A*%
%TO.N,/TRF/VDD_A*%
X116750000Y-79450000D03*
%TO.P,D1,2,VIN*%
%TO.N,+5V*%
X117250000Y-79450000D03*
%TO.P,D1,3,VDD_RF*%
%TO.N,/TRF/VDD_PA*%
X117750000Y-79450000D03*
%TO.P,D1,4,VDD_PA*%
X118250000Y-79450000D03*
%TO.P,D1,5,TX_OUT*%
%TO.N,/Matching NW/RF_TX_OUT*%
X118750000Y-79450000D03*
%TO.P,D1,6,VSS_PA*%
%TO.N,GND*%
X119250000Y-79450000D03*
%TO.P,D1,7,VSS_RX*%
X119750000Y-79450000D03*
%TO.P,D1,8,RX_IN1*%
%TO.N,/Matching NW/RF_RX_IN1*%
X120250000Y-79450000D03*
D12*
%TO.P,D1,9,RX_IN2*%
%TO.N,/Matching NW/RF_RX_IN2*%
X120950000Y-78750000D03*
%TO.P,D1,10,VSS*%
%TO.N,GND*%
X120950000Y-78250000D03*
%TO.P,D1,11,BG*%
%TO.N,/TRF/BG*%
X120950000Y-77750000D03*
%TO.P,D1,12,ASK/OOK*%
%TO.N,unconnected-(D1-ASK{slash}OOK-Pad12)*%
X120950000Y-77250000D03*
%TO.P,D1,13,IRQ*%
%TO.N,/MCU/TRF_IRQ*%
X120950000Y-76750000D03*
%TO.P,D1,14,MOD*%
%TO.N,/TRF/TRF_MOD*%
X120950000Y-76250000D03*
%TO.P,D1,15,VSS_A*%
%TO.N,GND*%
X120950000Y-75750000D03*
%TO.P,D1,16,VDD_I/O*%
%TO.N,/TRF/VDD_X*%
X120950000Y-75250000D03*
D11*
%TO.P,D1,17,I/O_0*%
%TO.N,/MCU/TRF_IO_0*%
X120250000Y-74550000D03*
%TO.P,D1,18,I/O_1*%
%TO.N,/MCU/TRF_IO_1*%
X119750000Y-74550000D03*
%TO.P,D1,19,I/O_2*%
%TO.N,/MCU/TRF_IO_2*%
X119250000Y-74550000D03*
%TO.P,D1,20,I/O_3*%
%TO.N,/MCU/TRF_IO_3*%
X118750000Y-74550000D03*
%TO.P,D1,21,I/O_4*%
%TO.N,/MCU/TRF_IO_4*%
X118250000Y-74550000D03*
%TO.P,D1,22,I/O_5*%
%TO.N,/MCU/TRF_IO_5*%
X117750000Y-74550000D03*
%TO.P,D1,23,I/O_6*%
%TO.N,/MCU/TRF_IO_6*%
X117250000Y-74550000D03*
%TO.P,D1,24,I/O_7*%
%TO.N,/MCU/TRF_IO_7*%
X116750000Y-74550000D03*
D12*
%TO.P,D1,25,EN2*%
%TO.N,+5V*%
X116050000Y-75250000D03*
%TO.P,D1,26,DATA_CLK*%
%TO.N,/MCU/TRF_DATA_CLK*%
X116050000Y-75750000D03*
%TO.P,D1,27,SYS_CLK*%
%TO.N,unconnected-(D1-SYS_CLK-Pad27)*%
X116050000Y-76250000D03*
%TO.P,D1,28,EN*%
%TO.N,/MCU/TRF_EN*%
X116050000Y-76750000D03*
%TO.P,D1,29,VSS_D*%
%TO.N,GND*%
X116050000Y-77250000D03*
%TO.P,D1,30,OSC_OUT*%
%TO.N,/TRF/HSE_OUT*%
X116050000Y-77750000D03*
%TO.P,D1,31,OSC_IN*%
%TO.N,/TRF/HSE_IN*%
X116050000Y-78250000D03*
%TO.P,D1,32,VDD_X*%
%TO.N,/TRF/VDD_X*%
X116050000Y-78750000D03*
D13*
%TO.P,D1,33,EP*%
%TO.N,GND*%
X118500000Y-77000000D03*
%TD*%
D14*
%TO.P,J2,1,Pin_1*%
%TO.N,GND*%
X133250000Y-65000000D03*
D15*
%TO.P,J2,2,Pin_2*%
%TO.N,/CAN/CAN_CON-*%
X131250000Y-65000000D03*
%TO.P,J2,3,Pin_3*%
%TO.N,/CAN/CAN_CON+*%
X129250000Y-65000000D03*
%TO.P,J2,4,Pin_4*%
%TO.N,/CAN/CONN_5V*%
X127250000Y-65000000D03*
%TD*%
D16*
%TO.P,R6,1*%
%TO.N,/CAN/VREF*%
X129010000Y-71750000D03*
%TO.P,R6,2*%
%TO.N,/CAN/CAN+*%
X127990000Y-71750000D03*
%TD*%
D17*
%TO.P,C21,1*%
%TO.N,/CAN/CAN+*%
X128000000Y-70480000D03*
%TO.P,C21,2*%
%TO.N,GND*%
X128000000Y-69520000D03*
%TD*%
D18*
%TO.P,C23,1*%
%TO.N,GND*%
X132500000Y-69520000D03*
%TO.P,C23,2*%
%TO.N,/CAN/CAN-*%
X132500000Y-70480000D03*
%TD*%
D17*
%TO.P,C24,1*%
%TO.N,/CAN/CAN_RS*%
X133750000Y-74500000D03*
%TO.P,C24,2*%
%TO.N,GND*%
X133750000Y-73540000D03*
%TD*%
D19*
%TO.P,U3,1*%
%TO.N,/CAN/CAN+*%
X129300000Y-69407500D03*
%TO.P,U3,2*%
%TO.N,GND*%
X130250000Y-69407500D03*
%TO.P,U3,3*%
%TO.N,/CAN/CAN-*%
X131200000Y-69407500D03*
%TO.P,U3,4*%
%TO.N,/CAN/CAN_CON-*%
X131200000Y-67132500D03*
%TO.P,U3,5*%
%TO.N,/CAN/CONN_5V*%
X130250000Y-67132500D03*
%TO.P,U3,6*%
%TO.N,/CAN/CAN_CON+*%
X129300000Y-67132500D03*
%TD*%
D20*
%TO.P,C29,1*%
%TO.N,/CAN/CONN_5V*%
X127730000Y-68500000D03*
%TO.P,C29,2*%
%TO.N,GND*%
X126770000Y-68500000D03*
%TD*%
D18*
%TO.P,C8,1*%
%TO.N,GND*%
X115250000Y-64020000D03*
%TO.P,C8,2*%
%TO.N,/MCU/NRST*%
X115250000Y-64980000D03*
%TD*%
D21*
%TO.P,SW1,1,1*%
%TO.N,GND*%
X108650000Y-71375000D03*
X108650000Y-66125000D03*
%TO.P,SW1,2,2*%
%TO.N,/MCU/NRST*%
X110350000Y-71375000D03*
X110350000Y-66125000D03*
%TD*%
D22*
%TO.P,U1,1,VDD*%
%TO.N,+3V3*%
X116562500Y-68750000D03*
%TO.P,U1,2,PC14*%
%TO.N,/MCU/Strapping/DBG_LED*%
X116562500Y-69250000D03*
%TO.P,U1,3,PC15*%
%TO.N,unconnected-(U1-PC15-Pad3)*%
X116562500Y-69750000D03*
%TO.P,U1,4,NRST*%
%TO.N,/MCU/NRST*%
X116562500Y-70250000D03*
%TO.P,U1,5,VDDA*%
%TO.N,+3V3*%
X116562500Y-70750000D03*
%TO.P,U1,6,PA0*%
%TO.N,/MCU/TRF_EN*%
X116562500Y-71250000D03*
%TO.P,U1,7,PA1*%
%TO.N,/MCU/TRF_DATA_CLK*%
X116562500Y-71750000D03*
%TO.P,U1,8,PA2*%
%TO.N,/MCU/TRF_IO_7*%
X116562500Y-72250000D03*
D23*
%TO.P,U1,9,PA3*%
%TO.N,/MCU/TRF_IO_6*%
X117250000Y-72937500D03*
%TO.P,U1,10,PA4*%
%TO.N,/MCU/TRF_IO_5*%
X117750000Y-72937500D03*
%TO.P,U1,11,PA5*%
%TO.N,/MCU/TRF_IO_4*%
X118250000Y-72937500D03*
%TO.P,U1,12,PA6*%
%TO.N,/MCU/TRF_IO_3*%
X118750000Y-72937500D03*
%TO.P,U1,13,PA7*%
%TO.N,/MCU/TRF_IO_2*%
X119250000Y-72937500D03*
%TO.P,U1,14,PB0*%
%TO.N,/MCU/TRF_IO_1*%
X119750000Y-72937500D03*
%TO.P,U1,15,PB1*%
%TO.N,/MCU/TRF_IO_0*%
X120250000Y-72937500D03*
%TO.P,U1,16,VSS*%
%TO.N,GND*%
X120750000Y-72937500D03*
D22*
%TO.P,U1,17,VDD*%
%TO.N,+3V3*%
X121437500Y-72250000D03*
%TO.P,U1,18,PA8*%
%TO.N,/MCU/TRF_IRQ*%
X121437500Y-71750000D03*
%TO.P,U1,19,PA9*%
%TO.N,unconnected-(U1-PA9-Pad19)*%
X121437500Y-71250000D03*
%TO.P,U1,20,PA10*%
%TO.N,unconnected-(U1-PA10-Pad20)*%
X121437500Y-70750000D03*
%TO.P,U1,21,PA11*%
%TO.N,/CAN/CAN_RX*%
X121437500Y-70250000D03*
%TO.P,U1,22,PA12*%
%TO.N,/CAN/CAN_TX*%
X121437500Y-69750000D03*
%TO.P,U1,23,PA13*%
%TO.N,/MCU/SWDIO*%
X121437500Y-69250000D03*
%TO.P,U1,24,PA14*%
%TO.N,/MCU/SWCLK*%
X121437500Y-68750000D03*
D23*
%TO.P,U1,25,PA15*%
%TO.N,unconnected-(U1-PA15-Pad25)*%
X120750000Y-68062500D03*
%TO.P,U1,26,PB3*%
%TO.N,/MCU/SWO*%
X120250000Y-68062500D03*
%TO.P,U1,27,PB4*%
%TO.N,unconnected-(U1-PB4-Pad27)*%
X119750000Y-68062500D03*
%TO.P,U1,28,PB5*%
%TO.N,unconnected-(U1-PB5-Pad28)*%
X119250000Y-68062500D03*
%TO.P,U1,29,PB6*%
%TO.N,unconnected-(U1-PB6-Pad29)*%
X118750000Y-68062500D03*
%TO.P,U1,30,PB7*%
%TO.N,unconnected-(U1-PB7-Pad30)*%
X118250000Y-68062500D03*
%TO.P,U1,31,PH3*%
%TO.N,/MCU/Strapping/BOOT0*%
X117750000Y-68062500D03*
%TO.P,U1,32,VSS*%
%TO.N,GND*%
X117250000Y-68062500D03*
D24*
%TO.P,U1,33,VSS*%
X119000000Y-70500000D03*
%TD*%
D17*
%TO.P,C14,1*%
%TO.N,GND*%
X117500000Y-82480000D03*
%TO.P,C14,2*%
%TO.N,/TRF/VDD_PA*%
X117500000Y-81520000D03*
%TD*%
D25*
%TO.P,R9,1*%
%TO.N,/CAN/CAN_RS*%
X135000000Y-74530000D03*
%TO.P,R9,2*%
%TO.N,+3V3*%
X135000000Y-73510000D03*
%TD*%
D26*
%TO.P,C35,1*%
%TO.N,/Matching NW/RF_RX_IN2*%
X122270000Y-80250000D03*
%TO.P,C35,2*%
%TO.N,Net-(C35-Pad2)*%
X123230000Y-80250000D03*
%TD*%
D18*
%TO.P,C9,1*%
%TO.N,GND*%
X113750000Y-79270000D03*
%TO.P,C9,2*%
%TO.N,/TRF/VDD_X*%
X113750000Y-80230000D03*
%TD*%
%TO.P,C19,1*%
%TO.N,+3V3*%
X135000000Y-76520000D03*
%TO.P,C19,2*%
%TO.N,GND*%
X135000000Y-77480000D03*
%TD*%
D20*
%TO.P,C5,1*%
%TO.N,GND*%
X123480000Y-75500000D03*
%TO.P,C5,2*%
%TO.N,/TRF/BG*%
X122520000Y-75500000D03*
%TD*%
D27*
%TO.P,L2,1,1*%
%TO.N,Net-(C32-Pad2)*%
X124750000Y-82312500D03*
%TO.P,L2,2,2*%
%TO.N,Net-(C35-Pad2)*%
X124750000Y-80187500D03*
%TD*%
D18*
%TO.P,C20,1*%
%TO.N,+3V3*%
X133750000Y-76520000D03*
%TO.P,C20,2*%
%TO.N,GND*%
X133750000Y-77480000D03*
%TD*%
D28*
%TO.P,R1,1*%
%TO.N,+3V3*%
X114000000Y-63990000D03*
%TO.P,R1,2*%
%TO.N,/MCU/NRST*%
X114000000Y-65010000D03*
%TD*%
D17*
%TO.P,C11,1*%
%TO.N,GND*%
X112500000Y-82480000D03*
%TO.P,C11,2*%
%TO.N,/TRF/VDD_A*%
X112500000Y-81520000D03*
%TD*%
D18*
%TO.P,C4,1*%
%TO.N,GND*%
X114000000Y-67520000D03*
%TO.P,C4,2*%
%TO.N,+3V3*%
X114000000Y-68480000D03*
%TD*%
%TO.P,C27,1*%
%TO.N,/Matching NW/SE_OUT*%
X128750000Y-83520000D03*
%TO.P,C27,2*%
%TO.N,/PCB Antenna/Antenna*%
X128750000Y-84480000D03*
%TD*%
D20*
%TO.P,C36,1*%
%TO.N,GND*%
X123230000Y-79000000D03*
%TO.P,C36,2*%
%TO.N,/Matching NW/RF_RX_IN2*%
X122270000Y-79000000D03*
%TD*%
D29*
%TO.P,L1,1,1*%
%TO.N,Net-(C30-Pad2)*%
X119687500Y-84250000D03*
%TO.P,L1,2,2*%
%TO.N,Net-(C32-Pad2)*%
X121812500Y-84250000D03*
%TD*%
D17*
%TO.P,C16,1*%
%TO.N,GND*%
X115000000Y-82480000D03*
%TO.P,C16,2*%
%TO.N,+5V*%
X115000000Y-81520000D03*
%TD*%
D26*
%TO.P,C30,1*%
%TO.N,/Matching NW/RF_TX_OUT*%
X118770000Y-81500000D03*
%TO.P,C30,2*%
%TO.N,Net-(C30-Pad2)*%
X119730000Y-81500000D03*
%TD*%
D25*
%TO.P,R10,1*%
%TO.N,/PCB Antenna/Antenna*%
X130000000Y-84510000D03*
%TO.P,R10,2*%
%TO.N,GND*%
X130000000Y-83490000D03*
%TD*%
D17*
%TO.P,C22,1*%
%TO.N,/CAN/VREF*%
X130250000Y-71980000D03*
%TO.P,C22,2*%
%TO.N,GND*%
X130250000Y-71020000D03*
%TD*%
D18*
%TO.P,C18,1*%
%TO.N,GND*%
X112500000Y-74020000D03*
%TO.P,C18,2*%
%TO.N,/TRF/HSE_OUT*%
X112500000Y-74980000D03*
%TD*%
D20*
%TO.P,C31,1*%
%TO.N,Net-(C30-Pad2)*%
X119710000Y-82750000D03*
%TO.P,C31,2*%
%TO.N,/Matching NW/RF_TX_OUT*%
X118750000Y-82750000D03*
%TD*%
D18*
%TO.P,C3,1*%
%TO.N,GND*%
X115250000Y-67520000D03*
%TO.P,C3,2*%
%TO.N,+3V3*%
X115250000Y-68480000D03*
%TD*%
D17*
%TO.P,C28,1*%
%TO.N,+5V*%
X124000000Y-67480000D03*
%TO.P,C28,2*%
%TO.N,GND*%
X124000000Y-66520000D03*
%TD*%
%TO.P,C1,1*%
%TO.N,GND*%
X114500000Y-71730000D03*
%TO.P,C1,2*%
%TO.N,+3V3*%
X114500000Y-70770000D03*
%TD*%
D16*
%TO.P,R8,1*%
%TO.N,/CAN/CAN-*%
X132510000Y-71750000D03*
%TO.P,R8,2*%
%TO.N,/CAN/VREF*%
X131490000Y-71750000D03*
%TD*%
D20*
%TO.P,C33,1*%
%TO.N,GND*%
X121980000Y-81500000D03*
%TO.P,C33,2*%
%TO.N,/Matching NW/RF_RX_IN1*%
X121020000Y-81500000D03*
%TD*%
D26*
%TO.P,C32,1*%
%TO.N,/Matching NW/RF_RX_IN1*%
X121020000Y-82750000D03*
%TO.P,C32,2*%
%TO.N,Net-(C32-Pad2)*%
X121980000Y-82750000D03*
%TD*%
D18*
%TO.P,C7,1*%
%TO.N,/MCU/NRST*%
X112500000Y-70770000D03*
%TO.P,C7,2*%
%TO.N,GND*%
X112500000Y-71730000D03*
%TD*%
D17*
%TO.P,C15,1*%
%TO.N,GND*%
X113750000Y-82480000D03*
%TO.P,C15,2*%
%TO.N,+5V*%
X113750000Y-81520000D03*
%TD*%
D29*
%TO.P,FB2,1*%
%TO.N,+5V*%
X125437500Y-67000000D03*
%TO.P,FB2,2*%
%TO.N,/CAN/CONN_5V*%
X127562500Y-67000000D03*
%TD*%
D17*
%TO.P,C17,1*%
%TO.N,GND*%
X112500000Y-77480000D03*
%TO.P,C17,2*%
%TO.N,/TRF/HSE_IN*%
X112500000Y-76520000D03*
%TD*%
%TO.P,C38,1*%
%TO.N,GND*%
X127500000Y-82480000D03*
%TO.P,C38,2*%
%TO.N,Net-(C35-Pad2)*%
X127500000Y-81520000D03*
%TD*%
D28*
%TO.P,R11,1*%
%TO.N,Net-(C35-Pad2)*%
X128750000Y-81490000D03*
%TO.P,R11,2*%
%TO.N,/Matching NW/SE_OUT*%
X128750000Y-82510000D03*
%TD*%
D17*
%TO.P,C2,1*%
%TO.N,GND*%
X122750000Y-73480000D03*
%TO.P,C2,2*%
%TO.N,+3V3*%
X122750000Y-72520000D03*
%TD*%
D20*
%TO.P,C6,1*%
%TO.N,GND*%
X123480000Y-76750000D03*
%TO.P,C6,2*%
%TO.N,/TRF/BG*%
X122520000Y-76750000D03*
%TD*%
D18*
%TO.P,C10,1*%
%TO.N,GND*%
X112500000Y-79270000D03*
%TO.P,C10,2*%
%TO.N,/TRF/VDD_X*%
X112500000Y-80230000D03*
%TD*%
D17*
%TO.P,C12,1*%
%TO.N,GND*%
X111250000Y-82480000D03*
%TO.P,C12,2*%
%TO.N,/TRF/VDD_A*%
X111250000Y-81520000D03*
%TD*%
%TO.P,C13,1*%
%TO.N,GND*%
X116250000Y-82480000D03*
%TO.P,C13,2*%
%TO.N,/TRF/VDD_PA*%
X116250000Y-81520000D03*
%TD*%
D16*
%TO.P,R4,1*%
%TO.N,/MCU/Strapping/BOOT0*%
X115110000Y-66250000D03*
%TO.P,R4,2*%
%TO.N,GND*%
X114090000Y-66250000D03*
%TD*%
D17*
%TO.P,C25,1*%
%TO.N,/PCB Antenna/Antenna*%
X132500000Y-84480000D03*
%TO.P,C25,2*%
%TO.N,GND*%
X132500000Y-83520000D03*
%TD*%
D28*
%TO.P,R5,1*%
%TO.N,/CAN/CAN_TX*%
X126750000Y-72490000D03*
%TO.P,R5,2*%
%TO.N,Net-(U2-D)*%
X126750000Y-73510000D03*
%TD*%
D30*
%TO.P,AE1,1*%
%TO.N,/PCB Antenna/Antenna*%
X134350000Y-85212500D03*
D31*
%TO.P,AE1,2*%
%TO.N,GND*%
X127500000Y-90312500D03*
%TD*%
D28*
%TO.P,R7,1*%
%TO.N,/CAN/CAN_RX*%
X125500000Y-72490000D03*
%TO.P,R7,2*%
%TO.N,Net-(U2-R)*%
X125500000Y-73510000D03*
%TD*%
D32*
%TO.P,U2,1,D*%
%TO.N,Net-(U2-D)*%
X128345000Y-78725000D03*
%TO.P,U2,2,GND*%
%TO.N,GND*%
X129615000Y-78725000D03*
%TO.P,U2,3,VCC*%
%TO.N,+3V3*%
X130885000Y-78725000D03*
%TO.P,U2,4,R*%
%TO.N,Net-(U2-R)*%
X132155000Y-78725000D03*
%TO.P,U2,5,Vref*%
%TO.N,/CAN/VREF*%
X132155000Y-73775000D03*
%TO.P,U2,6,CANL*%
%TO.N,/CAN/CAN-*%
X130885000Y-73775000D03*
%TO.P,U2,7,CANH*%
%TO.N,/CAN/CAN+*%
X129615000Y-73775000D03*
%TO.P,U2,8,Rs*%
%TO.N,/CAN/CAN_RS*%
X128345000Y-73775000D03*
%TD*%
D17*
%TO.P,C37,1*%
%TO.N,GND*%
X126250000Y-82480000D03*
%TO.P,C37,2*%
%TO.N,Net-(C35-Pad2)*%
X126250000Y-81520000D03*
%TD*%
%TO.P,C26,1*%
%TO.N,/PCB Antenna/Antenna*%
X131250000Y-84480000D03*
%TO.P,C26,2*%
%TO.N,GND*%
X131250000Y-83520000D03*
%TD*%
D33*
%TO.P,Y1,1,1*%
%TO.N,/TRF/HSE_IN*%
X110850000Y-76100000D03*
%TO.P,Y1,2,2*%
%TO.N,GND*%
X110850000Y-73900000D03*
%TO.P,Y1,3,3*%
%TO.N,/TRF/HSE_OUT*%
X109150000Y-73900000D03*
%TO.P,Y1,4,4*%
%TO.N,GND*%
X109150000Y-76100000D03*
%TD*%
D17*
%TO.P,C34,1*%
%TO.N,GND*%
X123250000Y-83480000D03*
%TO.P,C34,2*%
%TO.N,Net-(C32-Pad2)*%
X123250000Y-82520000D03*
%TD*%
D34*
%TO.P,R3,1*%
%TO.N,+3V3*%
X110240000Y-80250000D03*
%TO.P,R3,2*%
%TO.N,/TRF/VDD_X*%
X111260000Y-80250000D03*
%TD*%
D35*
%TO.P,J1,1,Pin_1*%
%TO.N,GND*%
X117450000Y-64125000D03*
D36*
%TO.P,J1,2,Pin_2*%
%TO.N,/MCU/NRST*%
X117450000Y-65395000D03*
%TO.P,J1,3,Pin_3*%
%TO.N,unconnected-(J1-Pin_3-Pad3)*%
X118720000Y-64125000D03*
%TO.P,J1,4,Pin_4*%
%TO.N,unconnected-(J1-Pin_4-Pad4)*%
X118720000Y-65395000D03*
%TO.P,J1,5,Pin_5*%
%TO.N,GND*%
X119990000Y-64125000D03*
%TO.P,J1,6,Pin_6*%
%TO.N,/MCU/SWO*%
X119990000Y-65395000D03*
%TO.P,J1,7,Pin_7*%
%TO.N,GND*%
X121260000Y-64125000D03*
%TO.P,J1,8,Pin_8*%
%TO.N,/MCU/SWCLK*%
X121260000Y-65395000D03*
%TO.P,J1,9,Pin_9*%
%TO.N,+3V3*%
X122530000Y-64125000D03*
%TO.P,J1,10,Pin_10*%
%TO.N,/MCU/SWDIO*%
X122530000Y-65395000D03*
%TD*%
D37*
%TO.N,GND*%
X127000000Y-77000000D03*
X123750000Y-71500000D03*
X123012299Y-74512299D03*
X117500000Y-78000000D03*
X109250000Y-68750000D03*
X113750000Y-83500000D03*
X127500000Y-84500000D03*
X111500002Y-67000000D03*
X111250000Y-77500000D03*
X115000000Y-83500000D03*
X111500000Y-71750000D03*
X123250000Y-84500000D03*
X112500000Y-73000052D03*
X118500000Y-78000000D03*
X118000000Y-70500000D03*
X117500000Y-77000000D03*
X120000000Y-71500000D03*
X111250024Y-79250000D03*
X112500000Y-83500000D03*
X130000016Y-82500000D03*
X127500000Y-83500000D03*
X119000000Y-70500000D03*
X117500000Y-83500000D03*
X129615009Y-77135009D03*
X118000000Y-71500000D03*
X124500000Y-76750000D03*
X124000000Y-65500000D03*
X116250000Y-83500000D03*
X119700700Y-80500000D03*
X126250026Y-83500000D03*
X133500000Y-70000000D03*
X113500000Y-71800003D03*
X123750000Y-73500000D03*
X133762653Y-78487347D03*
X117500000Y-76000000D03*
X131250000Y-82500000D03*
X119500000Y-77000000D03*
X113000000Y-67500000D03*
X132500000Y-82500000D03*
X115250000Y-62750000D03*
X119000000Y-71500000D03*
X124250000Y-79000000D03*
X120000000Y-70500000D03*
X118500000Y-76000000D03*
X135000000Y-78500000D03*
X129250000Y-70750000D03*
X119500000Y-76000000D03*
X133750000Y-72520000D03*
X113000000Y-66250000D03*
X131250000Y-70750000D03*
X127000000Y-70000000D03*
X125750000Y-68500000D03*
X118500000Y-77000000D03*
X123250000Y-81500000D03*
X119500000Y-78000000D03*
X111250000Y-83500000D03*
%TO.N,+3V3*%
X109000000Y-80250000D03*
X110250000Y-81250000D03*
X114000000Y-62750000D03*
X113500000Y-70800000D03*
X123750000Y-72500000D03*
X133750000Y-75500000D03*
X135000000Y-72520000D03*
X113000000Y-68500000D03*
X135000000Y-75500000D03*
X110250000Y-79249998D03*
%TO.N,+5V*%
X116000000Y-74500000D03*
X117000000Y-80500000D03*
X124000000Y-68500000D03*
%TO.N,Net-(U2-R)*%
X133750000Y-79500000D03*
X127000000Y-76000000D03*
%TO.N,/TRF/VDD_X*%
X114750000Y-79250000D03*
X121000000Y-74500000D03*
%TO.N,/MCU/TRF_IRQ*%
X122750000Y-71500000D03*
X122000000Y-74500000D03*
%TO.N,/MCU/Strapping/DBG_LED*%
X115394298Y-69500000D03*
%TD*%
D38*
%TO.N,+3V3*%
X110240000Y-79259998D02*
X110250000Y-79249998D01*
D39*
%TO.N,/CAN/CAN_RX*%
X122000000Y-70250000D02*
X121437500Y-70250000D01*
X122500000Y-70750000D02*
X122000000Y-70250000D01*
X124500000Y-70750000D02*
X122500000Y-70750000D01*
X125500000Y-71750000D02*
X124500000Y-70750000D01*
X125500000Y-72490000D02*
X125500000Y-71750000D01*
%TO.N,/CAN/CAN_TX*%
X125000000Y-69750000D02*
X121437500Y-69750000D01*
X126750000Y-71500000D02*
X125000000Y-69750000D01*
X126750000Y-72490000D02*
X126750000Y-71500000D01*
D40*
%TO.N,/CAN/CAN_RS*%
X133250000Y-74500000D02*
X133750000Y-74500000D01*
X129250000Y-75750000D02*
X132000000Y-75750000D01*
X128345000Y-74845000D02*
X129250000Y-75750000D01*
X132000000Y-75750000D02*
X133250000Y-74500000D01*
X128345000Y-73775000D02*
X128345000Y-74845000D01*
X134970000Y-74500000D02*
X135000000Y-74530000D01*
X133750000Y-74500000D02*
X134970000Y-74500000D01*
D41*
%TO.N,GND*%
X129615000Y-77135018D02*
X129615009Y-77135009D01*
X129615000Y-78725000D02*
X129615000Y-77135018D01*
X133762653Y-77492653D02*
X133750000Y-77480000D01*
X133762653Y-78487347D02*
X133762653Y-77492653D01*
X135000000Y-78500000D02*
X135000000Y-77480000D01*
X133750000Y-72520000D02*
X133750000Y-73540000D01*
X133020000Y-69520000D02*
X132500000Y-69520000D01*
X133500000Y-70000000D02*
X133020000Y-69520000D01*
X127000000Y-70000000D02*
X127480000Y-69520000D01*
X127480000Y-69520000D02*
X128000000Y-69520000D01*
X126770000Y-68500000D02*
X125750000Y-68500000D01*
X124000000Y-65500000D02*
X124000000Y-66520000D01*
X115250000Y-62750000D02*
X115250000Y-64020000D01*
X113000000Y-66250000D02*
X114090000Y-66250000D01*
X111520000Y-71730000D02*
X111500000Y-71750000D01*
X112500000Y-71730000D02*
X111520000Y-71730000D01*
X113570003Y-71730000D02*
X113500000Y-71800003D01*
X114500000Y-71730000D02*
X113570003Y-71730000D01*
X111250024Y-79250000D02*
X113730000Y-79250000D01*
X113730000Y-79250000D02*
X113750000Y-79270000D01*
X111250000Y-83500000D02*
X111250000Y-82480000D01*
X112500000Y-83500000D02*
X112500000Y-82480000D01*
X113750000Y-83500000D02*
X113750000Y-82480000D01*
X115000000Y-83500000D02*
X115000000Y-82480000D01*
X116250000Y-83500000D02*
X116250000Y-82480000D01*
X117500000Y-83500000D02*
X117500000Y-82480000D01*
X123250000Y-84500000D02*
X123250000Y-83480000D01*
X124250000Y-79000000D02*
X123230000Y-79000000D01*
X121980000Y-81500000D02*
X123250000Y-81500000D01*
X126250000Y-83499974D02*
X126250026Y-83500000D01*
X126250000Y-82480000D02*
X126250000Y-83499974D01*
X127500000Y-82480000D02*
X127500000Y-83500000D01*
X132500000Y-83520000D02*
X132500000Y-82500000D01*
X131250000Y-83520000D02*
X131250000Y-82500000D01*
X130000000Y-82500016D02*
X130000016Y-82500000D01*
X130000000Y-83490000D02*
X130000000Y-82500016D01*
D38*
X109250000Y-69500000D02*
X108650000Y-70100000D01*
D40*
X117750000Y-77250000D02*
X118250000Y-77250000D01*
X116050000Y-77250000D02*
X117250000Y-77250000D01*
X111250000Y-77500000D02*
X110250000Y-77500000D01*
X111250000Y-77500000D02*
X112480000Y-77500000D01*
D38*
X109250000Y-69500000D02*
X109250000Y-68750000D01*
D40*
X120950000Y-75750000D02*
X119750000Y-75750000D01*
X110250000Y-77500000D02*
X109150000Y-76400000D01*
X110850000Y-73900000D02*
X110970000Y-74020000D01*
X119750000Y-75750000D02*
X119500000Y-76000000D01*
X112500000Y-74020000D02*
X112500000Y-73000052D01*
D38*
X109250000Y-68750000D02*
X109250000Y-68000000D01*
X130250000Y-68846472D02*
X130826472Y-68270000D01*
D40*
X117500000Y-77000000D02*
X117750000Y-77250000D01*
X119500000Y-78000000D02*
X118500000Y-77000000D01*
D38*
X130826472Y-68270000D02*
X131573528Y-68270000D01*
X113020000Y-67520000D02*
X113000000Y-67500000D01*
D40*
X119750000Y-78250000D02*
X119500000Y-78000000D01*
D38*
X113750000Y-79270000D02*
X112500000Y-79270000D01*
X108650000Y-70100000D02*
X108650000Y-71375000D01*
X131573528Y-68270000D02*
X133250000Y-66593528D01*
X108650000Y-67400000D02*
X109250000Y-68000000D01*
X108650000Y-66125000D02*
X108650000Y-67400000D01*
D40*
X123730000Y-73480000D02*
X123750000Y-73500000D01*
D38*
X112500000Y-79270000D02*
X112480000Y-79250000D01*
D40*
X109150000Y-76400000D02*
X109150000Y-76100000D01*
D38*
X133250000Y-66593528D02*
X133250000Y-65000000D01*
D40*
X120950000Y-78250000D02*
X119750000Y-78250000D01*
D38*
X112480000Y-79250000D02*
X111250024Y-79250000D01*
D40*
X117250000Y-77250000D02*
X117500000Y-77000000D01*
X119750000Y-79450000D02*
X119750000Y-78250000D01*
D38*
X130250000Y-69407500D02*
X130250000Y-68846472D01*
D40*
X110970000Y-74020000D02*
X112500000Y-74020000D01*
X112480000Y-77500000D02*
X112500000Y-77480000D01*
X118250000Y-77250000D02*
X118500000Y-77000000D01*
X119500000Y-76000000D02*
X118500000Y-77000000D01*
X119250000Y-77750000D02*
X118500000Y-77000000D01*
X119250000Y-79450000D02*
X119250000Y-77750000D01*
D38*
%TO.N,+3V3*%
X110250000Y-80260000D02*
X110240000Y-80250000D01*
X113020000Y-68480000D02*
X113000000Y-68500000D01*
D40*
X123730000Y-72520000D02*
X123750000Y-72500000D01*
%TO.N,+5V*%
X116050000Y-74550000D02*
X116000000Y-74500000D01*
X116050000Y-75250000D02*
X116050000Y-74550000D01*
X117250000Y-80250000D02*
X117000000Y-80500000D01*
X117250000Y-79450000D02*
X117250000Y-80250000D01*
D42*
%TO.N,/Matching NW/RF_TX_OUT*%
X118750000Y-80249650D02*
X118750000Y-82750000D01*
D40*
X118750000Y-79450000D02*
X118750000Y-80249650D01*
%TO.N,/Matching NW/RF_RX_IN1*%
X120250000Y-79750000D02*
X120500000Y-80000000D01*
D42*
X121020000Y-80520000D02*
X120500000Y-80000000D01*
X121020000Y-81500000D02*
X121020000Y-80520000D01*
D40*
X120250000Y-79450000D02*
X120250000Y-79750000D01*
D42*
X121020000Y-81500000D02*
X121020000Y-82750000D01*
%TO.N,/Matching NW/RF_RX_IN2*%
X122270000Y-79000000D02*
X122020000Y-78750000D01*
D40*
X120950000Y-78750000D02*
X121750000Y-78750000D01*
D42*
X122020000Y-78750000D02*
X121750000Y-78750000D01*
X122270000Y-80250000D02*
X122270000Y-79000000D01*
D39*
%TO.N,Net-(U2-D)*%
X126750000Y-73510000D02*
X126750000Y-74500000D01*
X128345000Y-76095000D02*
X128345000Y-78725000D01*
X126750000Y-74500000D02*
X128345000Y-76095000D01*
%TO.N,Net-(U2-R)*%
X126995000Y-76000000D02*
X127000000Y-76000000D01*
X125500000Y-74505000D02*
X126995000Y-76000000D01*
X132250000Y-79480000D02*
X133730000Y-79480000D01*
X132155000Y-78725000D02*
X132250000Y-78820000D01*
X133730000Y-79480000D02*
X133750000Y-79500000D01*
X125500000Y-73510000D02*
X125500000Y-74505000D01*
X132250000Y-78820000D02*
X132250000Y-79480000D01*
D40*
%TO.N,/MCU/NRST*%
X110100000Y-66375000D02*
X110100000Y-71125000D01*
X114482965Y-69750000D02*
X114982965Y-70250000D01*
X112500000Y-70770000D02*
X112500000Y-70500000D01*
X113250000Y-69750000D02*
X114482965Y-69750000D01*
X110350000Y-71090000D02*
X110670000Y-70770000D01*
X110350000Y-66125000D02*
X110100000Y-66375000D01*
X110100000Y-71125000D02*
X110350000Y-71375000D01*
X112500000Y-70500000D02*
X113250000Y-69750000D01*
X117035000Y-64980000D02*
X117450000Y-65395000D01*
X115250000Y-64980000D02*
X111270000Y-64980000D01*
X111270000Y-64980000D02*
X110350000Y-65900000D01*
X114982965Y-70250000D02*
X116562500Y-70250000D01*
X110350000Y-65900000D02*
X110350000Y-66125000D01*
X115250000Y-64980000D02*
X117035000Y-64980000D01*
X110670000Y-70770000D02*
X112500000Y-70770000D01*
X110350000Y-71375000D02*
X110350000Y-71090000D01*
X112500000Y-70770000D02*
X112480000Y-70750000D01*
%TO.N,/TRF/VDD_X*%
X120950000Y-75250000D02*
X120950000Y-74550000D01*
X120950000Y-74550000D02*
X121000000Y-74500000D01*
%TO.N,/TRF/VDD_PA*%
X117750000Y-81270000D02*
X117750000Y-79450000D01*
X117500000Y-81520000D02*
X117750000Y-81270000D01*
X117750000Y-79450000D02*
X118250000Y-79450000D01*
D38*
X117500000Y-81520000D02*
X116250000Y-81520000D01*
D39*
%TO.N,/TRF/HSE_IN*%
X114250000Y-78250000D02*
X116050000Y-78250000D01*
X111100000Y-76170000D02*
X111000000Y-76270000D01*
X111270000Y-76520000D02*
X112500000Y-76520000D01*
X111100000Y-76120000D02*
X111100000Y-76170000D01*
X112500000Y-76520000D02*
X112520000Y-76520000D01*
X110850000Y-76100000D02*
X111270000Y-76520000D01*
X112520000Y-76520000D02*
X114250000Y-78250000D01*
%TO.N,/TRF/HSE_OUT*%
X115250000Y-77750000D02*
X116050000Y-77750000D01*
X109150000Y-73900000D02*
X109150000Y-74075000D01*
X110055000Y-74980000D02*
X112500000Y-74980000D01*
X109150000Y-74075000D02*
X110055000Y-74980000D01*
X112500000Y-75000000D02*
X115250000Y-77750000D01*
X112500000Y-74980000D02*
X112500000Y-75000000D01*
%TO.N,/CAN/CAN+*%
X129615000Y-73398249D02*
X129615000Y-73775000D01*
X127990000Y-71773249D02*
X129615000Y-73398249D01*
X127990000Y-71750000D02*
X127990000Y-71773249D01*
X128000000Y-70480000D02*
X128227500Y-70480000D01*
X127990000Y-71750000D02*
X127990000Y-70490000D01*
X127990000Y-70490000D02*
X128000000Y-70480000D01*
X129615000Y-73775000D02*
X129615000Y-73375000D01*
X128227500Y-70480000D02*
X129300000Y-69407500D01*
%TO.N,/CAN/CAN-*%
X130885000Y-73775000D02*
X130885000Y-73375000D01*
X131200000Y-69407500D02*
X132272500Y-70480000D01*
X132272500Y-70480000D02*
X132500000Y-70480000D01*
X132510000Y-71750000D02*
X132510000Y-70490000D01*
X130885000Y-73375000D02*
X132510000Y-71750000D01*
X132510000Y-70490000D02*
X132500000Y-70480000D01*
%TO.N,/MCU/TRF_IRQ*%
X122500000Y-71750000D02*
X122750000Y-71500000D01*
X121750000Y-74750000D02*
X122000000Y-74500000D01*
X121750000Y-76500000D02*
X121750000Y-74750000D01*
X121437500Y-71750000D02*
X122500000Y-71750000D01*
X121500000Y-76750000D02*
X121750000Y-76500000D01*
X120950000Y-76750000D02*
X121500000Y-76750000D01*
%TO.N,/MCU/TRF_IO_0*%
X120250000Y-74550000D02*
X120250000Y-72937500D01*
%TO.N,/MCU/TRF_IO_1*%
X119750000Y-74550000D02*
X119750000Y-72937500D01*
%TO.N,/MCU/TRF_IO_2*%
X119250000Y-74550000D02*
X119250000Y-72937500D01*
%TO.N,/MCU/TRF_IO_3*%
X118750000Y-74550000D02*
X118750000Y-72937500D01*
%TO.N,/MCU/TRF_IO_4*%
X118250000Y-74550000D02*
X118250000Y-72937500D01*
%TO.N,/MCU/TRF_IO_5*%
X117750000Y-74550000D02*
X117750000Y-72937500D01*
%TO.N,/MCU/TRF_IO_6*%
X117250000Y-74550000D02*
X117250000Y-72937500D01*
%TO.N,/MCU/TRF_IO_7*%
X116750000Y-72250000D02*
X116750000Y-74550000D01*
X116562500Y-72250000D02*
X116750000Y-72250000D01*
%TO.N,/MCU/TRF_DATA_CLK*%
X115500000Y-75750000D02*
X116050000Y-75750000D01*
X115700000Y-73300000D02*
X115700000Y-72126992D01*
X115700000Y-72126992D02*
X116076992Y-71750000D01*
X115000000Y-75250000D02*
X115500000Y-75750000D01*
X116076992Y-71750000D02*
X116562500Y-71750000D01*
X115000000Y-74000000D02*
X115700000Y-73300000D01*
X115000000Y-75250000D02*
X115000000Y-74000000D01*
%TO.N,/MCU/TRF_EN*%
X115250000Y-71940596D02*
X115940596Y-71250000D01*
X114250000Y-75500000D02*
X114250000Y-73500000D01*
X116050000Y-76750000D02*
X115500000Y-76750000D01*
X115250000Y-72500000D02*
X115250000Y-71940596D01*
X115940596Y-71250000D02*
X116562500Y-71250000D01*
X115500000Y-76750000D02*
X114250000Y-75500000D01*
X114250000Y-73500000D02*
X115250000Y-72500000D01*
D40*
%TO.N,/MCU/Strapping/DBG_LED*%
X115644298Y-69250000D02*
X115394298Y-69500000D01*
X116562500Y-69250000D02*
X115644298Y-69250000D01*
D39*
%TO.N,/MCU/SWO*%
X120250000Y-65655000D02*
X119990000Y-65395000D01*
X120250000Y-68062500D02*
X120250000Y-65655000D01*
%TO.N,/MCU/SWCLK*%
X121437500Y-65572500D02*
X121260000Y-65395000D01*
X121437500Y-68750000D02*
X121437500Y-65572500D01*
%TO.N,/MCU/SWDIO*%
X122530000Y-68643008D02*
X121923008Y-69250000D01*
X122530000Y-65395000D02*
X122530000Y-68643008D01*
X121923008Y-69250000D02*
X121437500Y-69250000D01*
D40*
%TO.N,/MCU/Strapping/BOOT0*%
X116458363Y-66250000D02*
X117750000Y-67541637D01*
X117750000Y-67541637D02*
X117750000Y-68062500D01*
X115110000Y-66250000D02*
X116458363Y-66250000D01*
D39*
%TO.N,/CAN/CAN_CON+*%
X129300000Y-67132500D02*
X129300000Y-65050000D01*
X129300000Y-65050000D02*
X129250000Y-65000000D01*
%TO.N,/CAN/CAN_CON-*%
X131200000Y-67132500D02*
X131200000Y-65050000D01*
X131200000Y-65050000D02*
X131250000Y-65000000D01*
D42*
%TO.N,/Matching NW/SE_OUT*%
X128750000Y-83520000D02*
X128750000Y-82510000D01*
%TO.N,/PCB Antenna/Antenna*%
X134230000Y-84480000D02*
X134350000Y-84600000D01*
X128750000Y-84480000D02*
X134230000Y-84480000D01*
X134350000Y-84600000D02*
X134350000Y-85212500D01*
D38*
%TO.N,/CAN/CONN_5V*%
X130250000Y-67132500D02*
X130250000Y-67856522D01*
X127960000Y-68270000D02*
X127730000Y-68500000D01*
X130250000Y-67856522D02*
X129836523Y-68270000D01*
X129836523Y-68270000D02*
X127960000Y-68270000D01*
D42*
%TO.N,Net-(C30-Pad2)*%
X119730000Y-81500000D02*
X119730000Y-84207500D01*
X119730000Y-84207500D02*
X119687500Y-84250000D01*
%TO.N,Net-(C32-Pad2)*%
X124542500Y-82520000D02*
X124750000Y-82312500D01*
X121812500Y-84250000D02*
X122000000Y-84062500D01*
X123250000Y-82520000D02*
X124542500Y-82520000D01*
X121980000Y-82750000D02*
X122210000Y-82520000D01*
X122210000Y-82520000D02*
X123250000Y-82520000D01*
X122000000Y-82770000D02*
X121980000Y-82750000D01*
X122000000Y-84062500D02*
X122000000Y-82770000D01*
%TO.N,Net-(C35-Pad2)*%
X126250000Y-81520000D02*
X128720000Y-81520000D01*
X123230000Y-80250000D02*
X124980000Y-80250000D01*
X128720000Y-81520000D02*
X128750000Y-81490000D01*
X124980000Y-80250000D02*
X126250000Y-81520000D01*
%TD*%
%TA.AperFunction,Conductor*%
%TO.N,+5V*%
G36*
X117193039Y-80269685D02*
G01*
X117238794Y-80322489D01*
X117250000Y-80374000D01*
X117250000Y-80698638D01*
X117230315Y-80765677D01*
X117213681Y-80786319D01*
X117036319Y-80963681D01*
X116974996Y-80997166D01*
X116948638Y-81000000D01*
X116000000Y-81000000D01*
X115937502Y-81062496D01*
X115902231Y-81087193D01*
X115881685Y-81096774D01*
X115796775Y-81181684D01*
X115787194Y-81202231D01*
X115762494Y-81237504D01*
X115286319Y-81713681D01*
X115224996Y-81747166D01*
X115198638Y-81750000D01*
X113624000Y-81750000D01*
X113556961Y-81730315D01*
X113511206Y-81677511D01*
X113500000Y-81626000D01*
X113500000Y-81374000D01*
X113519685Y-81306961D01*
X113572489Y-81261206D01*
X113624000Y-81250000D01*
X114750000Y-81250000D01*
X114808649Y-81191350D01*
X114836900Y-81170202D01*
X114884805Y-81144044D01*
X114931630Y-81108991D01*
X115754301Y-80286318D01*
X115815624Y-80252834D01*
X115841982Y-80250000D01*
X117126000Y-80250000D01*
X117193039Y-80269685D01*
G37*
%TD.AperFunction*%
%TD*%
%TA.AperFunction,Conductor*%
%TO.N,GND*%
G36*
X123757441Y-75019685D02*
G01*
X123787229Y-75046537D01*
X123855028Y-75131285D01*
X123922827Y-75216034D01*
X123949336Y-75280679D01*
X123950000Y-75293496D01*
X123950000Y-76100000D01*
X124150000Y-76300000D01*
X124698638Y-76300000D01*
X124765677Y-76319685D01*
X124786319Y-76336319D01*
X124913681Y-76463681D01*
X124947166Y-76525004D01*
X124950000Y-76551362D01*
X124950000Y-76948638D01*
X124930315Y-77015677D01*
X124913681Y-77036319D01*
X124786319Y-77163681D01*
X124724996Y-77197166D01*
X124698638Y-77200000D01*
X123401362Y-77200000D01*
X123334323Y-77180315D01*
X123313681Y-77163681D01*
X123186319Y-77036319D01*
X123152834Y-76974996D01*
X123150000Y-76948638D01*
X123150000Y-75251362D01*
X123169685Y-75184323D01*
X123186319Y-75163681D01*
X123313681Y-75036319D01*
X123375004Y-75002834D01*
X123401362Y-75000000D01*
X123690402Y-75000000D01*
X123757441Y-75019685D01*
G37*
%TD.AperFunction*%
%TD*%
%TA.AperFunction,Conductor*%
%TO.N,GND*%
G36*
X130515677Y-69269685D02*
G01*
X130536319Y-69286319D01*
X130663180Y-69413180D01*
X130696665Y-69474503D01*
X130699499Y-69500861D01*
X130699499Y-69953260D01*
X130709426Y-70021391D01*
X130760803Y-70126485D01*
X130843514Y-70209196D01*
X130843515Y-70209196D01*
X130843517Y-70209198D01*
X130948607Y-70260573D01*
X130958518Y-70262017D01*
X131016739Y-70270500D01*
X131016740Y-70270500D01*
X131383259Y-70270500D01*
X131383260Y-70270500D01*
X131441481Y-70262017D01*
X131510658Y-70271830D01*
X131547040Y-70297040D01*
X131713681Y-70463681D01*
X131747166Y-70525004D01*
X131750000Y-70551362D01*
X131750000Y-70948638D01*
X131730315Y-71015677D01*
X131713681Y-71036319D01*
X131556819Y-71193181D01*
X131495496Y-71226666D01*
X131469138Y-71229500D01*
X131315683Y-71229500D01*
X131266830Y-71235931D01*
X131266821Y-71235933D01*
X131261574Y-71238381D01*
X131209168Y-71250000D01*
X129290832Y-71250000D01*
X129238426Y-71238381D01*
X129233178Y-71235933D01*
X129233169Y-71235931D01*
X129184317Y-71229500D01*
X129184316Y-71229500D01*
X129030862Y-71229500D01*
X128963823Y-71209815D01*
X128943181Y-71193181D01*
X128786319Y-71036319D01*
X128752834Y-70974996D01*
X128750000Y-70948638D01*
X128750000Y-70551361D01*
X128769685Y-70484322D01*
X128786314Y-70463685D01*
X128952961Y-70297038D01*
X129014282Y-70263555D01*
X129058518Y-70262017D01*
X129116739Y-70270500D01*
X129116740Y-70270500D01*
X129483261Y-70270500D01*
X129505970Y-70267190D01*
X129551393Y-70260573D01*
X129656483Y-70209198D01*
X129739198Y-70126483D01*
X129790573Y-70021393D01*
X129800500Y-69953260D01*
X129800500Y-69500861D01*
X129820185Y-69433823D01*
X129836819Y-69413181D01*
X129963681Y-69286319D01*
X130025004Y-69252834D01*
X130051362Y-69250000D01*
X130448638Y-69250000D01*
X130515677Y-69269685D01*
G37*
%TD.AperFunction*%
%TD*%
%TA.AperFunction,Conductor*%
%TO.N,/CAN/CONN_5V*%
G36*
X127765677Y-63769685D02*
G01*
X127786319Y-63786319D01*
X128213681Y-64213681D01*
X128247166Y-64275004D01*
X128250000Y-64301362D01*
X128250000Y-68698637D01*
X128230315Y-68765676D01*
X128213681Y-68786318D01*
X128036319Y-68963681D01*
X127974996Y-68997166D01*
X127948638Y-69000000D01*
X127551362Y-69000000D01*
X127484323Y-68980315D01*
X127463681Y-68963681D01*
X127286818Y-68786818D01*
X127253333Y-68725495D01*
X127250499Y-68699144D01*
X127250499Y-68657903D01*
X127255521Y-68622971D01*
X127270500Y-68571961D01*
X127270500Y-68428039D01*
X127255521Y-68377027D01*
X127250499Y-68342093D01*
X127250499Y-68290099D01*
X127250133Y-68284520D01*
X127250000Y-68280462D01*
X127250000Y-68250000D01*
X127244591Y-68236944D01*
X127237754Y-68227179D01*
X127193224Y-68131684D01*
X127108316Y-68046776D01*
X127108315Y-68046776D01*
X127012820Y-68002245D01*
X126977544Y-67977544D01*
X126286319Y-67286319D01*
X126252834Y-67224996D01*
X126250000Y-67198638D01*
X126250000Y-64301361D01*
X126269685Y-64234322D01*
X126286314Y-64213685D01*
X126713681Y-63786318D01*
X126775004Y-63752834D01*
X126801362Y-63750000D01*
X127698638Y-63750000D01*
X127765677Y-63769685D01*
G37*
%TD.AperFunction*%
%TD*%
%TA.AperFunction,Conductor*%
%TO.N,GND*%
G36*
X116819894Y-67119685D02*
G01*
X116835235Y-67131321D01*
X116878849Y-67170088D01*
X116912786Y-67200254D01*
X116915405Y-67202724D01*
X117213682Y-67501001D01*
X117247166Y-67562322D01*
X117250000Y-67588680D01*
X117250000Y-68348011D01*
X117230315Y-68415050D01*
X117177511Y-68460805D01*
X117108353Y-68470749D01*
X117057112Y-68451115D01*
X117040118Y-68439760D01*
X117040112Y-68439758D01*
X116957427Y-68423311D01*
X116957708Y-68421898D01*
X116899605Y-68398429D01*
X116888876Y-68388876D01*
X116400000Y-67900000D01*
X113047226Y-67900000D01*
X113039127Y-67899469D01*
X113000000Y-67894318D01*
X112960872Y-67899469D01*
X112952774Y-67900000D01*
X112851362Y-67900000D01*
X112784323Y-67880315D01*
X112763681Y-67863681D01*
X112636319Y-67736319D01*
X112602834Y-67674996D01*
X112600000Y-67648638D01*
X112600000Y-67351362D01*
X112619685Y-67284323D01*
X112636319Y-67263681D01*
X112763681Y-67136319D01*
X112825004Y-67102834D01*
X112851362Y-67100000D01*
X116752855Y-67100000D01*
X116819894Y-67119685D01*
G37*
%TD.AperFunction*%
%TD*%
%TA.AperFunction,Conductor*%
%TO.N,/TRF/VDD_A*%
G36*
X116679517Y-79083931D02*
G01*
X116731496Y-79130622D01*
X116750000Y-79195788D01*
X116750000Y-79698638D01*
X116730315Y-79765677D01*
X116713681Y-79786319D01*
X116536319Y-79963681D01*
X116474996Y-79997166D01*
X116448638Y-80000000D01*
X115749999Y-80000000D01*
X114786319Y-80963681D01*
X114724996Y-80997166D01*
X114698638Y-81000000D01*
X113500000Y-81000000D01*
X113437502Y-81062496D01*
X113402231Y-81087193D01*
X113381685Y-81096774D01*
X113296775Y-81181684D01*
X113287194Y-81202231D01*
X113262494Y-81237504D01*
X112786319Y-81713681D01*
X112724996Y-81747166D01*
X112698638Y-81750000D01*
X111124000Y-81750000D01*
X111056961Y-81730315D01*
X111011206Y-81677511D01*
X111000000Y-81626000D01*
X111000000Y-81374000D01*
X111019685Y-81306961D01*
X111072489Y-81261206D01*
X111124000Y-81250000D01*
X112500000Y-81250000D01*
X113008181Y-80741818D01*
X113069504Y-80708334D01*
X113095862Y-80705500D01*
X113498053Y-80705500D01*
X113506151Y-80706030D01*
X113540099Y-80710500D01*
X113959900Y-80710499D01*
X114009487Y-80703972D01*
X114047569Y-80686213D01*
X114055230Y-80683243D01*
X114073482Y-80677529D01*
X114088878Y-80669121D01*
X114114380Y-80655197D01*
X114117890Y-80653422D01*
X114118316Y-80653224D01*
X114118317Y-80653222D01*
X114119194Y-80652814D01*
X114122491Y-80650767D01*
X114134805Y-80644044D01*
X114181629Y-80608991D01*
X114972652Y-79817965D01*
X115012876Y-79791089D01*
X115052841Y-79774536D01*
X115178282Y-79678282D01*
X115274536Y-79552841D01*
X115291089Y-79512876D01*
X115317963Y-79472654D01*
X115548801Y-79241816D01*
X115610123Y-79208334D01*
X115636481Y-79205500D01*
X116309286Y-79205500D01*
X116351174Y-79201186D01*
X116400663Y-79190882D01*
X116409086Y-79188942D01*
X116490554Y-79147381D01*
X116544165Y-79102578D01*
X116544168Y-79102574D01*
X116546483Y-79100640D01*
X116610547Y-79072755D01*
X116679517Y-79083931D01*
G37*
%TD.AperFunction*%
%TD*%
%TA.AperFunction,Conductor*%
%TO.N,/TRF/BG*%
G36*
X122686400Y-75019685D02*
G01*
X122694846Y-75025623D01*
X122709458Y-75036835D01*
X122709459Y-75036836D01*
X122771670Y-75062604D01*
X122818761Y-75082110D01*
X122858989Y-75108989D01*
X122908252Y-75158252D01*
X122941737Y-75219575D01*
X122943701Y-75246933D01*
X122944500Y-75246933D01*
X122944500Y-76954142D01*
X122945089Y-76965136D01*
X122945090Y-76965152D01*
X122948511Y-76996961D01*
X122948513Y-76996970D01*
X122961213Y-77037528D01*
X122962461Y-77107387D01*
X122925831Y-77166750D01*
X122249444Y-77775500D01*
X122040355Y-77963681D01*
X122035369Y-77968168D01*
X121972370Y-77998384D01*
X121952417Y-78000000D01*
X121615467Y-78000000D01*
X121548428Y-77980315D01*
X121527786Y-77963681D01*
X121519553Y-77955448D01*
X121453230Y-77911132D01*
X121453229Y-77911131D01*
X121394752Y-77899500D01*
X121394748Y-77899500D01*
X121008488Y-77899500D01*
X120624000Y-77899500D01*
X120556961Y-77879815D01*
X120511206Y-77827011D01*
X120500000Y-77775500D01*
X120500000Y-77724500D01*
X120519685Y-77657461D01*
X120572489Y-77611706D01*
X120624000Y-77600500D01*
X121394750Y-77600500D01*
X121394751Y-77600499D01*
X121409568Y-77597552D01*
X121453229Y-77588868D01*
X121453229Y-77588867D01*
X121453231Y-77588867D01*
X121519552Y-77544552D01*
X121563867Y-77478231D01*
X121563867Y-77478229D01*
X121563868Y-77478229D01*
X121575499Y-77419752D01*
X121575500Y-77419748D01*
X121575500Y-77225858D01*
X121595183Y-77158822D01*
X121611809Y-77138190D01*
X122000000Y-76750000D01*
X122000000Y-76749997D01*
X122000919Y-76747780D01*
X122016610Y-76689217D01*
X122017332Y-76687965D01*
X122023448Y-76677372D01*
X122026329Y-76672850D01*
X122049553Y-76639684D01*
X122049553Y-76639681D01*
X122051816Y-76634828D01*
X122058754Y-76618079D01*
X122060583Y-76613052D01*
X122060588Y-76613045D01*
X122067622Y-76573147D01*
X122068779Y-76567929D01*
X122079263Y-76528807D01*
X122075733Y-76488464D01*
X122075500Y-76483108D01*
X122075500Y-75225857D01*
X122095184Y-75158822D01*
X122111809Y-75138190D01*
X122153314Y-75096685D01*
X122193530Y-75069813D01*
X122302841Y-75024536D01*
X122302844Y-75024533D01*
X122309881Y-75020472D01*
X122310769Y-75022011D01*
X122366586Y-75000430D01*
X122376909Y-75000000D01*
X122619361Y-75000000D01*
X122686400Y-75019685D01*
G37*
%TD.AperFunction*%
%TD*%
%TA.AperFunction,Conductor*%
%TO.N,GND*%
G36*
X120780702Y-72534701D02*
G01*
X120790899Y-72544618D01*
X121300000Y-73100000D01*
X123702774Y-73100000D01*
X123710872Y-73100530D01*
X123750000Y-73105682D01*
X123789127Y-73100530D01*
X123797226Y-73100000D01*
X123948638Y-73100000D01*
X124015677Y-73119685D01*
X124036319Y-73136319D01*
X124163681Y-73263681D01*
X124197166Y-73325004D01*
X124200000Y-73351362D01*
X124200000Y-73648638D01*
X124180315Y-73715677D01*
X124163681Y-73736319D01*
X124036319Y-73863681D01*
X123974996Y-73897166D01*
X123948638Y-73900000D01*
X122047226Y-73900000D01*
X122039127Y-73899469D01*
X122000000Y-73894318D01*
X121960872Y-73899469D01*
X121952774Y-73900000D01*
X121151362Y-73900000D01*
X121084323Y-73880315D01*
X121063681Y-73863681D01*
X120611818Y-73411818D01*
X120578333Y-73350495D01*
X120575500Y-73324146D01*
X120575500Y-72909025D01*
X120575499Y-72909021D01*
X120575499Y-72628413D01*
X120595184Y-72561374D01*
X120647988Y-72515619D01*
X120717146Y-72505676D01*
X120780702Y-72534701D01*
G37*
%TD.AperFunction*%
%TD*%
%TA.AperFunction,Conductor*%
%TO.N,/CAN/VREF*%
G36*
X130034498Y-71500133D02*
G01*
X130040088Y-71500498D01*
X130040099Y-71500500D01*
X130459900Y-71500499D01*
X130459902Y-71500499D01*
X130465483Y-71500133D01*
X130469540Y-71500000D01*
X131448638Y-71500000D01*
X131515677Y-71519685D01*
X131536319Y-71536319D01*
X131713680Y-71713680D01*
X131747165Y-71775003D01*
X131749999Y-71801361D01*
X131749999Y-71998310D01*
X131730314Y-72065349D01*
X131713680Y-72085991D01*
X131227390Y-72572282D01*
X131166067Y-72605767D01*
X131121831Y-72607305D01*
X131068261Y-72599500D01*
X131068260Y-72599500D01*
X130701740Y-72599500D01*
X130701739Y-72599500D01*
X130633608Y-72609426D01*
X130528514Y-72660803D01*
X130445803Y-72743514D01*
X130394426Y-72848608D01*
X130384500Y-72916739D01*
X130384500Y-74633260D01*
X130394426Y-74701391D01*
X130394427Y-74701393D01*
X130435944Y-74786319D01*
X130445803Y-74806485D01*
X130528514Y-74889196D01*
X130528515Y-74889196D01*
X130528517Y-74889198D01*
X130633607Y-74940573D01*
X130667673Y-74945536D01*
X130701739Y-74950500D01*
X130701740Y-74950500D01*
X131068261Y-74950500D01*
X131096448Y-74946393D01*
X131136393Y-74940573D01*
X131241483Y-74889198D01*
X131324198Y-74806483D01*
X131375573Y-74701393D01*
X131385500Y-74633260D01*
X131385499Y-73386186D01*
X131405184Y-73319148D01*
X131421813Y-73298511D01*
X131684006Y-73036318D01*
X131728322Y-73012120D01*
X131727212Y-73009439D01*
X131749998Y-73000000D01*
X131750000Y-73000000D01*
X131963680Y-72786319D01*
X132025004Y-72752834D01*
X132051362Y-72750000D01*
X132198638Y-72750000D01*
X132265677Y-72769685D01*
X132286319Y-72786319D01*
X132463681Y-72963681D01*
X132497166Y-73025004D01*
X132500000Y-73051362D01*
X132500000Y-74698638D01*
X132480315Y-74765677D01*
X132463681Y-74786319D01*
X132036319Y-75213681D01*
X131974996Y-75247166D01*
X131948638Y-75250000D01*
X130301362Y-75250000D01*
X130234323Y-75230315D01*
X130213681Y-75213681D01*
X130036319Y-75036319D01*
X130002834Y-74974996D01*
X130000000Y-74948638D01*
X130000000Y-74912042D01*
X130019685Y-74845003D01*
X130036316Y-74824364D01*
X130054198Y-74806483D01*
X130105573Y-74701393D01*
X130115500Y-74633260D01*
X130115500Y-72916740D01*
X130105573Y-72848607D01*
X130054198Y-72743517D01*
X130054196Y-72743515D01*
X130054196Y-72743514D01*
X129971485Y-72660803D01*
X129866391Y-72609426D01*
X129798261Y-72599500D01*
X129798260Y-72599500D01*
X129431740Y-72599500D01*
X129395076Y-72604841D01*
X129357872Y-72610262D01*
X129288695Y-72600447D01*
X129252315Y-72575238D01*
X128786319Y-72109242D01*
X128752834Y-72047919D01*
X128750000Y-72021562D01*
X128750000Y-71998310D01*
X128750000Y-71801359D01*
X128769683Y-71734323D01*
X128786313Y-71713686D01*
X128963681Y-71536319D01*
X129025004Y-71502834D01*
X129051362Y-71500000D01*
X130030441Y-71500000D01*
X130034498Y-71500133D01*
G37*
%TD.AperFunction*%
%TD*%
%TA.AperFunction,Conductor*%
%TO.N,+5V*%
G36*
X125765677Y-66269685D02*
G01*
X125786319Y-66286319D01*
X125963681Y-66463681D01*
X125997166Y-66525004D01*
X126000000Y-66551362D01*
X126000000Y-67448638D01*
X125980315Y-67515677D01*
X125963681Y-67536319D01*
X125786319Y-67713681D01*
X125724996Y-67747166D01*
X125698638Y-67750000D01*
X124999999Y-67750000D01*
X124500000Y-68249999D01*
X124500000Y-68698637D01*
X124480315Y-68765676D01*
X124463681Y-68786318D01*
X124286319Y-68963681D01*
X124224996Y-68997166D01*
X124198638Y-69000000D01*
X123801362Y-69000000D01*
X123734323Y-68980315D01*
X123713681Y-68963681D01*
X123536319Y-68786319D01*
X123502834Y-68724996D01*
X123500000Y-68698638D01*
X123500000Y-67301361D01*
X123519685Y-67234322D01*
X123536314Y-67213685D01*
X123713183Y-67036816D01*
X123774504Y-67003333D01*
X123800854Y-67000499D01*
X123842095Y-67000499D01*
X123877028Y-67005521D01*
X123928039Y-67020500D01*
X124071961Y-67020500D01*
X124122971Y-67005522D01*
X124157906Y-67000499D01*
X124209903Y-67000499D01*
X124215483Y-67000133D01*
X124219540Y-67000000D01*
X124250001Y-67000000D01*
X124263063Y-66994588D01*
X124272825Y-66987752D01*
X124368316Y-66943224D01*
X124453224Y-66858316D01*
X124497756Y-66762817D01*
X124522450Y-66727549D01*
X124963680Y-66286318D01*
X125025004Y-66252834D01*
X125051362Y-66250000D01*
X125698638Y-66250000D01*
X125765677Y-66269685D01*
G37*
%TD.AperFunction*%
%TD*%
%TA.AperFunction,Conductor*%
%TO.N,/TRF/VDD_X*%
G36*
X115537291Y-78584941D02*
G01*
X115546771Y-78588868D01*
X115605247Y-78600499D01*
X115605250Y-78600500D01*
X116376000Y-78600500D01*
X116443039Y-78620185D01*
X116488794Y-78672989D01*
X116500000Y-78724500D01*
X116500000Y-78784533D01*
X116480315Y-78851572D01*
X116463684Y-78872212D01*
X116455449Y-78880446D01*
X116455447Y-78880448D01*
X116455448Y-78880448D01*
X116412386Y-78944893D01*
X116358775Y-78989696D01*
X116309286Y-79000000D01*
X115499999Y-79000000D01*
X114036319Y-80463681D01*
X113974996Y-80497166D01*
X113948638Y-80500000D01*
X112749999Y-80500000D01*
X112286319Y-80963681D01*
X112224996Y-80997166D01*
X112198638Y-81000000D01*
X111079500Y-81000000D01*
X111012461Y-80980315D01*
X110966706Y-80927511D01*
X110955500Y-80876000D01*
X110955500Y-79958301D01*
X110975185Y-79891262D01*
X111027989Y-79845507D01*
X111095682Y-79835362D01*
X111250024Y-79855682D01*
X111250025Y-79855682D01*
X111327311Y-79845507D01*
X111406786Y-79835044D01*
X111552865Y-79774536D01*
X111552869Y-79774532D01*
X111559900Y-79770474D01*
X111560906Y-79772216D01*
X111615956Y-79750931D01*
X111626281Y-79750500D01*
X112290099Y-79750500D01*
X113540099Y-79750500D01*
X113583706Y-79750500D01*
X113627038Y-79758317D01*
X113642517Y-79764091D01*
X113786073Y-79774359D01*
X113882727Y-79753332D01*
X113909084Y-79750499D01*
X113959895Y-79750499D01*
X113959900Y-79750499D01*
X114009487Y-79743972D01*
X114118316Y-79693224D01*
X114203224Y-79608316D01*
X114253972Y-79499487D01*
X114260500Y-79449901D01*
X114260499Y-79290860D01*
X114280183Y-79223822D01*
X114296809Y-79203190D01*
X114888180Y-78611818D01*
X114949504Y-78578334D01*
X114975862Y-78575500D01*
X115489834Y-78575500D01*
X115537291Y-78584941D01*
G37*
%TD.AperFunction*%
%TD*%
%TA.AperFunction,Conductor*%
%TO.N,+3V3*%
G36*
X135693365Y-74703834D02*
G01*
X135738699Y-74756999D01*
X135749500Y-74807614D01*
X135749500Y-77224330D01*
X135729815Y-77291369D01*
X135677011Y-77337124D01*
X135607853Y-77347068D01*
X135544297Y-77318043D01*
X135506523Y-77259265D01*
X135506453Y-77259025D01*
X135503972Y-77250513D01*
X135503969Y-77250506D01*
X135453224Y-77141684D01*
X135368316Y-77056776D01*
X135259487Y-77006028D01*
X135259485Y-77006027D01*
X135259486Y-77006027D01*
X135209902Y-76999500D01*
X135209901Y-76999500D01*
X135157903Y-76999500D01*
X135122969Y-76994477D01*
X135098558Y-76987309D01*
X135071962Y-76979500D01*
X135071961Y-76979500D01*
X134928039Y-76979500D01*
X134928036Y-76979500D01*
X134877022Y-76994478D01*
X134842093Y-76999500D01*
X134790105Y-76999500D01*
X134772201Y-77001856D01*
X134740513Y-77006028D01*
X134740511Y-77006028D01*
X134740510Y-77006029D01*
X134740509Y-77006029D01*
X134631683Y-77056776D01*
X134546776Y-77141683D01*
X134496025Y-77250518D01*
X134494042Y-77257322D01*
X134456379Y-77316172D01*
X134392879Y-77345317D01*
X134323701Y-77335505D01*
X134270811Y-77289850D01*
X134255950Y-77257304D01*
X134253972Y-77250519D01*
X134253972Y-77250513D01*
X134203224Y-77141684D01*
X134118316Y-77056776D01*
X134009487Y-77006028D01*
X134009485Y-77006027D01*
X134009486Y-77006027D01*
X133959902Y-76999500D01*
X133959901Y-76999500D01*
X133916294Y-76999500D01*
X133872961Y-76991682D01*
X133857483Y-76985909D01*
X133713931Y-76975641D01*
X133713924Y-76975641D01*
X133617272Y-76996666D01*
X133590917Y-76999500D01*
X133540105Y-76999500D01*
X133522201Y-77001856D01*
X133490513Y-77006028D01*
X133490511Y-77006028D01*
X133490510Y-77006029D01*
X133490509Y-77006029D01*
X133381683Y-77056776D01*
X133296776Y-77141683D01*
X133246027Y-77250514D01*
X133239500Y-77300097D01*
X133239500Y-77659896D01*
X133245358Y-77704395D01*
X133246028Y-77709487D01*
X133250536Y-77719155D01*
X133262152Y-77771554D01*
X133262152Y-78111089D01*
X133242467Y-78178128D01*
X133238727Y-78183448D01*
X133238118Y-78184503D01*
X133177609Y-78330584D01*
X133177608Y-78330586D01*
X133156971Y-78487345D01*
X133156971Y-78487348D01*
X133177608Y-78644107D01*
X133177609Y-78644109D01*
X133238117Y-78790189D01*
X133330447Y-78910516D01*
X133355641Y-78975685D01*
X133341602Y-79044130D01*
X133326224Y-79064932D01*
X133326665Y-79065271D01*
X133295422Y-79105987D01*
X133238994Y-79147190D01*
X133197047Y-79154500D01*
X132779500Y-79154500D01*
X132712461Y-79134815D01*
X132666706Y-79082011D01*
X132655500Y-79030500D01*
X132655500Y-77866739D01*
X132645573Y-77798608D01*
X132636984Y-77781038D01*
X132594198Y-77693517D01*
X132594196Y-77693515D01*
X132594196Y-77693514D01*
X132511485Y-77610803D01*
X132406391Y-77559426D01*
X132338261Y-77549500D01*
X132338260Y-77549500D01*
X131971740Y-77549500D01*
X131971739Y-77549500D01*
X131903608Y-77559426D01*
X131798514Y-77610803D01*
X131715803Y-77693514D01*
X131664426Y-77798608D01*
X131654500Y-77866739D01*
X131654500Y-79583260D01*
X131664426Y-79651391D01*
X131715803Y-79756485D01*
X131747637Y-79788319D01*
X131781122Y-79849642D01*
X131776138Y-79919334D01*
X131734266Y-79975267D01*
X131668802Y-79999684D01*
X131659956Y-80000000D01*
X130110044Y-80000000D01*
X130043005Y-79980315D01*
X129997250Y-79927511D01*
X129987306Y-79858353D01*
X130016331Y-79794797D01*
X130022363Y-79788319D01*
X130054196Y-79756485D01*
X130054195Y-79756485D01*
X130054198Y-79756483D01*
X130105573Y-79651393D01*
X130115500Y-79583260D01*
X130115500Y-77866740D01*
X130115500Y-77511277D01*
X130135185Y-77444239D01*
X130138938Y-77438900D01*
X130139543Y-77437852D01*
X130139545Y-77437850D01*
X130200053Y-77291771D01*
X130217827Y-77156762D01*
X130220691Y-77135010D01*
X130220691Y-77135007D01*
X130203777Y-77006536D01*
X130200053Y-76978247D01*
X130139545Y-76832168D01*
X130043291Y-76706727D01*
X129917850Y-76610473D01*
X129833386Y-76575487D01*
X129771771Y-76549965D01*
X129771769Y-76549964D01*
X129615010Y-76529327D01*
X129615008Y-76529327D01*
X129458248Y-76549964D01*
X129458246Y-76549965D01*
X129312169Y-76610472D01*
X129186727Y-76706727D01*
X129090472Y-76832169D01*
X129029965Y-76978246D01*
X129029964Y-76978248D01*
X129009327Y-77135007D01*
X129009327Y-77135010D01*
X129029964Y-77291769D01*
X129029965Y-77291771D01*
X129086190Y-77427511D01*
X129090474Y-77437852D01*
X129094537Y-77444890D01*
X129092791Y-77445897D01*
X129114069Y-77500939D01*
X129114499Y-77511254D01*
X129114500Y-77866740D01*
X129114500Y-79583260D01*
X129124426Y-79651391D01*
X129175803Y-79756485D01*
X129207637Y-79788319D01*
X129241122Y-79849642D01*
X129236138Y-79919334D01*
X129194266Y-79975267D01*
X129128802Y-79999684D01*
X129119956Y-80000000D01*
X128840044Y-80000000D01*
X128773005Y-79980315D01*
X128727250Y-79927511D01*
X128717306Y-79858353D01*
X128746331Y-79794797D01*
X128752363Y-79788319D01*
X128784196Y-79756485D01*
X128784196Y-79756484D01*
X128784198Y-79756483D01*
X128835573Y-79651393D01*
X128845500Y-79583260D01*
X128845500Y-77866740D01*
X128835573Y-77798607D01*
X128784198Y-77693517D01*
X128784196Y-77693515D01*
X128784196Y-77693514D01*
X128706819Y-77616137D01*
X128673334Y-77554814D01*
X128670500Y-77528456D01*
X128670500Y-76111920D01*
X128670736Y-76106513D01*
X128671157Y-76101709D01*
X128674264Y-76066193D01*
X128663782Y-76027076D01*
X128662616Y-76021818D01*
X128655588Y-75981955D01*
X128655586Y-75981953D01*
X128653703Y-75971269D01*
X128656580Y-75970761D01*
X128653222Y-75917897D01*
X128687195Y-75856842D01*
X128748782Y-75823847D01*
X128818432Y-75829386D01*
X128861856Y-75857538D01*
X128967362Y-75963044D01*
X128983486Y-75982899D01*
X128988563Y-75990669D01*
X129014508Y-76010862D01*
X129020260Y-76015942D01*
X129022693Y-76018375D01*
X129039435Y-76030328D01*
X129041423Y-76031811D01*
X129059689Y-76046028D01*
X129080875Y-76062518D01*
X129087321Y-76066006D01*
X129093931Y-76069237D01*
X129093934Y-76069239D01*
X129141820Y-76083494D01*
X129144202Y-76084257D01*
X129191512Y-76100500D01*
X129191516Y-76100500D01*
X129198760Y-76101709D01*
X129206046Y-76102617D01*
X129255950Y-76100552D01*
X129258511Y-76100500D01*
X131950789Y-76100500D01*
X131976234Y-76103138D01*
X131985315Y-76105043D01*
X132001005Y-76103087D01*
X132017939Y-76100977D01*
X132025615Y-76100500D01*
X132029035Y-76100500D01*
X132029040Y-76100500D01*
X132038303Y-76098954D01*
X132049278Y-76097123D01*
X132051811Y-76096753D01*
X132101393Y-76090573D01*
X132101399Y-76090569D01*
X132108451Y-76088470D01*
X132115377Y-76086092D01*
X132115381Y-76086092D01*
X132146525Y-76069237D01*
X132159329Y-76062308D01*
X132161590Y-76061143D01*
X132206484Y-76039198D01*
X132206487Y-76039194D01*
X132212453Y-76034935D01*
X132218254Y-76030419D01*
X132218258Y-76030418D01*
X132252101Y-75993653D01*
X132253826Y-75991854D01*
X133279899Y-74965782D01*
X133341220Y-74932299D01*
X133410912Y-74937283D01*
X133419979Y-74941081D01*
X133490513Y-74973972D01*
X133540099Y-74980500D01*
X133959900Y-74980499D01*
X134009487Y-74973972D01*
X134118316Y-74923224D01*
X134154721Y-74886819D01*
X134216044Y-74853334D01*
X134242402Y-74850500D01*
X134474668Y-74850500D01*
X134541707Y-74870185D01*
X134562349Y-74886817D01*
X134619596Y-74944065D01*
X134726827Y-74994068D01*
X134775683Y-75000500D01*
X134775684Y-75000500D01*
X135224317Y-75000500D01*
X135240601Y-74998356D01*
X135273173Y-74994068D01*
X135380404Y-74944065D01*
X135464065Y-74860404D01*
X135513119Y-74755207D01*
X135559290Y-74702770D01*
X135626484Y-74683618D01*
X135693365Y-74703834D01*
G37*
%TD.AperFunction*%
%TA.AperFunction,Conductor*%
G36*
X124528778Y-71242679D02*
G01*
X124548183Y-71258509D01*
X125138181Y-71848507D01*
X125171666Y-71909830D01*
X125174500Y-71936188D01*
X125174500Y-71972940D01*
X125154815Y-72039979D01*
X125121629Y-72074511D01*
X125119597Y-72075933D01*
X125035935Y-72159595D01*
X124985931Y-72266828D01*
X124979500Y-72315683D01*
X124979500Y-72664316D01*
X124985931Y-72713171D01*
X125035935Y-72820404D01*
X125127267Y-72911736D01*
X125124443Y-72914559D01*
X125155183Y-72953042D01*
X125162352Y-73022542D01*
X125130808Y-73084886D01*
X125127101Y-73088098D01*
X125127267Y-73088264D01*
X125035935Y-73179595D01*
X124985931Y-73286828D01*
X124979500Y-73335683D01*
X124979500Y-73684316D01*
X124985931Y-73733171D01*
X125035935Y-73840404D01*
X125119597Y-73924066D01*
X125121626Y-73925487D01*
X125124046Y-73928515D01*
X125127267Y-73931736D01*
X125126907Y-73932095D01*
X125165249Y-73980066D01*
X125174499Y-74027059D01*
X125174499Y-74488081D01*
X125174263Y-74493481D01*
X125173693Y-74499999D01*
X125170735Y-74533807D01*
X125170735Y-74533808D01*
X125181212Y-74572909D01*
X125182383Y-74578189D01*
X125189411Y-74618043D01*
X125191235Y-74623055D01*
X125198197Y-74639861D01*
X125200445Y-74644681D01*
X125200446Y-74644684D01*
X125207319Y-74654500D01*
X125223655Y-74677831D01*
X125226561Y-74682392D01*
X125246806Y-74717455D01*
X125277815Y-74743475D01*
X125281805Y-74747131D01*
X126367406Y-75832733D01*
X126400891Y-75894056D01*
X126402664Y-75936598D01*
X126394318Y-75999997D01*
X126394318Y-76000001D01*
X126414955Y-76156760D01*
X126414956Y-76156762D01*
X126475464Y-76302842D01*
X126568826Y-76424514D01*
X126594020Y-76489683D01*
X126579981Y-76558128D01*
X126568826Y-76575486D01*
X126475464Y-76697157D01*
X126414956Y-76843237D01*
X126414955Y-76843239D01*
X126394318Y-76999998D01*
X126394318Y-77000001D01*
X126414955Y-77156760D01*
X126414956Y-77156762D01*
X126474327Y-77300097D01*
X126475465Y-77302843D01*
X126479528Y-77309881D01*
X126477706Y-77310932D01*
X126498872Y-77365686D01*
X126484832Y-77434130D01*
X126436017Y-77484119D01*
X126375302Y-77500000D01*
X125039982Y-77500000D01*
X124972943Y-77480315D01*
X124927188Y-77427511D01*
X124917244Y-77358353D01*
X124946269Y-77294797D01*
X124952301Y-77288319D01*
X124990114Y-77250506D01*
X125062883Y-77177737D01*
X125070240Y-77169548D01*
X125090327Y-77144620D01*
X125127490Y-77073575D01*
X125147175Y-77006536D01*
X125155500Y-76948638D01*
X125155500Y-76545858D01*
X125154911Y-76534866D01*
X125151488Y-76503035D01*
X125127529Y-76426518D01*
X125094044Y-76365195D01*
X125058991Y-76318371D01*
X124927737Y-76187117D01*
X124919548Y-76179760D01*
X124919545Y-76179757D01*
X124919540Y-76179753D01*
X124894622Y-76159674D01*
X124894623Y-76159674D01*
X124823575Y-76122509D01*
X124756543Y-76102826D01*
X124755089Y-76102617D01*
X124698638Y-76094500D01*
X124698634Y-76094500D01*
X124286482Y-76094500D01*
X124219443Y-76074815D01*
X124198801Y-76058181D01*
X124191818Y-76051198D01*
X124158333Y-75989875D01*
X124155500Y-75963526D01*
X124155500Y-75290837D01*
X124155362Y-75285520D01*
X124154561Y-75270047D01*
X124139471Y-75202710D01*
X124112962Y-75138065D01*
X124083295Y-75087659D01*
X124043762Y-75038243D01*
X123947703Y-74918169D01*
X123947699Y-74918165D01*
X123947697Y-74918162D01*
X123924822Y-74893899D01*
X123924809Y-74893887D01*
X123895034Y-74867046D01*
X123815346Y-74822514D01*
X123815339Y-74822510D01*
X123815332Y-74822508D01*
X123815330Y-74822507D01*
X123748310Y-74802827D01*
X123748303Y-74802826D01*
X123748300Y-74802825D01*
X123704146Y-74796476D01*
X123640592Y-74767451D01*
X123602818Y-74708672D01*
X123598857Y-74657558D01*
X123617981Y-74512299D01*
X123617155Y-74506028D01*
X123603393Y-74401492D01*
X123597343Y-74355537D01*
X123564791Y-74276951D01*
X123557323Y-74207484D01*
X123588598Y-74145004D01*
X123648687Y-74109352D01*
X123679353Y-74105500D01*
X123744549Y-74105500D01*
X123747326Y-74105682D01*
X123750000Y-74105682D01*
X123752674Y-74105682D01*
X123755451Y-74105500D01*
X123954142Y-74105500D01*
X123965134Y-74104911D01*
X123996965Y-74101488D01*
X124073482Y-74077529D01*
X124134805Y-74044044D01*
X124181629Y-74008991D01*
X124312883Y-73877737D01*
X124320240Y-73869548D01*
X124340327Y-73844620D01*
X124377490Y-73773575D01*
X124377490Y-73773574D01*
X124397173Y-73706543D01*
X124397173Y-73706542D01*
X124397175Y-73706536D01*
X124405500Y-73648638D01*
X124405500Y-73345858D01*
X124404911Y-73334866D01*
X124401488Y-73303035D01*
X124377529Y-73226518D01*
X124344044Y-73165195D01*
X124308991Y-73118371D01*
X124177737Y-72987117D01*
X124169548Y-72979760D01*
X124169545Y-72979757D01*
X124169540Y-72979753D01*
X124144622Y-72959674D01*
X124144623Y-72959674D01*
X124073575Y-72922509D01*
X124006543Y-72902826D01*
X124005894Y-72902732D01*
X123948638Y-72894500D01*
X123793868Y-72894500D01*
X123793841Y-72894500D01*
X123793832Y-72894501D01*
X123787184Y-72894717D01*
X123787158Y-72894718D01*
X123787157Y-72894719D01*
X123786462Y-72894764D01*
X123776546Y-72895413D01*
X123752282Y-72894617D01*
X123750009Y-72894318D01*
X123749998Y-72894318D01*
X123747718Y-72894618D01*
X123723455Y-72895413D01*
X123714092Y-72894800D01*
X123712844Y-72894719D01*
X123712840Y-72894718D01*
X123712815Y-72894717D01*
X123706135Y-72894500D01*
X123706132Y-72894500D01*
X121444948Y-72894500D01*
X121377909Y-72874815D01*
X121353541Y-72854290D01*
X121102592Y-72580528D01*
X121072382Y-72520929D01*
X121060240Y-72459883D01*
X121060238Y-72459881D01*
X121060238Y-72459879D01*
X121036821Y-72424834D01*
X121002112Y-72372888D01*
X120980184Y-72358236D01*
X120935380Y-72304625D01*
X120926917Y-72250840D01*
X120925500Y-72250840D01*
X120925500Y-72199499D01*
X120945185Y-72132460D01*
X120997989Y-72086705D01*
X121049495Y-72075499D01*
X121399023Y-72075499D01*
X121399035Y-72075500D01*
X121409025Y-72075500D01*
X122483078Y-72075500D01*
X122488481Y-72075735D01*
X122528807Y-72079264D01*
X122528814Y-72079261D01*
X122539611Y-72078318D01*
X122539973Y-72082458D01*
X122585235Y-72083505D01*
X122585387Y-72082940D01*
X122587712Y-72083563D01*
X122588570Y-72083583D01*
X122590713Y-72084367D01*
X122593236Y-72085043D01*
X122593238Y-72085044D01*
X122671619Y-72095363D01*
X122749999Y-72105682D01*
X122750000Y-72105682D01*
X122750001Y-72105682D01*
X122815643Y-72097040D01*
X122906762Y-72085044D01*
X123052841Y-72024536D01*
X123174515Y-71931171D01*
X123239683Y-71905979D01*
X123308127Y-71920017D01*
X123325478Y-71931167D01*
X123447159Y-72024536D01*
X123593238Y-72085044D01*
X123671619Y-72095363D01*
X123749999Y-72105682D01*
X123750000Y-72105682D01*
X123750001Y-72105682D01*
X123815643Y-72097040D01*
X123906762Y-72085044D01*
X124052841Y-72024536D01*
X124178282Y-71928282D01*
X124274536Y-71802841D01*
X124335044Y-71656762D01*
X124353455Y-71516919D01*
X124355682Y-71500001D01*
X124355682Y-71500000D01*
X124352433Y-71475319D01*
X124337563Y-71362374D01*
X124348328Y-71293340D01*
X124394708Y-71241084D01*
X124461977Y-71222199D01*
X124528778Y-71242679D01*
G37*
%TD.AperFunction*%
%TA.AperFunction,Conductor*%
G36*
X133752018Y-61750633D02*
G01*
X133935281Y-61762644D01*
X134006937Y-61767340D01*
X134014970Y-61768398D01*
X134249158Y-61814980D01*
X134263517Y-61817837D01*
X134271358Y-61819938D01*
X134340361Y-61843361D01*
X134511337Y-61901399D01*
X134518811Y-61904495D01*
X134746107Y-62016585D01*
X134753132Y-62020642D01*
X134963840Y-62161433D01*
X134970268Y-62166365D01*
X135147415Y-62321718D01*
X135160801Y-62333457D01*
X135166540Y-62339196D01*
X135333632Y-62529729D01*
X135338570Y-62536164D01*
X135479357Y-62746867D01*
X135483416Y-62753897D01*
X135586113Y-62962146D01*
X135595498Y-62981175D01*
X135598602Y-62988670D01*
X135615222Y-63037629D01*
X135680061Y-63228641D01*
X135682162Y-63236482D01*
X135731599Y-63485016D01*
X135732659Y-63493065D01*
X135749367Y-63747980D01*
X135749500Y-63752036D01*
X135749500Y-74252385D01*
X135729815Y-74319424D01*
X135677011Y-74365179D01*
X135607853Y-74375123D01*
X135544297Y-74346098D01*
X135513118Y-74304790D01*
X135488681Y-74252385D01*
X135464065Y-74199596D01*
X135380404Y-74115935D01*
X135273173Y-74065932D01*
X135273171Y-74065931D01*
X135273172Y-74065931D01*
X135224317Y-74059500D01*
X135224316Y-74059500D01*
X134775684Y-74059500D01*
X134775683Y-74059500D01*
X134726828Y-74065931D01*
X134619594Y-74115936D01*
X134610710Y-74122157D01*
X134609382Y-74120261D01*
X134561027Y-74146666D01*
X134534669Y-74149500D01*
X134242402Y-74149500D01*
X134175363Y-74129815D01*
X134154721Y-74113181D01*
X134149221Y-74107681D01*
X134115736Y-74046358D01*
X134120720Y-73976666D01*
X134149221Y-73932319D01*
X134174224Y-73907316D01*
X134203224Y-73878316D01*
X134253972Y-73769487D01*
X134260500Y-73719901D01*
X134260499Y-73360100D01*
X134253972Y-73310513D01*
X134253970Y-73310509D01*
X134252733Y-73301108D01*
X134253372Y-73301023D01*
X134250500Y-73280900D01*
X134250500Y-72896257D01*
X134270185Y-72829218D01*
X134273924Y-72823900D01*
X134274534Y-72822843D01*
X134274536Y-72822841D01*
X134335044Y-72676762D01*
X134351361Y-72552825D01*
X134355682Y-72520001D01*
X134355682Y-72519998D01*
X134335044Y-72363239D01*
X134335044Y-72363238D01*
X134274536Y-72217159D01*
X134178282Y-72091718D01*
X134052841Y-71995464D01*
X134001785Y-71974316D01*
X133906762Y-71934956D01*
X133906760Y-71934955D01*
X133750001Y-71914318D01*
X133749999Y-71914318D01*
X133593239Y-71934955D01*
X133593237Y-71934956D01*
X133447160Y-71995463D01*
X133321718Y-72091718D01*
X133225463Y-72217160D01*
X133164956Y-72363237D01*
X133164955Y-72363239D01*
X133144318Y-72519998D01*
X133144318Y-72520001D01*
X133164955Y-72676760D01*
X133164956Y-72676762D01*
X133225465Y-72822843D01*
X133229526Y-72829877D01*
X133227783Y-72830883D01*
X133249068Y-72885930D01*
X133249499Y-72896255D01*
X133249499Y-73280903D01*
X133246627Y-73301027D01*
X133247266Y-73301112D01*
X133246028Y-73310512D01*
X133246028Y-73310513D01*
X133242714Y-73335684D01*
X133239500Y-73360099D01*
X133239500Y-73719894D01*
X133239501Y-73719900D01*
X133246028Y-73769487D01*
X133246029Y-73769489D01*
X133246029Y-73769490D01*
X133286039Y-73855290D01*
X133296776Y-73878316D01*
X133325776Y-73907316D01*
X133350779Y-73932319D01*
X133384263Y-73993643D01*
X133379278Y-74063335D01*
X133350778Y-74107681D01*
X133350025Y-74108434D01*
X133288702Y-74141919D01*
X133274811Y-74143124D01*
X133274881Y-74143686D01*
X133232061Y-74149023D01*
X133224385Y-74149500D01*
X133220960Y-74149500D01*
X133215754Y-74150368D01*
X133200700Y-74152879D01*
X133198171Y-74153247D01*
X133148608Y-74159426D01*
X133141570Y-74161521D01*
X133134617Y-74163908D01*
X133090687Y-74187682D01*
X133088411Y-74188853D01*
X133043513Y-74210803D01*
X133037566Y-74215048D01*
X133031739Y-74219584D01*
X132997913Y-74256329D01*
X132996139Y-74258177D01*
X132950335Y-74303981D01*
X132917180Y-74337136D01*
X132855859Y-74370621D01*
X132786167Y-74365637D01*
X132730233Y-74323766D01*
X132705816Y-74258302D01*
X132705500Y-74249455D01*
X132705500Y-73045857D01*
X132705159Y-73039500D01*
X132704911Y-73034866D01*
X132701488Y-73003035D01*
X132701486Y-73003031D01*
X132701486Y-73003026D01*
X132677531Y-72926525D01*
X132677529Y-72926518D01*
X132660089Y-72894581D01*
X132646217Y-72853029D01*
X132645573Y-72848607D01*
X132594198Y-72743517D01*
X132594196Y-72743515D01*
X132594196Y-72743514D01*
X132511485Y-72660803D01*
X132406388Y-72609424D01*
X132397192Y-72606583D01*
X132397426Y-72605823D01*
X132370717Y-72597169D01*
X132357719Y-72590370D01*
X132307439Y-72541855D01*
X132291371Y-72473858D01*
X132314615Y-72407968D01*
X132327500Y-72392825D01*
X132413509Y-72306816D01*
X132474831Y-72273334D01*
X132501188Y-72270500D01*
X132684317Y-72270500D01*
X132712208Y-72266828D01*
X132733173Y-72264068D01*
X132840404Y-72214065D01*
X132924065Y-72130404D01*
X132974068Y-72023173D01*
X132980500Y-71974316D01*
X132980500Y-71525684D01*
X132974068Y-71476827D01*
X132924065Y-71369596D01*
X132871818Y-71317349D01*
X132838333Y-71256026D01*
X132835499Y-71229668D01*
X132835499Y-71108316D01*
X132835499Y-70987400D01*
X132855184Y-70920364D01*
X132871818Y-70899722D01*
X132904001Y-70867539D01*
X132953224Y-70818316D01*
X133003972Y-70709487D01*
X133010500Y-70659901D01*
X133010499Y-70631542D01*
X133030181Y-70564506D01*
X133082984Y-70518749D01*
X133152142Y-70508804D01*
X133189520Y-70521740D01*
X133189651Y-70521426D01*
X133194920Y-70523608D01*
X133196499Y-70524155D01*
X133197156Y-70524534D01*
X133197159Y-70524536D01*
X133343238Y-70585044D01*
X133420259Y-70595184D01*
X133499999Y-70605682D01*
X133500000Y-70605682D01*
X133500001Y-70605682D01*
X133552253Y-70598802D01*
X133656762Y-70585044D01*
X133802841Y-70524536D01*
X133928282Y-70428282D01*
X134024536Y-70302841D01*
X134085044Y-70156762D01*
X134105682Y-70000000D01*
X134093121Y-69904593D01*
X134085044Y-69843239D01*
X134085044Y-69843238D01*
X134024536Y-69697159D01*
X133928282Y-69571718D01*
X133802841Y-69475464D01*
X133798474Y-69473655D01*
X133656758Y-69414954D01*
X133648911Y-69412852D01*
X133649430Y-69410911D01*
X133595443Y-69387023D01*
X133587852Y-69380038D01*
X133421385Y-69213571D01*
X133404750Y-69192928D01*
X133402145Y-69188874D01*
X133402142Y-69188871D01*
X133389007Y-69177490D01*
X133362932Y-69154896D01*
X133359700Y-69151886D01*
X133348596Y-69140782D01*
X133348588Y-69140775D01*
X133336013Y-69131362D01*
X133332583Y-69128598D01*
X133293373Y-69094623D01*
X133293371Y-69094622D01*
X133293367Y-69094619D01*
X133288983Y-69092617D01*
X133266194Y-69079096D01*
X133262331Y-69076204D01*
X133262329Y-69076203D01*
X133213716Y-69058071D01*
X133209642Y-69056383D01*
X133165220Y-69036097D01*
X133162455Y-69034834D01*
X133157682Y-69034148D01*
X133132000Y-69027593D01*
X133127485Y-69025909D01*
X133075740Y-69022207D01*
X133071343Y-69021734D01*
X133055799Y-69019500D01*
X133040094Y-69019500D01*
X133035671Y-69019342D01*
X133018083Y-69018084D01*
X132983929Y-69015641D01*
X132983925Y-69015641D01*
X132979215Y-69016666D01*
X132952857Y-69019500D01*
X132464201Y-69019500D01*
X132357543Y-69034835D01*
X132357542Y-69034835D01*
X132348767Y-69036097D01*
X132348741Y-69035918D01*
X132323829Y-69039500D01*
X132290106Y-69039500D01*
X132277317Y-69041183D01*
X132240513Y-69046028D01*
X132240511Y-69046028D01*
X132240510Y-69046029D01*
X132240509Y-69046029D01*
X132131683Y-69096776D01*
X132046776Y-69181683D01*
X131996027Y-69290514D01*
X131989500Y-69340098D01*
X131989500Y-69437312D01*
X131969815Y-69504351D01*
X131917011Y-69550106D01*
X131847853Y-69560050D01*
X131784297Y-69531025D01*
X131777819Y-69524993D01*
X131736819Y-69483993D01*
X131703334Y-69422670D01*
X131700500Y-69396312D01*
X131700500Y-68861739D01*
X131692922Y-68809727D01*
X131702735Y-68740550D01*
X131748391Y-68687660D01*
X131757661Y-68682231D01*
X131775652Y-68672723D01*
X131777566Y-68671756D01*
X131830170Y-68646425D01*
X131830171Y-68646423D01*
X131830173Y-68646423D01*
X131837223Y-68641616D01*
X131844065Y-68636567D01*
X131849132Y-68631500D01*
X131885350Y-68595280D01*
X131886949Y-68593740D01*
X131929722Y-68554055D01*
X131929724Y-68554050D01*
X131935515Y-68546790D01*
X131936171Y-68547313D01*
X131945560Y-68535070D01*
X133548210Y-66932420D01*
X133553378Y-66927801D01*
X133583970Y-66903407D01*
X133616840Y-66855194D01*
X133618163Y-66853331D01*
X133625613Y-66843237D01*
X133652792Y-66806411D01*
X133652793Y-66806405D01*
X133656786Y-66798853D01*
X133660468Y-66791205D01*
X133660472Y-66791201D01*
X133677683Y-66735398D01*
X133678377Y-66733290D01*
X133697646Y-66678228D01*
X133697646Y-66678221D01*
X133699228Y-66669864D01*
X133700500Y-66661427D01*
X133700500Y-66603106D01*
X133700542Y-66600822D01*
X133702724Y-66542518D01*
X133702724Y-66542517D01*
X133701684Y-66533284D01*
X133702513Y-66533190D01*
X133700500Y-66517892D01*
X133700500Y-66180099D01*
X133720185Y-66113060D01*
X133772989Y-66067305D01*
X133783525Y-66063065D01*
X133812882Y-66052793D01*
X133922150Y-65972150D01*
X134002793Y-65862882D01*
X134042467Y-65749500D01*
X134047646Y-65734701D01*
X134047646Y-65734699D01*
X134050500Y-65704269D01*
X134050500Y-64295730D01*
X134047646Y-64265300D01*
X134047646Y-64265298D01*
X134003600Y-64139424D01*
X134002793Y-64137118D01*
X133922150Y-64027850D01*
X133812882Y-63947207D01*
X133812880Y-63947206D01*
X133684700Y-63902353D01*
X133654270Y-63899500D01*
X133654266Y-63899500D01*
X132845734Y-63899500D01*
X132845730Y-63899500D01*
X132815300Y-63902353D01*
X132815298Y-63902353D01*
X132687119Y-63947206D01*
X132687117Y-63947207D01*
X132577850Y-64027850D01*
X132497207Y-64137117D01*
X132497206Y-64137119D01*
X132452353Y-64265298D01*
X132452353Y-64265300D01*
X132449499Y-64295730D01*
X132449499Y-65704269D01*
X132452353Y-65734699D01*
X132452353Y-65734701D01*
X132494809Y-65856030D01*
X132497207Y-65862882D01*
X132577850Y-65972150D01*
X132687118Y-66052793D01*
X132716456Y-66063059D01*
X132773230Y-66103779D01*
X132798978Y-66168731D01*
X132799500Y-66180099D01*
X132799500Y-66355562D01*
X132779815Y-66422601D01*
X132763181Y-66443243D01*
X131912181Y-67294243D01*
X131850858Y-67327728D01*
X131781166Y-67322744D01*
X131725233Y-67280872D01*
X131700816Y-67215408D01*
X131700500Y-67206562D01*
X131700500Y-66586739D01*
X131694057Y-66542517D01*
X131690573Y-66518607D01*
X131639198Y-66413517D01*
X131639196Y-66413515D01*
X131639196Y-66413514D01*
X131561819Y-66336137D01*
X131528334Y-66274814D01*
X131525500Y-66248457D01*
X131525500Y-66197468D01*
X131525499Y-66139347D01*
X131545183Y-66072311D01*
X131595710Y-66027624D01*
X131599517Y-66025790D01*
X131599522Y-66025789D01*
X131752262Y-65929816D01*
X131879816Y-65802262D01*
X131975789Y-65649522D01*
X132035368Y-65479255D01*
X132035953Y-65474068D01*
X132048036Y-65366819D01*
X132050500Y-65344954D01*
X132050500Y-64655046D01*
X132043529Y-64593173D01*
X132035369Y-64520750D01*
X132035368Y-64520745D01*
X132011639Y-64452931D01*
X131975789Y-64350478D01*
X131879816Y-64197738D01*
X131752262Y-64070184D01*
X131732435Y-64057726D01*
X131599523Y-63974211D01*
X131429254Y-63914631D01*
X131429249Y-63914630D01*
X131250004Y-63894435D01*
X131249996Y-63894435D01*
X131070750Y-63914630D01*
X131070745Y-63914631D01*
X130900476Y-63974211D01*
X130747737Y-64070184D01*
X130620184Y-64197737D01*
X130524211Y-64350476D01*
X130464631Y-64520745D01*
X130464630Y-64520750D01*
X130449500Y-64655039D01*
X130449500Y-65344960D01*
X130464630Y-65479249D01*
X130464631Y-65479254D01*
X130524211Y-65649523D01*
X130620184Y-65802262D01*
X130747740Y-65929818D01*
X130816470Y-65973003D01*
X130862762Y-66025337D01*
X130874499Y-66077997D01*
X130874499Y-66248457D01*
X130854814Y-66315496D01*
X130838180Y-66336138D01*
X130812681Y-66361637D01*
X130751358Y-66395122D01*
X130681666Y-66390138D01*
X130637319Y-66361637D01*
X130606485Y-66330803D01*
X130501391Y-66279426D01*
X130433261Y-66269500D01*
X130433260Y-66269500D01*
X130066740Y-66269500D01*
X130066739Y-66269500D01*
X129998608Y-66279426D01*
X129893514Y-66330803D01*
X129862679Y-66361638D01*
X129801356Y-66395123D01*
X129731664Y-66390137D01*
X129687318Y-66361637D01*
X129661817Y-66336136D01*
X129628333Y-66274812D01*
X129625500Y-66248456D01*
X129625500Y-66077997D01*
X129645185Y-66010958D01*
X129683525Y-65973005D01*
X129752262Y-65929816D01*
X129879816Y-65802262D01*
X129975789Y-65649522D01*
X130035368Y-65479255D01*
X130035953Y-65474068D01*
X130048036Y-65366819D01*
X130050500Y-65344954D01*
X130050500Y-64655046D01*
X130043529Y-64593173D01*
X130035369Y-64520750D01*
X130035368Y-64520745D01*
X130011639Y-64452931D01*
X129975789Y-64350478D01*
X129879816Y-64197738D01*
X129752262Y-64070184D01*
X129732435Y-64057726D01*
X129599523Y-63974211D01*
X129429254Y-63914631D01*
X129429249Y-63914630D01*
X129250004Y-63894435D01*
X129249996Y-63894435D01*
X129070750Y-63914630D01*
X129070745Y-63914631D01*
X128900476Y-63974211D01*
X128747739Y-64070183D01*
X128620195Y-64197727D01*
X128558872Y-64231211D01*
X128489180Y-64226227D01*
X128433247Y-64184355D01*
X128423683Y-64169473D01*
X128394045Y-64115197D01*
X128394041Y-64115191D01*
X128359001Y-64068384D01*
X128358998Y-64068381D01*
X128358991Y-64068371D01*
X127927737Y-63637117D01*
X127919548Y-63629760D01*
X127919545Y-63629757D01*
X127919540Y-63629753D01*
X127894622Y-63609674D01*
X127894623Y-63609674D01*
X127823575Y-63572509D01*
X127756543Y-63552826D01*
X127755894Y-63552732D01*
X127698638Y-63544500D01*
X126795858Y-63544500D01*
X126784863Y-63545089D01*
X126784847Y-63545090D01*
X126753038Y-63548511D01*
X126753032Y-63548512D01*
X126676524Y-63572468D01*
X126615196Y-63605954D01*
X126568372Y-63641007D01*
X126568360Y-63641017D01*
X126137116Y-64072262D01*
X126137110Y-64072268D01*
X126129756Y-64080453D01*
X126129723Y-64080493D01*
X126109670Y-64105379D01*
X126109668Y-64105382D01*
X126072512Y-64176419D01*
X126072508Y-64176428D01*
X126052826Y-64243455D01*
X126052825Y-64243463D01*
X126045292Y-64295858D01*
X126044500Y-64301364D01*
X126044500Y-65983270D01*
X126024815Y-66050309D01*
X125972011Y-66096064D01*
X125902853Y-66106008D01*
X125863026Y-66093146D01*
X125823573Y-66072509D01*
X125756543Y-66052826D01*
X125748642Y-66051690D01*
X125698638Y-66044500D01*
X125045858Y-66044500D01*
X125034863Y-66045089D01*
X125034847Y-66045090D01*
X125003036Y-66048511D01*
X124926524Y-66072468D01*
X124926523Y-66072468D01*
X124865195Y-66105954D01*
X124818378Y-66141000D01*
X124818371Y-66141006D01*
X124712180Y-66247197D01*
X124650857Y-66280681D01*
X124581165Y-66275697D01*
X124525232Y-66233825D01*
X124500815Y-66168360D01*
X124500499Y-66159515D01*
X124500499Y-66063057D01*
X124500499Y-65876253D01*
X124520184Y-65809218D01*
X124523928Y-65803892D01*
X124524532Y-65802845D01*
X124524536Y-65802841D01*
X124585044Y-65656762D01*
X124605682Y-65500000D01*
X124585044Y-65343238D01*
X124524536Y-65197159D01*
X124428282Y-65071718D01*
X124302841Y-64975464D01*
X124156762Y-64914956D01*
X124156760Y-64914955D01*
X124000001Y-64894318D01*
X123999999Y-64894318D01*
X123843239Y-64914955D01*
X123843237Y-64914956D01*
X123697160Y-64975463D01*
X123571718Y-65071718D01*
X123475463Y-65197160D01*
X123452163Y-65253412D01*
X123408322Y-65307815D01*
X123342027Y-65329880D01*
X123274328Y-65312600D01*
X123226718Y-65261463D01*
X123218179Y-65233105D01*
X123216935Y-65233412D01*
X123215139Y-65226125D01*
X123154817Y-65067068D01*
X123120476Y-65017318D01*
X123058183Y-64927071D01*
X122930852Y-64814266D01*
X122930849Y-64814263D01*
X122780226Y-64735210D01*
X122615056Y-64694500D01*
X122444944Y-64694500D01*
X122279773Y-64735210D01*
X122129150Y-64814263D01*
X122001815Y-64927072D01*
X121997045Y-64933983D01*
X121942759Y-64977970D01*
X121873310Y-64985625D01*
X121810747Y-64954518D01*
X121792951Y-64933979D01*
X121788183Y-64927071D01*
X121704363Y-64852813D01*
X121667238Y-64793626D01*
X121668006Y-64723761D01*
X121704363Y-64667186D01*
X121788183Y-64592929D01*
X121884818Y-64452930D01*
X121945140Y-64293872D01*
X121965645Y-64125000D01*
X121945140Y-63956128D01*
X121884818Y-63797070D01*
X121875152Y-63783067D01*
X121850476Y-63747318D01*
X121788183Y-63657071D01*
X121691954Y-63571820D01*
X121660849Y-63544263D01*
X121510226Y-63465210D01*
X121345056Y-63424500D01*
X121174944Y-63424500D01*
X121009773Y-63465210D01*
X120859150Y-63544263D01*
X120731815Y-63657072D01*
X120727045Y-63663983D01*
X120672759Y-63707970D01*
X120603310Y-63715625D01*
X120540747Y-63684518D01*
X120522951Y-63663979D01*
X120518183Y-63657071D01*
X120500052Y-63641008D01*
X120390849Y-63544263D01*
X120240226Y-63465210D01*
X120075056Y-63424500D01*
X119904944Y-63424500D01*
X119739773Y-63465210D01*
X119589150Y-63544263D01*
X119461815Y-63657072D01*
X119457045Y-63663983D01*
X119402759Y-63707970D01*
X119333310Y-63715625D01*
X119270747Y-63684518D01*
X119252951Y-63663979D01*
X119248183Y-63657071D01*
X119230052Y-63641008D01*
X119120849Y-63544263D01*
X118970226Y-63465210D01*
X118805056Y-63424500D01*
X118634944Y-63424500D01*
X118469773Y-63465210D01*
X118319149Y-63544264D01*
X118319147Y-63544266D01*
X118311223Y-63551286D01*
X118247989Y-63581005D01*
X118178726Y-63571820D01*
X118125897Y-63527358D01*
X118094553Y-63480448D01*
X118028230Y-63436132D01*
X118028229Y-63436131D01*
X117969752Y-63424500D01*
X117969748Y-63424500D01*
X116930252Y-63424500D01*
X116930247Y-63424500D01*
X116871770Y-63436131D01*
X116871769Y-63436132D01*
X116805447Y-63480447D01*
X116761132Y-63546769D01*
X116761131Y-63546770D01*
X116749500Y-63605247D01*
X116749500Y-64505500D01*
X116729815Y-64572539D01*
X116677011Y-64618294D01*
X116625500Y-64629500D01*
X115742402Y-64629500D01*
X115675363Y-64609815D01*
X115654721Y-64593181D01*
X115649221Y-64587681D01*
X115615736Y-64526358D01*
X115620720Y-64456666D01*
X115649221Y-64412319D01*
X115649689Y-64411851D01*
X115703224Y-64358316D01*
X115753972Y-64249487D01*
X115760500Y-64199901D01*
X115760499Y-63840100D01*
X115753972Y-63790513D01*
X115753970Y-63790509D01*
X115752733Y-63781108D01*
X115753372Y-63781023D01*
X115750500Y-63760900D01*
X115750500Y-63126257D01*
X115770185Y-63059218D01*
X115773924Y-63053900D01*
X115774532Y-63052845D01*
X115774536Y-63052841D01*
X115835044Y-62906762D01*
X115855682Y-62750000D01*
X115835044Y-62593238D01*
X115774536Y-62447159D01*
X115678282Y-62321718D01*
X115552841Y-62225464D01*
X115406762Y-62164956D01*
X115406760Y-62164955D01*
X115250001Y-62144318D01*
X115249999Y-62144318D01*
X115093239Y-62164955D01*
X115093237Y-62164956D01*
X114947160Y-62225463D01*
X114821718Y-62321718D01*
X114725463Y-62447160D01*
X114664956Y-62593237D01*
X114664955Y-62593239D01*
X114644318Y-62749998D01*
X114644318Y-62750001D01*
X114664955Y-62906760D01*
X114664957Y-62906765D01*
X114725461Y-63052836D01*
X114729526Y-63059876D01*
X114727785Y-63060880D01*
X114749070Y-63115950D01*
X114749499Y-63126257D01*
X114749500Y-63760898D01*
X114746627Y-63781023D01*
X114747266Y-63781108D01*
X114739500Y-63840098D01*
X114739500Y-64199894D01*
X114739501Y-64199900D01*
X114746028Y-64249487D01*
X114746029Y-64249489D01*
X114746029Y-64249490D01*
X114793120Y-64350476D01*
X114796776Y-64358316D01*
X114850781Y-64412321D01*
X114884264Y-64473640D01*
X114879280Y-64543332D01*
X114850787Y-64587672D01*
X114845287Y-64593173D01*
X114783967Y-64626664D01*
X114757598Y-64629500D01*
X114465331Y-64629500D01*
X114398292Y-64609815D01*
X114385465Y-64599479D01*
X114380405Y-64595936D01*
X114380404Y-64595935D01*
X114273173Y-64545932D01*
X114273171Y-64545931D01*
X114273172Y-64545931D01*
X114224317Y-64539500D01*
X114224316Y-64539500D01*
X113775684Y-64539500D01*
X113775683Y-64539500D01*
X113726828Y-64545931D01*
X113619594Y-64595936D01*
X113610710Y-64602157D01*
X113609382Y-64600261D01*
X113561027Y-64626666D01*
X113534669Y-64629500D01*
X111319206Y-64629500D01*
X111293761Y-64626861D01*
X111284685Y-64624958D01*
X111284682Y-64624958D01*
X111252068Y-64629023D01*
X111244392Y-64629500D01*
X111240960Y-64629500D01*
X111220716Y-64632877D01*
X111218193Y-64633245D01*
X111168606Y-64639426D01*
X111161575Y-64641519D01*
X111154618Y-64643907D01*
X111110687Y-64667682D01*
X111108411Y-64668853D01*
X111063513Y-64690803D01*
X111057566Y-64695048D01*
X111051739Y-64699584D01*
X111017913Y-64736329D01*
X111016139Y-64738177D01*
X110641137Y-65113181D01*
X110579814Y-65146666D01*
X110553456Y-65149500D01*
X109830247Y-65149500D01*
X109771770Y-65161131D01*
X109771769Y-65161132D01*
X109705447Y-65205447D01*
X109661132Y-65271769D01*
X109661131Y-65271770D01*
X109649500Y-65330247D01*
X109649500Y-66919752D01*
X109661131Y-66978229D01*
X109661132Y-66978230D01*
X109705448Y-67044553D01*
X109713181Y-67052286D01*
X109746666Y-67113609D01*
X109749500Y-67139967D01*
X109749500Y-67560052D01*
X109729815Y-67627091D01*
X109677011Y-67672846D01*
X109607853Y-67682790D01*
X109544297Y-67653765D01*
X109534606Y-67644398D01*
X109534060Y-67643810D01*
X109526792Y-67638014D01*
X109527312Y-67637361D01*
X109515067Y-67627964D01*
X109181079Y-67293976D01*
X109147594Y-67232653D01*
X109152578Y-67162961D01*
X109194450Y-67107028D01*
X109221313Y-67091732D01*
X109228228Y-67088867D01*
X109228231Y-67088867D01*
X109294552Y-67044552D01*
X109338867Y-66978231D01*
X109338867Y-66978229D01*
X109338868Y-66978229D01*
X109347978Y-66932429D01*
X109350500Y-66919748D01*
X109350500Y-65330252D01*
X109350500Y-65330249D01*
X109350499Y-65330247D01*
X109338868Y-65271770D01*
X109338867Y-65271769D01*
X109294552Y-65205447D01*
X109228230Y-65161132D01*
X109228229Y-65161131D01*
X109169752Y-65149500D01*
X109169748Y-65149500D01*
X108130252Y-65149500D01*
X108124500Y-65149500D01*
X108057461Y-65129815D01*
X108011706Y-65077011D01*
X108000500Y-65025500D01*
X108000500Y-63752036D01*
X108000633Y-63747980D01*
X108003451Y-63704989D01*
X108419844Y-63704989D01*
X108429577Y-63884501D01*
X108429578Y-63884506D01*
X108477670Y-64057718D01*
X108477674Y-64057726D01*
X108561881Y-64216557D01*
X108675635Y-64350478D01*
X108678265Y-64353574D01*
X108821382Y-64462369D01*
X108984541Y-64537854D01*
X109160113Y-64576500D01*
X109160116Y-64576500D01*
X109294810Y-64576500D01*
X109294816Y-64576500D01*
X109428721Y-64561937D01*
X109599085Y-64504535D01*
X109753126Y-64411851D01*
X109883642Y-64288220D01*
X109984529Y-64139423D01*
X110051070Y-63972416D01*
X110053741Y-63956128D01*
X110080155Y-63795010D01*
X110070422Y-63615498D01*
X110070421Y-63615493D01*
X110022329Y-63442281D01*
X110022325Y-63442273D01*
X109938118Y-63283442D01*
X109821735Y-63146426D01*
X109795203Y-63126257D01*
X109678618Y-63037631D01*
X109678616Y-63037630D01*
X109678615Y-63037629D01*
X109515457Y-62962145D01*
X109339887Y-62923500D01*
X109205184Y-62923500D01*
X109205182Y-62923500D01*
X109071278Y-62938063D01*
X108999806Y-62962145D01*
X108900915Y-62995465D01*
X108900913Y-62995465D01*
X108900913Y-62995466D01*
X108746876Y-63088147D01*
X108616356Y-63211781D01*
X108515471Y-63360575D01*
X108515470Y-63360576D01*
X108448929Y-63527583D01*
X108448928Y-63527587D01*
X108419845Y-63704986D01*
X108419844Y-63704989D01*
X108003451Y-63704989D01*
X108012136Y-63572468D01*
X108017340Y-63493060D01*
X108018397Y-63485031D01*
X108067837Y-63236479D01*
X108069938Y-63228641D01*
X108097846Y-63146426D01*
X108151401Y-62988657D01*
X108154493Y-62981193D01*
X108266588Y-62753886D01*
X108270642Y-62746867D01*
X108411438Y-62536151D01*
X108416359Y-62529738D01*
X108583466Y-62339188D01*
X108589188Y-62333466D01*
X108779738Y-62166359D01*
X108786151Y-62161438D01*
X108996872Y-62020639D01*
X109003886Y-62016588D01*
X109231193Y-61904493D01*
X109238657Y-61901401D01*
X109478639Y-61819938D01*
X109486479Y-61817837D01*
X109735031Y-61768397D01*
X109743060Y-61767340D01*
X109825783Y-61761918D01*
X109997982Y-61750633D01*
X110002038Y-61750500D01*
X110065892Y-61750500D01*
X133684108Y-61750500D01*
X133747962Y-61750500D01*
X133752018Y-61750633D01*
G37*
%TD.AperFunction*%
%TA.AperFunction,Conductor*%
G36*
X114353460Y-70120185D02*
G01*
X114374102Y-70136819D01*
X114700325Y-70463041D01*
X114716449Y-70482896D01*
X114721528Y-70490669D01*
X114747474Y-70510863D01*
X114753237Y-70515953D01*
X114755659Y-70518375D01*
X114771783Y-70529887D01*
X114772356Y-70530296D01*
X114774380Y-70531805D01*
X114813839Y-70562517D01*
X114813840Y-70562517D01*
X114813841Y-70562518D01*
X114820307Y-70566017D01*
X114826898Y-70569240D01*
X114874787Y-70583497D01*
X114877207Y-70584272D01*
X114924477Y-70600500D01*
X114924482Y-70600500D01*
X114931733Y-70601710D01*
X114939011Y-70602617D01*
X114988927Y-70600552D01*
X114991486Y-70600500D01*
X116591539Y-70600500D01*
X116591540Y-70600500D01*
X116677881Y-70586092D01*
X116677884Y-70586090D01*
X116687600Y-70582755D01*
X116688608Y-70585693D01*
X116728856Y-70575499D01*
X116950500Y-70575499D01*
X117017539Y-70595184D01*
X117063294Y-70647988D01*
X117074500Y-70699499D01*
X117074500Y-70800500D01*
X117054815Y-70867539D01*
X117002011Y-70913294D01*
X116950500Y-70924500D01*
X115957509Y-70924500D01*
X115952107Y-70924264D01*
X115944722Y-70923618D01*
X115911788Y-70920736D01*
X115911787Y-70920736D01*
X115872695Y-70931211D01*
X115867415Y-70932382D01*
X115827550Y-70939412D01*
X115822558Y-70941229D01*
X115805713Y-70948206D01*
X115800909Y-70950446D01*
X115767759Y-70973658D01*
X115763198Y-70976564D01*
X115728144Y-70996804D01*
X115728141Y-70996806D01*
X115728139Y-70996807D01*
X115728138Y-70996809D01*
X115702119Y-71027815D01*
X115698465Y-71031803D01*
X115200996Y-71529272D01*
X115139673Y-71562757D01*
X115069982Y-71557773D01*
X115014048Y-71515902D01*
X115000933Y-71493996D01*
X114972067Y-71432093D01*
X114953224Y-71391684D01*
X114868316Y-71306776D01*
X114759487Y-71256028D01*
X114759485Y-71256027D01*
X114759486Y-71256027D01*
X114709902Y-71249500D01*
X114709901Y-71249500D01*
X114676174Y-71249500D01*
X114651260Y-71245918D01*
X114651235Y-71246097D01*
X114616368Y-71241084D01*
X114535799Y-71229500D01*
X114535797Y-71229500D01*
X113716532Y-71229500D01*
X113669080Y-71220061D01*
X113656765Y-71214960D01*
X113656760Y-71214958D01*
X113500001Y-71194321D01*
X113499999Y-71194321D01*
X113343239Y-71214958D01*
X113343237Y-71214959D01*
X113197157Y-71275467D01*
X113079648Y-71365636D01*
X113014479Y-71390830D01*
X112946034Y-71376792D01*
X112916481Y-71354941D01*
X112899221Y-71337681D01*
X112865736Y-71276358D01*
X112870720Y-71206666D01*
X112899221Y-71162319D01*
X112917222Y-71144318D01*
X112953224Y-71108316D01*
X113003972Y-70999487D01*
X113010500Y-70949901D01*
X113010499Y-70590100D01*
X113009971Y-70586092D01*
X113006868Y-70562517D01*
X113006275Y-70558010D01*
X113017041Y-70488976D01*
X113041527Y-70454153D01*
X113358865Y-70136816D01*
X113420186Y-70103334D01*
X113446544Y-70100500D01*
X114286421Y-70100500D01*
X114353460Y-70120185D01*
G37*
%TD.AperFunction*%
%TA.AperFunction,Conductor*%
G36*
X113541707Y-65350185D02*
G01*
X113562349Y-65366817D01*
X113619596Y-65424065D01*
X113726827Y-65474068D01*
X113775683Y-65480500D01*
X113775684Y-65480500D01*
X114224317Y-65480500D01*
X114240601Y-65478356D01*
X114273173Y-65474068D01*
X114380404Y-65424065D01*
X114437651Y-65366818D01*
X114498975Y-65333334D01*
X114525332Y-65330500D01*
X114757598Y-65330500D01*
X114824637Y-65350185D01*
X114845278Y-65366818D01*
X114881684Y-65403224D01*
X114990513Y-65453972D01*
X115040099Y-65460500D01*
X115459900Y-65460499D01*
X115509487Y-65453972D01*
X115618316Y-65403224D01*
X115654721Y-65366818D01*
X115716044Y-65333334D01*
X115742402Y-65330500D01*
X116626669Y-65330500D01*
X116693708Y-65350185D01*
X116739463Y-65402989D01*
X116749765Y-65439553D01*
X116764859Y-65563869D01*
X116764860Y-65563874D01*
X116825182Y-65722931D01*
X116880341Y-65802841D01*
X116921817Y-65862929D01*
X117006617Y-65938055D01*
X117049150Y-65975736D01*
X117195966Y-66052791D01*
X117199775Y-66054790D01*
X117364944Y-66095500D01*
X117535056Y-66095500D01*
X117700225Y-66054790D01*
X117825304Y-65989143D01*
X117850849Y-65975736D01*
X117850850Y-65975734D01*
X117850852Y-65975734D01*
X117978183Y-65862929D01*
X117982950Y-65856021D01*
X118037230Y-65812033D01*
X118106678Y-65804372D01*
X118169244Y-65835473D01*
X118187046Y-65856017D01*
X118191817Y-65862929D01*
X118276617Y-65938055D01*
X118319150Y-65975736D01*
X118465966Y-66052791D01*
X118469775Y-66054790D01*
X118634944Y-66095500D01*
X118805056Y-66095500D01*
X118970225Y-66054790D01*
X119095304Y-65989143D01*
X119120849Y-65975736D01*
X119120850Y-65975734D01*
X119120852Y-65975734D01*
X119248183Y-65862929D01*
X119252946Y-65856028D01*
X119307223Y-65812035D01*
X119376671Y-65804371D01*
X119439238Y-65835469D01*
X119457047Y-65856019D01*
X119461815Y-65862927D01*
X119461816Y-65862928D01*
X119461817Y-65862929D01*
X119503095Y-65899498D01*
X119589150Y-65975736D01*
X119735966Y-66052791D01*
X119739775Y-66054790D01*
X119825289Y-66075867D01*
X119830174Y-66077071D01*
X119890554Y-66112227D01*
X119922343Y-66174446D01*
X119924499Y-66197468D01*
X119924499Y-67300500D01*
X119904814Y-67367539D01*
X119852010Y-67413294D01*
X119800500Y-67424500D01*
X119661601Y-67424500D01*
X119584880Y-67439760D01*
X119568889Y-67450446D01*
X119502212Y-67471323D01*
X119434832Y-67452837D01*
X119431111Y-67450446D01*
X119415117Y-67439759D01*
X119338403Y-67424500D01*
X119161601Y-67424500D01*
X119084880Y-67439760D01*
X119068889Y-67450446D01*
X119002212Y-67471323D01*
X118934832Y-67452837D01*
X118931111Y-67450446D01*
X118915117Y-67439759D01*
X118838403Y-67424500D01*
X118661601Y-67424500D01*
X118600475Y-67436658D01*
X118584883Y-67439760D01*
X118584882Y-67439760D01*
X118584879Y-67439761D01*
X118568886Y-67450447D01*
X118502208Y-67471323D01*
X118434829Y-67452836D01*
X118431121Y-67450453D01*
X118415117Y-67439760D01*
X118415116Y-67439759D01*
X118415115Y-67439759D01*
X118338403Y-67424500D01*
X118160281Y-67424500D01*
X118093242Y-67404815D01*
X118048879Y-67354958D01*
X118041237Y-67339325D01*
X118039198Y-67335154D01*
X118039197Y-67335153D01*
X118034928Y-67329175D01*
X118030420Y-67323384D01*
X118030418Y-67323379D01*
X118008105Y-67302838D01*
X117993645Y-67289526D01*
X117991796Y-67287752D01*
X116741000Y-66036955D01*
X116724874Y-66017098D01*
X116719800Y-66009331D01*
X116693850Y-65989133D01*
X116688104Y-65984059D01*
X116685670Y-65981625D01*
X116668972Y-65969703D01*
X116666918Y-65968171D01*
X116639921Y-65947159D01*
X116627489Y-65937483D01*
X116627487Y-65937482D01*
X116621011Y-65933977D01*
X116614429Y-65930759D01*
X116566545Y-65916503D01*
X116564106Y-65915722D01*
X116516847Y-65899498D01*
X116509632Y-65898294D01*
X116502316Y-65897382D01*
X116453502Y-65899401D01*
X116452412Y-65899447D01*
X116449852Y-65899500D01*
X115605331Y-65899500D01*
X115538292Y-65879815D01*
X115517650Y-65863181D01*
X115440404Y-65785935D01*
X115355930Y-65746544D01*
X115333173Y-65735932D01*
X115333171Y-65735931D01*
X115333172Y-65735931D01*
X115284317Y-65729500D01*
X115284316Y-65729500D01*
X114935684Y-65729500D01*
X114935683Y-65729500D01*
X114886828Y-65735931D01*
X114779595Y-65785935D01*
X114688264Y-65877267D01*
X114685440Y-65874443D01*
X114646958Y-65905183D01*
X114577458Y-65912352D01*
X114515114Y-65880808D01*
X114511901Y-65877101D01*
X114511736Y-65877267D01*
X114420404Y-65785935D01*
X114335930Y-65746544D01*
X114313173Y-65735932D01*
X114313171Y-65735931D01*
X114313172Y-65735931D01*
X114264317Y-65729500D01*
X114264316Y-65729500D01*
X113915684Y-65729500D01*
X113915683Y-65729500D01*
X113866828Y-65735931D01*
X113864222Y-65737146D01*
X113862644Y-65737882D01*
X113810241Y-65749500D01*
X113376257Y-65749500D01*
X113309218Y-65729815D01*
X113303900Y-65726075D01*
X113302836Y-65725461D01*
X113156765Y-65664957D01*
X113156760Y-65664955D01*
X113000001Y-65644318D01*
X112999999Y-65644318D01*
X112843239Y-65664955D01*
X112843237Y-65664956D01*
X112697160Y-65725463D01*
X112571718Y-65821718D01*
X112475463Y-65947160D01*
X112414956Y-66093237D01*
X112414955Y-66093239D01*
X112394318Y-66249998D01*
X112394318Y-66250001D01*
X112414955Y-66406760D01*
X112414956Y-66406762D01*
X112471187Y-66542517D01*
X112475464Y-66552841D01*
X112571718Y-66678282D01*
X112664516Y-66749488D01*
X112671354Y-66754735D01*
X112712556Y-66811163D01*
X112716711Y-66880910D01*
X112682498Y-66941830D01*
X112668498Y-66952979D01*
X112668740Y-66953302D01*
X112618384Y-66990998D01*
X112618363Y-66991016D01*
X112487123Y-67122256D01*
X112479757Y-67130454D01*
X112479753Y-67130459D01*
X112459674Y-67155376D01*
X112422509Y-67226424D01*
X112402826Y-67293456D01*
X112394500Y-67351365D01*
X112394500Y-67494550D01*
X112394318Y-67497328D01*
X112394318Y-67502676D01*
X112394500Y-67505454D01*
X112394500Y-67654142D01*
X112395089Y-67665136D01*
X112395090Y-67665152D01*
X112398511Y-67696961D01*
X112398513Y-67696970D01*
X112408687Y-67729462D01*
X112419076Y-67762641D01*
X112422470Y-67773478D01*
X112422471Y-67773483D01*
X112435278Y-67796936D01*
X112455956Y-67834805D01*
X112455958Y-67834808D01*
X112455960Y-67834811D01*
X112490998Y-67881615D01*
X112491002Y-67881619D01*
X112491009Y-67881629D01*
X112622263Y-68012883D01*
X112628632Y-68018605D01*
X112630454Y-68020242D01*
X112630459Y-68020246D01*
X112655377Y-68040325D01*
X112655376Y-68040325D01*
X112726424Y-68077490D01*
X112793456Y-68097173D01*
X112793458Y-68097173D01*
X112793464Y-68097175D01*
X112851362Y-68105500D01*
X112851366Y-68105500D01*
X112956117Y-68105500D01*
X112956138Y-68105500D01*
X112962863Y-68105280D01*
X112973427Y-68104587D01*
X112997727Y-68105382D01*
X113000000Y-68105682D01*
X113002272Y-68105382D01*
X113026572Y-68104587D01*
X113037138Y-68105280D01*
X113043862Y-68105500D01*
X116263518Y-68105500D01*
X116330557Y-68125185D01*
X116351199Y-68141819D01*
X116745647Y-68536269D01*
X116745654Y-68536275D01*
X116745670Y-68536291D01*
X116749998Y-68540375D01*
X116750015Y-68540390D01*
X116750017Y-68540392D01*
X116762947Y-68551905D01*
X116762949Y-68551906D01*
X116762950Y-68551907D01*
X116822641Y-68588972D01*
X116880744Y-68612441D01*
X116906388Y-68622799D01*
X116906778Y-68622754D01*
X116910473Y-68623656D01*
X116910504Y-68623503D01*
X116917335Y-68624861D01*
X116917336Y-68624862D01*
X116950766Y-68631511D01*
X116980299Y-68641858D01*
X116980419Y-68641591D01*
X116983566Y-68643002D01*
X116983573Y-68643005D01*
X116983576Y-68643006D01*
X116983584Y-68643010D01*
X116994867Y-68647333D01*
X117050425Y-68689702D01*
X117074257Y-68755381D01*
X117074499Y-68763121D01*
X117074500Y-68800497D01*
X117054817Y-68867537D01*
X117002014Y-68913293D01*
X116950500Y-68924500D01*
X116714500Y-68924500D01*
X116674238Y-68917781D01*
X116620988Y-68899500D01*
X116620987Y-68899500D01*
X115693504Y-68899500D01*
X115668059Y-68896861D01*
X115658983Y-68894958D01*
X115658980Y-68894958D01*
X115626366Y-68899023D01*
X115618690Y-68899500D01*
X115615258Y-68899500D01*
X115595014Y-68902877D01*
X115592490Y-68903245D01*
X115541289Y-68909628D01*
X115509766Y-68909519D01*
X115394299Y-68894318D01*
X115394297Y-68894318D01*
X115237537Y-68914955D01*
X115237535Y-68914956D01*
X115091458Y-68975463D01*
X114966016Y-69071718D01*
X114869761Y-69197160D01*
X114809251Y-69343244D01*
X114807769Y-69348776D01*
X114771400Y-69408433D01*
X114708550Y-69438958D01*
X114649415Y-69431883D01*
X114648877Y-69433691D01*
X114591147Y-69416503D01*
X114588708Y-69415722D01*
X114541449Y-69399498D01*
X114534234Y-69398294D01*
X114526918Y-69397382D01*
X114478104Y-69399401D01*
X114477014Y-69399447D01*
X114474454Y-69399500D01*
X113299206Y-69399500D01*
X113273761Y-69396861D01*
X113264685Y-69394958D01*
X113264682Y-69394958D01*
X113232068Y-69399023D01*
X113224392Y-69399500D01*
X113220960Y-69399500D01*
X113200716Y-69402877D01*
X113198193Y-69403245D01*
X113148606Y-69409426D01*
X113141575Y-69411519D01*
X113134618Y-69413907D01*
X113090687Y-69437682D01*
X113088411Y-69438853D01*
X113043513Y-69460803D01*
X113037566Y-69465048D01*
X113031739Y-69469584D01*
X112997913Y-69506329D01*
X112996139Y-69508177D01*
X112286955Y-70217361D01*
X112267106Y-70233482D01*
X112259331Y-70238562D01*
X112239143Y-70264498D01*
X112234067Y-70270248D01*
X112231634Y-70272681D01*
X112231622Y-70272696D01*
X112221161Y-70287347D01*
X112172655Y-70327670D01*
X112131683Y-70346776D01*
X112095279Y-70383181D01*
X112033956Y-70416666D01*
X112007598Y-70419500D01*
X110973096Y-70419500D01*
X110940316Y-70412978D01*
X110940210Y-70413515D01*
X110869752Y-70399500D01*
X110869748Y-70399500D01*
X110574500Y-70399500D01*
X110507461Y-70379815D01*
X110461706Y-70327011D01*
X110450500Y-70275500D01*
X110450500Y-69440092D01*
X110470185Y-69373053D01*
X110522989Y-69327298D01*
X110592147Y-69317354D01*
X110634236Y-69331429D01*
X110642908Y-69336197D01*
X110795981Y-69375500D01*
X110795984Y-69375500D01*
X110914348Y-69375500D01*
X110914350Y-69375500D01*
X110914355Y-69375499D01*
X110914359Y-69375499D01*
X110933720Y-69373053D01*
X111031792Y-69360664D01*
X111178732Y-69302486D01*
X111195210Y-69290514D01*
X111306583Y-69209597D01*
X111306584Y-69209596D01*
X111306583Y-69209596D01*
X111306587Y-69209594D01*
X111407324Y-69087823D01*
X111474614Y-68944826D01*
X111504227Y-68789588D01*
X111494304Y-68631862D01*
X111445467Y-68481559D01*
X111360786Y-68348123D01*
X111245582Y-68239938D01*
X111245579Y-68239936D01*
X111245577Y-68239934D01*
X111107095Y-68163804D01*
X111107087Y-68163801D01*
X110954021Y-68124500D01*
X110954019Y-68124500D01*
X110835650Y-68124500D01*
X110835640Y-68124500D01*
X110718208Y-68139336D01*
X110718205Y-68139336D01*
X110620148Y-68178161D01*
X110550570Y-68184538D01*
X110488589Y-68152286D01*
X110453885Y-68091644D01*
X110450500Y-68062869D01*
X110450500Y-67224500D01*
X110470185Y-67157461D01*
X110522989Y-67111706D01*
X110574500Y-67100500D01*
X110808800Y-67100500D01*
X110875839Y-67120185D01*
X110921594Y-67172989D01*
X110923361Y-67177048D01*
X110975464Y-67302838D01*
X110975465Y-67302839D01*
X110975466Y-67302841D01*
X111071720Y-67428282D01*
X111197161Y-67524536D01*
X111343240Y-67585044D01*
X111421620Y-67595362D01*
X111500001Y-67605682D01*
X111500002Y-67605682D01*
X111500003Y-67605682D01*
X111552256Y-67598802D01*
X111656764Y-67585044D01*
X111802843Y-67524536D01*
X111928284Y-67428282D01*
X112024538Y-67302841D01*
X112085046Y-67156762D01*
X112105684Y-67000000D01*
X112104500Y-66991009D01*
X112085046Y-66843239D01*
X112085046Y-66843238D01*
X112024538Y-66697159D01*
X111928284Y-66571718D01*
X111802843Y-66475464D01*
X111800071Y-66474316D01*
X111656764Y-66414956D01*
X111656762Y-66414955D01*
X111500003Y-66394318D01*
X111500001Y-66394318D01*
X111343241Y-66414955D01*
X111343236Y-66414957D01*
X111221951Y-66465195D01*
X111152482Y-66472664D01*
X111090003Y-66441389D01*
X111054351Y-66381300D01*
X111050499Y-66350639D01*
X111050499Y-65746543D01*
X111070184Y-65679505D01*
X111086818Y-65658863D01*
X111378863Y-65366819D01*
X111440186Y-65333334D01*
X111466544Y-65330500D01*
X113474668Y-65330500D01*
X113541707Y-65350185D01*
G37*
%TD.AperFunction*%
%TD*%
%TA.AperFunction,Conductor*%
%TO.N,+3V3*%
G36*
X110265677Y-78519685D02*
G01*
X110286319Y-78536319D01*
X110658603Y-78908603D01*
X110692088Y-78969926D01*
X110687104Y-79039618D01*
X110685484Y-79043734D01*
X110664981Y-79093234D01*
X110664979Y-79093239D01*
X110644342Y-79249998D01*
X110644342Y-79250001D01*
X110664979Y-79406760D01*
X110664981Y-79406765D01*
X110725485Y-79552836D01*
X110729550Y-79559876D01*
X110727999Y-79560771D01*
X110749569Y-79616549D01*
X110750000Y-79626877D01*
X110750000Y-81259181D01*
X110746877Y-81281055D01*
X110747266Y-81281107D01*
X110739500Y-81340098D01*
X110739500Y-81459137D01*
X110719815Y-81526176D01*
X110703181Y-81546818D01*
X110286319Y-81963681D01*
X110224996Y-81997166D01*
X110198638Y-82000000D01*
X109051362Y-82000000D01*
X108984323Y-81980315D01*
X108963681Y-81963681D01*
X108536319Y-81536319D01*
X108502834Y-81474996D01*
X108500000Y-81448638D01*
X108500000Y-79051361D01*
X108519685Y-78984322D01*
X108536314Y-78963685D01*
X108963681Y-78536319D01*
X109025004Y-78502834D01*
X109051362Y-78500000D01*
X110198638Y-78500000D01*
X110265677Y-78519685D01*
G37*
%TD.AperFunction*%
%TD*%
M02*
