%TF.GenerationSoftware,KiCad,Pcbnew,7.0.5*%
%TF.CreationDate,2023-08-24T03:33:07+02:00*%
%TF.ProjectId,Reader_Module,52656164-6572-45f4-9d6f-64756c652e6b,rev?*%
%TF.SameCoordinates,Original*%
%TF.FileFunction,Soldermask,Top*%
%TF.FilePolarity,Negative*%
%FSLAX46Y46*%
G04 Gerber Fmt 4.6, Leading zero omitted, Abs format (unit mm)*
G04 Created by KiCad (PCBNEW 7.0.5) date 2023-08-24 03:33:07*
%MOMM*%
%LPD*%
G01*
G04 APERTURE LIST*
G04 Aperture macros list*
%AMRoundRect*
0 Rectangle with rounded corners*
0 $1 Rounding radius*
0 $2 $3 $4 $5 $6 $7 $8 $9 X,Y pos of 4 corners*
0 Add a 4 corners polygon primitive as box body*
4,1,4,$2,$3,$4,$5,$6,$7,$8,$9,$2,$3,0*
0 Add four circle primitives for the rounded corners*
1,1,$1+$1,$2,$3*
1,1,$1+$1,$4,$5*
1,1,$1+$1,$6,$7*
1,1,$1+$1,$8,$9*
0 Add four rect primitives between the rounded corners*
20,1,$1+$1,$2,$3,$4,$5,0*
20,1,$1+$1,$4,$5,$6,$7,0*
20,1,$1+$1,$6,$7,$8,$9,0*
20,1,$1+$1,$8,$9,$2,$3,0*%
%AMFreePoly0*
4,1,5,0.400000,-0.750000,-0.400000,-0.750000,-0.400000,0.750000,0.400000,0.750000,0.400000,-0.750000,0.400000,-0.750000,$1*%
G04 Aperture macros list end*
%ADD10R,0.300000X0.850000*%
%ADD11R,0.850000X0.300000*%
%ADD12R,3.550000X3.550000*%
%ADD13RoundRect,0.250000X0.350000X0.650000X-0.350000X0.650000X-0.350000X-0.650000X0.350000X-0.650000X0*%
%ADD14O,1.200000X1.800000*%
%ADD15RoundRect,0.135000X0.135000X0.185000X-0.135000X0.185000X-0.135000X-0.185000X0.135000X-0.185000X0*%
%ADD16RoundRect,0.140000X0.170000X-0.140000X0.170000X0.140000X-0.170000X0.140000X-0.170000X-0.140000X0*%
%ADD17RoundRect,0.140000X-0.170000X0.140000X-0.170000X-0.140000X0.170000X-0.140000X0.170000X0.140000X0*%
%ADD18RoundRect,0.150000X0.150000X-0.512500X0.150000X0.512500X-0.150000X0.512500X-0.150000X-0.512500X0*%
%ADD19RoundRect,0.140000X0.140000X0.170000X-0.140000X0.170000X-0.140000X-0.170000X0.140000X-0.170000X0*%
%ADD20C,0.750000*%
%ADD21R,1.000000X1.550000*%
%ADD22RoundRect,0.062500X-0.375000X-0.062500X0.375000X-0.062500X0.375000X0.062500X-0.375000X0.062500X0*%
%ADD23RoundRect,0.062500X-0.062500X-0.375000X0.062500X-0.375000X0.062500X0.375000X-0.062500X0.375000X0*%
%ADD24R,3.450000X3.450000*%
%ADD25C,3.200000*%
%ADD26RoundRect,0.135000X0.185000X-0.135000X0.185000X0.135000X-0.185000X0.135000X-0.185000X-0.135000X0*%
%ADD27RoundRect,0.140000X-0.140000X-0.170000X0.140000X-0.170000X0.140000X0.170000X-0.140000X0.170000X0*%
%ADD28RoundRect,0.218750X0.381250X-0.218750X0.381250X0.218750X-0.381250X0.218750X-0.381250X-0.218750X0*%
%ADD29RoundRect,0.135000X-0.185000X0.135000X-0.185000X-0.135000X0.185000X-0.135000X0.185000X0.135000X0*%
%ADD30RoundRect,0.218750X-0.218750X-0.381250X0.218750X-0.381250X0.218750X0.381250X-0.218750X0.381250X0*%
%ADD31C,1.448000*%
%ADD32FreePoly0,0.000000*%
%ADD33RoundRect,0.150000X0.150000X-0.825000X0.150000X0.825000X-0.150000X0.825000X-0.150000X-0.825000X0*%
%ADD34R,1.200000X1.400000*%
%ADD35RoundRect,0.135000X-0.135000X-0.185000X0.135000X-0.185000X0.135000X0.185000X-0.135000X0.185000X0*%
%ADD36R,1.000000X1.000000*%
%ADD37O,1.000000X1.000000*%
G04 APERTURE END LIST*
D10*
%TO.C,D1*%
X116750000Y-79450000D03*
X117250000Y-79450000D03*
X117750000Y-79450000D03*
X118250000Y-79450000D03*
X118750000Y-79450000D03*
X119250000Y-79450000D03*
X119750000Y-79450000D03*
X120250000Y-79450000D03*
D11*
X120950000Y-78750000D03*
X120950000Y-78250000D03*
X120950000Y-77750000D03*
X120950000Y-77250000D03*
X120950000Y-76750000D03*
X120950000Y-76250000D03*
X120950000Y-75750000D03*
X120950000Y-75250000D03*
D10*
X120250000Y-74550000D03*
X119750000Y-74550000D03*
X119250000Y-74550000D03*
X118750000Y-74550000D03*
X118250000Y-74550000D03*
X117750000Y-74550000D03*
X117250000Y-74550000D03*
X116750000Y-74550000D03*
D11*
X116050000Y-75250000D03*
X116050000Y-75750000D03*
X116050000Y-76250000D03*
X116050000Y-76750000D03*
X116050000Y-77250000D03*
X116050000Y-77750000D03*
X116050000Y-78250000D03*
X116050000Y-78750000D03*
D12*
X118500000Y-77000000D03*
%TD*%
D13*
%TO.C,J2*%
X133250000Y-65000000D03*
D14*
X131250000Y-65000000D03*
X129250000Y-65000000D03*
X127250000Y-65000000D03*
%TD*%
D15*
%TO.C,R6*%
X129010000Y-71750000D03*
X127990000Y-71750000D03*
%TD*%
D16*
%TO.C,C21*%
X128000000Y-70480000D03*
X128000000Y-69520000D03*
%TD*%
D17*
%TO.C,C23*%
X132500000Y-69520000D03*
X132500000Y-70480000D03*
%TD*%
D16*
%TO.C,C24*%
X133750000Y-74500000D03*
X133750000Y-73540000D03*
%TD*%
D18*
%TO.C,U3*%
X129300000Y-69407500D03*
X130250000Y-69407500D03*
X131200000Y-69407500D03*
X131200000Y-67132500D03*
X130250000Y-67132500D03*
X129300000Y-67132500D03*
%TD*%
D19*
%TO.C,C29*%
X127730000Y-68500000D03*
X126770000Y-68500000D03*
%TD*%
D17*
%TO.C,C8*%
X115250000Y-64020000D03*
X115250000Y-64980000D03*
%TD*%
D20*
%TO.C,SW1*%
X108125000Y-68750000D03*
X110875000Y-68750000D03*
D21*
X108650000Y-71375000D03*
X108650000Y-66125000D03*
X110350000Y-71375000D03*
X110350000Y-66125000D03*
%TD*%
D22*
%TO.C,U1*%
X116562500Y-68750000D03*
X116562500Y-69250000D03*
X116562500Y-69750000D03*
X116562500Y-70250000D03*
X116562500Y-70750000D03*
X116562500Y-71250000D03*
X116562500Y-71750000D03*
X116562500Y-72250000D03*
D23*
X117250000Y-72937500D03*
X117750000Y-72937500D03*
X118250000Y-72937500D03*
X118750000Y-72937500D03*
X119250000Y-72937500D03*
X119750000Y-72937500D03*
X120250000Y-72937500D03*
X120750000Y-72937500D03*
D22*
X121437500Y-72250000D03*
X121437500Y-71750000D03*
X121437500Y-71250000D03*
X121437500Y-70750000D03*
X121437500Y-70250000D03*
X121437500Y-69750000D03*
X121437500Y-69250000D03*
X121437500Y-68750000D03*
D23*
X120750000Y-68062500D03*
X120250000Y-68062500D03*
X119750000Y-68062500D03*
X119250000Y-68062500D03*
X118750000Y-68062500D03*
X118250000Y-68062500D03*
X117750000Y-68062500D03*
X117250000Y-68062500D03*
D24*
X119000000Y-70500000D03*
%TD*%
D25*
%TO.C,H4*%
X111250000Y-106250000D03*
%TD*%
D16*
%TO.C,C14*%
X117500000Y-82480000D03*
X117500000Y-81520000D03*
%TD*%
D26*
%TO.C,R9*%
X135000000Y-74530000D03*
X135000000Y-73510000D03*
%TD*%
D27*
%TO.C,C35*%
X122270000Y-80250000D03*
X123230000Y-80250000D03*
%TD*%
D17*
%TO.C,C9*%
X113750000Y-79270000D03*
X113750000Y-80230000D03*
%TD*%
%TO.C,C19*%
X135000000Y-76520000D03*
X135000000Y-77480000D03*
%TD*%
D19*
%TO.C,C5*%
X123480000Y-75500000D03*
X122520000Y-75500000D03*
%TD*%
D28*
%TO.C,L2*%
X124750000Y-82312500D03*
X124750000Y-80187500D03*
%TD*%
D17*
%TO.C,C20*%
X133750000Y-76520000D03*
X133750000Y-77480000D03*
%TD*%
D29*
%TO.C,R1*%
X114000000Y-63990000D03*
X114000000Y-65010000D03*
%TD*%
D16*
%TO.C,C11*%
X112500000Y-82480000D03*
X112500000Y-81520000D03*
%TD*%
D17*
%TO.C,C4*%
X114000000Y-67520000D03*
X114000000Y-68480000D03*
%TD*%
%TO.C,C27*%
X128750000Y-83520000D03*
X128750000Y-84480000D03*
%TD*%
D19*
%TO.C,C36*%
X123230000Y-79000000D03*
X122270000Y-79000000D03*
%TD*%
D30*
%TO.C,L1*%
X119687500Y-84250000D03*
X121812500Y-84250000D03*
%TD*%
D16*
%TO.C,C16*%
X115000000Y-82480000D03*
X115000000Y-81520000D03*
%TD*%
D27*
%TO.C,C30*%
X118770000Y-81500000D03*
X119730000Y-81500000D03*
%TD*%
D26*
%TO.C,R10*%
X130000000Y-84510000D03*
X130000000Y-83490000D03*
%TD*%
D16*
%TO.C,C22*%
X130250000Y-71980000D03*
X130250000Y-71020000D03*
%TD*%
D25*
%TO.C,H3*%
X132500000Y-106250000D03*
%TD*%
D17*
%TO.C,C18*%
X112500000Y-74020000D03*
X112500000Y-74980000D03*
%TD*%
D19*
%TO.C,C31*%
X119710000Y-82750000D03*
X118750000Y-82750000D03*
%TD*%
D17*
%TO.C,C3*%
X115250000Y-67520000D03*
X115250000Y-68480000D03*
%TD*%
D16*
%TO.C,C28*%
X124000000Y-67480000D03*
X124000000Y-66520000D03*
%TD*%
%TO.C,C1*%
X114500000Y-71730000D03*
X114500000Y-70770000D03*
%TD*%
D31*
%TO.C,H7*%
X109250000Y-63750000D03*
%TD*%
D15*
%TO.C,R8*%
X132510000Y-71750000D03*
X131490000Y-71750000D03*
%TD*%
D19*
%TO.C,C33*%
X121980000Y-81500000D03*
X121020000Y-81500000D03*
%TD*%
D27*
%TO.C,C32*%
X121020000Y-82750000D03*
X121980000Y-82750000D03*
%TD*%
D17*
%TO.C,C7*%
X112500000Y-70770000D03*
X112500000Y-71730000D03*
%TD*%
D16*
%TO.C,C15*%
X113750000Y-82480000D03*
X113750000Y-81520000D03*
%TD*%
D30*
%TO.C,FB2*%
X125437500Y-67000000D03*
X127562500Y-67000000D03*
%TD*%
D16*
%TO.C,C17*%
X112500000Y-77480000D03*
X112500000Y-76520000D03*
%TD*%
D31*
%TO.C,H6*%
X127500000Y-95000000D03*
%TD*%
D16*
%TO.C,C38*%
X127500000Y-82480000D03*
X127500000Y-81520000D03*
%TD*%
D29*
%TO.C,R11*%
X128750000Y-81490000D03*
X128750000Y-82510000D03*
%TD*%
D16*
%TO.C,C2*%
X122750000Y-73480000D03*
X122750000Y-72520000D03*
%TD*%
D19*
%TO.C,C6*%
X123480000Y-76750000D03*
X122520000Y-76750000D03*
%TD*%
D17*
%TO.C,C10*%
X112500000Y-79270000D03*
X112500000Y-80230000D03*
%TD*%
D16*
%TO.C,C12*%
X111250000Y-82480000D03*
X111250000Y-81520000D03*
%TD*%
D31*
%TO.C,H5*%
X116250000Y-95000000D03*
%TD*%
D16*
%TO.C,C13*%
X116250000Y-82480000D03*
X116250000Y-81520000D03*
%TD*%
D15*
%TO.C,R4*%
X115110000Y-66250000D03*
X114090000Y-66250000D03*
%TD*%
D16*
%TO.C,C25*%
X132500000Y-84480000D03*
X132500000Y-83520000D03*
%TD*%
D29*
%TO.C,R5*%
X126750000Y-72490000D03*
X126750000Y-73510000D03*
%TD*%
D32*
%TO.C,AE1*%
X127500000Y-90312500D03*
%TD*%
D29*
%TO.C,R7*%
X125500000Y-72490000D03*
X125500000Y-73510000D03*
%TD*%
D33*
%TO.C,U2*%
X128345000Y-78725000D03*
X129615000Y-78725000D03*
X130885000Y-78725000D03*
X132155000Y-78725000D03*
X132155000Y-73775000D03*
X130885000Y-73775000D03*
X129615000Y-73775000D03*
X128345000Y-73775000D03*
%TD*%
D16*
%TO.C,C37*%
X126250000Y-82480000D03*
X126250000Y-81520000D03*
%TD*%
%TO.C,C26*%
X131250000Y-84480000D03*
X131250000Y-83520000D03*
%TD*%
D34*
%TO.C,Y1*%
X110850000Y-76100000D03*
X110850000Y-73900000D03*
X109150000Y-73900000D03*
X109150000Y-76100000D03*
%TD*%
D16*
%TO.C,C34*%
X123250000Y-83480000D03*
X123250000Y-82520000D03*
%TD*%
D35*
%TO.C,R3*%
X110240000Y-80250000D03*
X111260000Y-80250000D03*
%TD*%
D36*
%TO.C,J1*%
X117450000Y-64125000D03*
D37*
X117450000Y-65395000D03*
X118720000Y-64125000D03*
X118720000Y-65395000D03*
X119990000Y-64125000D03*
X119990000Y-65395000D03*
X121260000Y-64125000D03*
X121260000Y-65395000D03*
X122530000Y-64125000D03*
X122530000Y-65395000D03*
%TD*%
M02*
