%TF.GenerationSoftware,KiCad,Pcbnew,7.0.5*%
%TF.CreationDate,2023-08-24T03:33:07+02:00*%
%TF.ProjectId,Reader_Module,52656164-6572-45f4-9d6f-64756c652e6b,rev?*%
%TF.SameCoordinates,Original*%
%TF.FileFunction,Legend,Top*%
%TF.FilePolarity,Positive*%
%FSLAX46Y46*%
G04 Gerber Fmt 4.6, Leading zero omitted, Abs format (unit mm)*
G04 Created by KiCad (PCBNEW 7.0.5) date 2023-08-24 03:33:07*
%MOMM*%
%LPD*%
G01*
G04 APERTURE LIST*
%ADD10C,0.150000*%
%ADD11C,0.300000*%
%ADD12C,0.250000*%
%ADD13C,0.120000*%
G04 APERTURE END LIST*
D10*
X124125000Y-93750000D02*
G75*
G03*
X121875000Y-93750000I-1125000J0D01*
G01*
X123000000Y-94750000D02*
X123000000Y-95250000D01*
X120750000Y-94750000D02*
X121750000Y-93750000D01*
X123000000Y-95250000D02*
X120750000Y-95250000D01*
X121875000Y-93750000D02*
G75*
G03*
X119625000Y-93750000I-1125000J0D01*
G01*
X122000000Y-93750000D02*
X123000000Y-94750000D01*
X121750000Y-93750000D02*
X122000000Y-93750000D01*
X120750000Y-95250000D02*
X120750000Y-94750000D01*
D11*
G36*
X119738450Y-88220207D02*
G01*
X119640630Y-88220207D01*
X119623945Y-88220090D01*
X119607549Y-88219738D01*
X119591442Y-88219151D01*
X119575624Y-88218329D01*
X119560095Y-88217273D01*
X119544855Y-88215982D01*
X119529904Y-88214457D01*
X119515242Y-88212697D01*
X119486786Y-88208472D01*
X119459486Y-88203309D01*
X119433343Y-88197206D01*
X119408355Y-88190165D01*
X119384525Y-88182185D01*
X119361850Y-88173267D01*
X119340332Y-88163409D01*
X119319970Y-88152613D01*
X119300765Y-88140878D01*
X119282715Y-88128204D01*
X119265823Y-88114591D01*
X119250086Y-88100040D01*
X119233716Y-88082855D01*
X119218401Y-88064823D01*
X119204143Y-88045944D01*
X119190941Y-88026217D01*
X119178795Y-88005644D01*
X119167706Y-87984223D01*
X119157672Y-87961955D01*
X119148695Y-87938839D01*
X119140774Y-87914877D01*
X119133909Y-87890067D01*
X119128100Y-87864410D01*
X119123347Y-87837906D01*
X119119650Y-87810555D01*
X119117010Y-87782356D01*
X119115426Y-87753310D01*
X119115030Y-87738470D01*
X119114898Y-87723417D01*
X119115119Y-87703918D01*
X119115785Y-87684806D01*
X119116894Y-87666080D01*
X119118447Y-87647740D01*
X119120443Y-87629787D01*
X119122883Y-87612220D01*
X119125767Y-87595039D01*
X119129094Y-87578245D01*
X119132865Y-87561838D01*
X119137080Y-87545816D01*
X119141738Y-87530181D01*
X119146840Y-87514933D01*
X119152386Y-87500071D01*
X119158375Y-87485595D01*
X119164808Y-87471506D01*
X119171684Y-87457803D01*
X119178865Y-87444581D01*
X119190120Y-87425655D01*
X119201955Y-87407817D01*
X119214369Y-87391068D01*
X119227363Y-87375407D01*
X119240936Y-87360834D01*
X119255089Y-87347350D01*
X119269822Y-87334954D01*
X119285134Y-87323646D01*
X119301026Y-87313427D01*
X119317497Y-87304296D01*
X119335146Y-87296178D01*
X119354707Y-87288858D01*
X119368811Y-87284421D01*
X119383765Y-87280340D01*
X119399568Y-87276613D01*
X119416222Y-87273241D01*
X119433726Y-87270225D01*
X119452080Y-87267563D01*
X119471284Y-87265256D01*
X119491338Y-87263304D01*
X119512243Y-87261707D01*
X119533997Y-87260464D01*
X119556601Y-87259577D01*
X119580056Y-87259045D01*
X119604360Y-87258867D01*
X119738450Y-87258867D01*
X119738450Y-88220207D01*
G37*
G36*
X124608164Y-88220207D02*
G01*
X124533792Y-88220207D01*
X124515689Y-88219856D01*
X124498475Y-88218803D01*
X124482149Y-88217048D01*
X124466713Y-88214591D01*
X124447513Y-88210224D01*
X124429893Y-88204608D01*
X124413853Y-88197744D01*
X124399393Y-88189633D01*
X124386513Y-88180273D01*
X124375179Y-88169935D01*
X124365356Y-88158704D01*
X124357044Y-88146579D01*
X124350243Y-88133562D01*
X124344954Y-88119652D01*
X124341176Y-88104848D01*
X124338909Y-88089152D01*
X124338153Y-88072562D01*
X124338949Y-88054897D01*
X124341336Y-88038170D01*
X124345314Y-88022382D01*
X124350884Y-88007533D01*
X124358045Y-87993622D01*
X124366798Y-87980651D01*
X124377142Y-87968618D01*
X124389078Y-87957524D01*
X124395655Y-87952422D01*
X124410081Y-87943206D01*
X124426201Y-87935306D01*
X124444015Y-87928723D01*
X124458488Y-87924650D01*
X124473914Y-87921317D01*
X124490293Y-87918725D01*
X124507625Y-87916873D01*
X124525910Y-87915762D01*
X124545149Y-87915392D01*
X124608164Y-87915392D01*
X124608164Y-88220207D01*
G37*
G36*
X124608164Y-87657472D02*
G01*
X124548446Y-87657472D01*
X124527575Y-87657244D01*
X124507459Y-87656561D01*
X124488099Y-87655424D01*
X124469495Y-87653831D01*
X124451646Y-87651783D01*
X124434553Y-87649280D01*
X124418215Y-87646322D01*
X124402633Y-87642909D01*
X124387807Y-87639040D01*
X124373736Y-87634717D01*
X124354047Y-87627379D01*
X124336058Y-87619016D01*
X124319769Y-87609630D01*
X124305180Y-87599220D01*
X124296307Y-87591817D01*
X124284071Y-87580084D01*
X124273123Y-87567598D01*
X124263463Y-87554358D01*
X124255091Y-87540365D01*
X124248007Y-87525619D01*
X124242211Y-87510119D01*
X124237703Y-87493865D01*
X124234483Y-87476858D01*
X124232551Y-87459098D01*
X124231907Y-87440584D01*
X124232151Y-87429666D01*
X124233428Y-87413906D01*
X124235800Y-87398887D01*
X124240666Y-87380014D01*
X124247478Y-87362457D01*
X124256236Y-87346217D01*
X124266941Y-87331293D01*
X124279592Y-87317686D01*
X124294189Y-87305396D01*
X124302433Y-87299761D01*
X124316515Y-87291991D01*
X124332658Y-87285039D01*
X124350861Y-87278905D01*
X124371126Y-87273589D01*
X124385780Y-87270499D01*
X124401351Y-87267773D01*
X124417837Y-87265410D01*
X124435240Y-87263411D01*
X124453558Y-87261775D01*
X124472792Y-87260503D01*
X124492942Y-87259594D01*
X124514008Y-87259049D01*
X124535990Y-87258867D01*
X124608164Y-87258867D01*
X124608164Y-87657472D01*
G37*
G36*
X123191962Y-87212336D02*
G01*
X123207564Y-87213427D01*
X123222851Y-87215244D01*
X123237824Y-87217789D01*
X123252481Y-87221060D01*
X123266824Y-87225059D01*
X123280852Y-87229784D01*
X123294564Y-87235237D01*
X123307962Y-87241416D01*
X123321046Y-87248323D01*
X123333814Y-87255956D01*
X123346268Y-87264317D01*
X123358406Y-87273404D01*
X123370230Y-87283219D01*
X123381739Y-87293761D01*
X123392933Y-87305029D01*
X123403581Y-87316862D01*
X123413541Y-87329095D01*
X123422815Y-87341729D01*
X123431401Y-87354763D01*
X123439301Y-87368198D01*
X123446514Y-87382034D01*
X123453040Y-87396271D01*
X123458879Y-87410908D01*
X123464031Y-87425947D01*
X123468496Y-87441385D01*
X123472274Y-87457225D01*
X123475365Y-87473465D01*
X123477769Y-87490106D01*
X123479487Y-87507148D01*
X123480517Y-87524590D01*
X123480861Y-87542433D01*
X123480523Y-87560093D01*
X123479510Y-87577352D01*
X123477821Y-87594211D01*
X123475457Y-87610669D01*
X123472417Y-87626726D01*
X123468702Y-87642382D01*
X123464311Y-87657638D01*
X123459245Y-87672493D01*
X123453504Y-87686947D01*
X123447086Y-87701000D01*
X123439994Y-87714653D01*
X123432226Y-87727905D01*
X123423782Y-87740756D01*
X123414663Y-87753207D01*
X123404869Y-87765257D01*
X123394399Y-87776906D01*
X123383418Y-87787997D01*
X123372091Y-87798373D01*
X123360417Y-87808033D01*
X123348397Y-87816977D01*
X123336031Y-87825206D01*
X123323318Y-87832720D01*
X123310259Y-87839517D01*
X123296854Y-87845600D01*
X123283103Y-87850966D01*
X123269005Y-87855617D01*
X123254561Y-87859553D01*
X123239770Y-87862773D01*
X123224633Y-87865277D01*
X123209150Y-87867066D01*
X123193321Y-87868140D01*
X123177145Y-87868497D01*
X123160565Y-87868145D01*
X123144349Y-87867089D01*
X123128497Y-87865329D01*
X123113008Y-87862865D01*
X123097883Y-87859696D01*
X123083121Y-87855823D01*
X123068722Y-87851247D01*
X123054687Y-87845966D01*
X123041016Y-87839981D01*
X123027708Y-87833292D01*
X123014764Y-87825899D01*
X123002183Y-87817802D01*
X122989965Y-87809000D01*
X122978112Y-87799495D01*
X122966621Y-87789285D01*
X122955494Y-87778372D01*
X122944891Y-87766934D01*
X122934972Y-87755062D01*
X122925737Y-87742754D01*
X122917186Y-87730012D01*
X122909320Y-87716834D01*
X122902137Y-87703221D01*
X122895638Y-87689174D01*
X122889823Y-87674691D01*
X122884693Y-87659773D01*
X122880247Y-87644420D01*
X122876484Y-87628632D01*
X122873406Y-87612409D01*
X122871012Y-87595751D01*
X122869301Y-87578657D01*
X122868275Y-87561129D01*
X122867933Y-87543166D01*
X122868275Y-87524885D01*
X122869301Y-87507045D01*
X122871012Y-87489645D01*
X122873406Y-87472687D01*
X122876484Y-87456169D01*
X122880247Y-87440092D01*
X122884693Y-87424455D01*
X122889823Y-87409260D01*
X122895638Y-87394505D01*
X122902137Y-87380191D01*
X122909320Y-87366318D01*
X122917186Y-87352885D01*
X122925737Y-87339894D01*
X122934972Y-87327343D01*
X122944891Y-87315233D01*
X122955494Y-87303564D01*
X122966617Y-87292473D01*
X122978094Y-87282097D01*
X122989927Y-87272437D01*
X123002114Y-87263493D01*
X123014656Y-87255264D01*
X123027554Y-87247750D01*
X123040806Y-87240953D01*
X123054413Y-87234870D01*
X123068375Y-87229504D01*
X123082691Y-87224853D01*
X123097363Y-87220917D01*
X123112390Y-87217697D01*
X123127771Y-87215193D01*
X123143508Y-87213404D01*
X123159599Y-87212330D01*
X123176046Y-87211973D01*
X123191962Y-87212336D01*
G37*
G36*
X125560779Y-89236204D02*
G01*
X118158987Y-89236204D01*
X118158987Y-87718288D01*
X118823272Y-87718288D01*
X118823306Y-87723417D01*
X118823373Y-87733706D01*
X118823678Y-87749003D01*
X118824186Y-87764177D01*
X118824897Y-87779230D01*
X118825812Y-87794162D01*
X118826930Y-87808972D01*
X118829775Y-87838227D01*
X118833433Y-87866995D01*
X118837903Y-87895276D01*
X118843187Y-87923071D01*
X118849284Y-87950380D01*
X118856193Y-87977202D01*
X118863915Y-88003537D01*
X118872450Y-88029386D01*
X118881798Y-88054748D01*
X118891959Y-88079623D01*
X118902933Y-88104012D01*
X118914720Y-88127915D01*
X118927319Y-88151331D01*
X118940547Y-88174101D01*
X118954218Y-88196067D01*
X118968333Y-88217229D01*
X118982892Y-88237587D01*
X118997894Y-88257140D01*
X119013340Y-88275889D01*
X119029230Y-88293833D01*
X119045563Y-88310974D01*
X119062340Y-88327310D01*
X119079561Y-88342842D01*
X119097225Y-88357569D01*
X119115333Y-88371493D01*
X119133884Y-88384612D01*
X119152879Y-88396926D01*
X119172318Y-88408437D01*
X119192201Y-88419143D01*
X119202419Y-88424214D01*
X119223851Y-88433874D01*
X119246611Y-88442890D01*
X119270700Y-88451262D01*
X119296116Y-88458990D01*
X119322861Y-88466074D01*
X119350934Y-88472514D01*
X119365468Y-88475493D01*
X119380334Y-88478310D01*
X119395533Y-88480967D01*
X119411063Y-88483462D01*
X119426926Y-88485797D01*
X119443120Y-88487970D01*
X119459646Y-88489983D01*
X119476505Y-88491834D01*
X119493695Y-88493525D01*
X119511218Y-88495054D01*
X119529072Y-88496423D01*
X119547259Y-88497630D01*
X119565778Y-88498677D01*
X119584628Y-88499562D01*
X119603811Y-88500287D01*
X119623325Y-88500850D01*
X119643172Y-88501253D01*
X119663351Y-88501494D01*
X119683861Y-88501575D01*
X120026046Y-88501575D01*
X120026046Y-86977500D01*
X120348813Y-86977500D01*
X120348813Y-88501575D01*
X120635309Y-88501575D01*
X120865020Y-88501575D01*
X121617166Y-88501575D01*
X121617166Y-88419876D01*
X122779273Y-88419876D01*
X122779315Y-88423774D01*
X122780329Y-88439015D01*
X122782693Y-88453695D01*
X122787548Y-88471257D01*
X122794514Y-88487942D01*
X122803591Y-88503750D01*
X122812372Y-88515766D01*
X122822504Y-88527220D01*
X122825224Y-88529970D01*
X122836470Y-88540097D01*
X122848299Y-88548827D01*
X122863908Y-88557775D01*
X122880428Y-88564540D01*
X122897861Y-88569123D01*
X122912464Y-88571218D01*
X122927651Y-88571917D01*
X122942666Y-88571218D01*
X122960646Y-88568381D01*
X122977749Y-88563362D01*
X122993976Y-88556160D01*
X123009327Y-88546775D01*
X123020976Y-88537696D01*
X123032064Y-88527220D01*
X123034724Y-88524409D01*
X123044519Y-88512814D01*
X123052962Y-88500659D01*
X123061617Y-88484675D01*
X123068161Y-88467815D01*
X123072593Y-88450078D01*
X123074620Y-88435257D01*
X123075295Y-88419876D01*
X123235763Y-88419876D01*
X123235805Y-88423774D01*
X123236818Y-88439015D01*
X123239183Y-88453695D01*
X123244038Y-88471257D01*
X123251004Y-88487942D01*
X123260080Y-88503750D01*
X123268862Y-88515766D01*
X123278994Y-88527220D01*
X123281714Y-88529970D01*
X123292960Y-88540097D01*
X123304789Y-88548827D01*
X123320397Y-88557775D01*
X123336918Y-88564540D01*
X123354350Y-88569123D01*
X123368954Y-88571218D01*
X123384140Y-88571917D01*
X123399156Y-88571218D01*
X123417136Y-88568381D01*
X123434239Y-88563362D01*
X123450466Y-88556160D01*
X123465817Y-88546775D01*
X123477466Y-88537696D01*
X123488554Y-88527220D01*
X123491214Y-88524409D01*
X123501009Y-88512814D01*
X123509452Y-88500659D01*
X123518107Y-88484675D01*
X123524650Y-88467815D01*
X123529083Y-88450078D01*
X123531110Y-88435257D01*
X123531785Y-88419876D01*
X123531616Y-88412026D01*
X123530265Y-88396765D01*
X123527564Y-88382087D01*
X123522286Y-88364561D01*
X123514898Y-88347948D01*
X123507468Y-88335314D01*
X123498687Y-88323264D01*
X123488554Y-88311798D01*
X123477466Y-88301322D01*
X123465817Y-88292243D01*
X123450466Y-88282859D01*
X123434239Y-88275657D01*
X123417136Y-88270637D01*
X123399156Y-88267800D01*
X123384140Y-88267102D01*
X123380289Y-88267145D01*
X123365248Y-88268193D01*
X123350791Y-88270637D01*
X123333541Y-88275657D01*
X123317203Y-88282859D01*
X123301777Y-88292243D01*
X123290094Y-88301322D01*
X123278994Y-88311798D01*
X123273759Y-88317458D01*
X123264302Y-88329216D01*
X123256196Y-88341558D01*
X123247964Y-88357807D01*
X123241842Y-88374967D01*
X123238465Y-88389353D01*
X123236438Y-88404322D01*
X123235763Y-88419876D01*
X123075295Y-88419876D01*
X123075127Y-88412026D01*
X123073776Y-88396765D01*
X123071074Y-88382087D01*
X123065796Y-88364561D01*
X123058408Y-88347948D01*
X123050978Y-88335314D01*
X123042197Y-88323264D01*
X123032064Y-88311798D01*
X123020976Y-88301322D01*
X123009327Y-88292243D01*
X122993976Y-88282859D01*
X122977749Y-88275657D01*
X122960646Y-88270637D01*
X122942666Y-88267800D01*
X122927651Y-88267102D01*
X122923799Y-88267145D01*
X122908758Y-88268193D01*
X122894301Y-88270637D01*
X122877051Y-88275657D01*
X122860713Y-88282859D01*
X122845287Y-88292243D01*
X122833604Y-88301322D01*
X122822504Y-88311798D01*
X122817269Y-88317458D01*
X122807812Y-88329216D01*
X122799706Y-88341558D01*
X122791474Y-88357807D01*
X122785352Y-88374967D01*
X122781975Y-88389353D01*
X122779949Y-88404322D01*
X122779273Y-88419876D01*
X121617166Y-88419876D01*
X121617166Y-88098941D01*
X121787525Y-88098941D01*
X121791252Y-88100631D01*
X121806061Y-88106856D01*
X121820710Y-88112223D01*
X121835199Y-88116731D01*
X121849527Y-88120380D01*
X121867212Y-88123735D01*
X121884647Y-88125747D01*
X121901831Y-88126418D01*
X121920967Y-88125771D01*
X121939726Y-88123830D01*
X121958108Y-88120596D01*
X121976111Y-88116068D01*
X121993737Y-88110246D01*
X122010984Y-88103131D01*
X122027854Y-88094722D01*
X122044346Y-88085019D01*
X122056280Y-88076987D01*
X122071490Y-88065226D01*
X122085898Y-88052263D01*
X122096178Y-88041752D01*
X122106008Y-88030565D01*
X122115387Y-88018701D01*
X122124315Y-88006161D01*
X122132792Y-87992945D01*
X122140818Y-87979053D01*
X122148394Y-87964485D01*
X122148394Y-88102971D01*
X122389461Y-88102971D01*
X122601220Y-88102971D01*
X122881489Y-88102971D01*
X122881489Y-87977308D01*
X122890930Y-87986502D01*
X122905290Y-87999742D01*
X122919888Y-88012318D01*
X122934725Y-88024231D01*
X122949800Y-88035481D01*
X122965113Y-88046067D01*
X122980665Y-88055990D01*
X122996454Y-88065250D01*
X123012483Y-88073846D01*
X123028749Y-88081779D01*
X123045254Y-88089049D01*
X123056383Y-88093574D01*
X123073255Y-88099814D01*
X123090339Y-88105398D01*
X123107636Y-88110324D01*
X123125145Y-88114594D01*
X123142867Y-88118207D01*
X123160801Y-88121163D01*
X123178948Y-88123462D01*
X123197308Y-88125104D01*
X123215879Y-88126089D01*
X123234664Y-88126418D01*
X123261838Y-88125772D01*
X123288497Y-88123836D01*
X123314640Y-88120609D01*
X123340268Y-88116091D01*
X123365381Y-88110282D01*
X123389979Y-88103182D01*
X123414062Y-88094792D01*
X123437630Y-88085110D01*
X123460682Y-88074138D01*
X123483219Y-88061875D01*
X123505241Y-88048321D01*
X123526748Y-88033476D01*
X123547739Y-88017340D01*
X123568216Y-87999913D01*
X123588177Y-87981196D01*
X123607623Y-87961188D01*
X123626211Y-87940215D01*
X123643601Y-87918512D01*
X123659791Y-87896079D01*
X123674782Y-87872917D01*
X123688573Y-87849024D01*
X123701166Y-87824402D01*
X123712559Y-87799050D01*
X123722753Y-87772968D01*
X123731747Y-87746156D01*
X123739542Y-87718614D01*
X123746138Y-87690343D01*
X123748987Y-87675933D01*
X123751535Y-87661341D01*
X123753784Y-87646567D01*
X123755733Y-87631610D01*
X123757382Y-87616471D01*
X123758731Y-87601149D01*
X123759780Y-87585645D01*
X123760530Y-87569958D01*
X123760979Y-87554089D01*
X123761129Y-87538037D01*
X123760974Y-87522568D01*
X123760510Y-87507258D01*
X123759735Y-87492106D01*
X123758651Y-87477112D01*
X123757256Y-87462276D01*
X123755552Y-87447598D01*
X123752628Y-87428128D01*
X123948708Y-87428128D01*
X123948893Y-87440584D01*
X123948958Y-87444930D01*
X123949710Y-87461450D01*
X123950962Y-87477685D01*
X123952715Y-87493638D01*
X123954969Y-87509307D01*
X123957724Y-87524693D01*
X123960980Y-87539796D01*
X123964736Y-87554615D01*
X123968994Y-87569151D01*
X123973752Y-87583403D01*
X123979012Y-87597372D01*
X123984772Y-87611058D01*
X123991033Y-87624460D01*
X123997795Y-87637579D01*
X124005058Y-87650415D01*
X124012822Y-87662967D01*
X124021081Y-87675249D01*
X124029920Y-87687273D01*
X124039341Y-87699040D01*
X124049344Y-87710549D01*
X124059927Y-87721800D01*
X124071091Y-87732794D01*
X124082836Y-87743530D01*
X124095162Y-87754009D01*
X124108069Y-87764230D01*
X124121557Y-87774193D01*
X124135627Y-87783899D01*
X124150277Y-87793347D01*
X124165508Y-87802538D01*
X124181321Y-87811471D01*
X124197714Y-87820146D01*
X124214688Y-87828564D01*
X124204563Y-87836244D01*
X124190046Y-87847889D01*
X124176335Y-87859682D01*
X124163428Y-87871623D01*
X124151326Y-87883712D01*
X124140029Y-87895949D01*
X124129537Y-87908334D01*
X124119850Y-87920867D01*
X124110969Y-87933549D01*
X124102892Y-87946378D01*
X124095620Y-87959356D01*
X124091183Y-87968120D01*
X124085065Y-87981502D01*
X124079591Y-87995168D01*
X124074761Y-88009117D01*
X124070575Y-88023349D01*
X124067033Y-88037865D01*
X124064135Y-88052664D01*
X124061881Y-88067747D01*
X124061376Y-88072562D01*
X124060271Y-88083112D01*
X124059305Y-88098762D01*
X124058983Y-88114694D01*
X124059298Y-88130954D01*
X124060243Y-88146946D01*
X124061817Y-88162668D01*
X124064021Y-88178121D01*
X124066855Y-88193305D01*
X124070318Y-88208220D01*
X124074411Y-88222866D01*
X124079134Y-88237243D01*
X124084486Y-88251351D01*
X124090468Y-88265190D01*
X124097080Y-88278760D01*
X124104321Y-88292060D01*
X124112192Y-88305092D01*
X124120693Y-88317855D01*
X124129823Y-88330348D01*
X124139584Y-88342573D01*
X124149830Y-88354425D01*
X124160512Y-88365803D01*
X124171629Y-88376705D01*
X124183181Y-88387132D01*
X124195168Y-88397084D01*
X124207590Y-88406561D01*
X124220447Y-88415562D01*
X124233739Y-88424089D01*
X124247466Y-88432140D01*
X124261629Y-88439717D01*
X124276226Y-88446818D01*
X124291258Y-88453444D01*
X124306726Y-88459595D01*
X124322628Y-88465270D01*
X124338966Y-88470471D01*
X124355739Y-88475197D01*
X124374646Y-88479911D01*
X124395512Y-88484161D01*
X124410510Y-88486737D01*
X124426378Y-88489107D01*
X124443116Y-88491271D01*
X124460725Y-88493229D01*
X124479203Y-88494980D01*
X124498552Y-88496526D01*
X124518771Y-88497865D01*
X124539859Y-88498999D01*
X124561818Y-88499926D01*
X124584648Y-88500648D01*
X124608347Y-88501163D01*
X124632916Y-88501472D01*
X124658355Y-88501575D01*
X124896492Y-88501575D01*
X124896492Y-86977500D01*
X124471876Y-86977500D01*
X124449287Y-86977707D01*
X124427317Y-86978330D01*
X124405965Y-86979367D01*
X124385231Y-86980820D01*
X124365115Y-86982687D01*
X124345618Y-86984970D01*
X124326739Y-86987668D01*
X124308478Y-86990780D01*
X124290835Y-86994308D01*
X124273810Y-86998251D01*
X124257404Y-87002608D01*
X124241616Y-87007381D01*
X124226446Y-87012569D01*
X124211895Y-87018172D01*
X124197961Y-87024189D01*
X124184646Y-87030622D01*
X124165472Y-87041056D01*
X124146968Y-87052437D01*
X124129134Y-87064764D01*
X124111969Y-87078038D01*
X124095474Y-87092258D01*
X124079649Y-87107426D01*
X124069471Y-87118063D01*
X124059590Y-87129121D01*
X124050008Y-87140600D01*
X124040723Y-87152500D01*
X124031735Y-87164820D01*
X124023045Y-87177562D01*
X124014653Y-87190724D01*
X124006668Y-87204230D01*
X123999197Y-87217915D01*
X123992242Y-87231776D01*
X123985802Y-87245816D01*
X123979877Y-87260032D01*
X123974468Y-87274426D01*
X123969573Y-87288998D01*
X123965194Y-87303747D01*
X123961330Y-87318673D01*
X123957981Y-87333777D01*
X123955148Y-87349059D01*
X123952829Y-87364518D01*
X123951026Y-87380154D01*
X123949738Y-87395968D01*
X123948965Y-87411959D01*
X123948708Y-87428128D01*
X123752628Y-87428128D01*
X123751215Y-87418717D01*
X123745638Y-87390468D01*
X123738821Y-87362852D01*
X123730765Y-87335868D01*
X123721470Y-87309517D01*
X123710936Y-87283799D01*
X123699162Y-87258713D01*
X123686149Y-87234259D01*
X123671897Y-87210438D01*
X123656405Y-87187250D01*
X123639674Y-87164694D01*
X123621703Y-87142771D01*
X123602494Y-87121481D01*
X123582435Y-87101206D01*
X123561919Y-87082240D01*
X123540944Y-87064581D01*
X123519512Y-87048231D01*
X123497622Y-87033188D01*
X123475274Y-87019454D01*
X123452467Y-87007028D01*
X123429203Y-86995909D01*
X123405481Y-86986099D01*
X123381301Y-86977597D01*
X123356663Y-86970403D01*
X123331567Y-86964516D01*
X123306013Y-86959938D01*
X123280001Y-86956668D01*
X123253532Y-86954706D01*
X123226604Y-86954052D01*
X123214568Y-86954185D01*
X123196719Y-86954884D01*
X123179114Y-86956182D01*
X123161754Y-86958078D01*
X123144638Y-86960574D01*
X123127768Y-86963668D01*
X123111142Y-86967362D01*
X123094761Y-86971654D01*
X123078624Y-86976545D01*
X123062732Y-86982035D01*
X123047085Y-86988124D01*
X123036693Y-86992550D01*
X123021114Y-86999818D01*
X123005549Y-87007839D01*
X122989996Y-87016614D01*
X122974457Y-87026142D01*
X122958930Y-87036423D01*
X122943416Y-87047458D01*
X122927915Y-87059246D01*
X122912426Y-87071788D01*
X122896951Y-87085084D01*
X122881489Y-87099132D01*
X122881489Y-86977500D01*
X122601220Y-86977500D01*
X122601220Y-87543166D01*
X122601220Y-88102971D01*
X122389461Y-88102971D01*
X122389461Y-86977500D01*
X122110292Y-86977500D01*
X122110292Y-87436188D01*
X122111025Y-87491509D01*
X122110850Y-87520619D01*
X122110326Y-87548507D01*
X122109453Y-87575173D01*
X122108231Y-87600616D01*
X122106660Y-87624838D01*
X122104739Y-87647837D01*
X122102469Y-87669615D01*
X122099851Y-87690170D01*
X122096882Y-87709502D01*
X122093565Y-87727613D01*
X122089899Y-87744502D01*
X122085883Y-87760168D01*
X122081518Y-87774612D01*
X122074316Y-87793987D01*
X122066328Y-87810612D01*
X122060661Y-87820461D01*
X122051860Y-87834043D01*
X122042698Y-87846195D01*
X122029921Y-87860174D01*
X122016503Y-87871612D01*
X122002443Y-87880507D01*
X121987743Y-87886861D01*
X121972402Y-87890674D01*
X121956419Y-87891945D01*
X121950288Y-87891726D01*
X121934781Y-87889512D01*
X121920149Y-87885717D01*
X121904281Y-87880170D01*
X121890113Y-87874209D01*
X121875086Y-87867032D01*
X121787525Y-88098941D01*
X121617166Y-88098941D01*
X121617166Y-86977500D01*
X121331768Y-86977500D01*
X121331768Y-87657472D01*
X120865020Y-87657472D01*
X120865020Y-87938839D01*
X121331768Y-87938839D01*
X121331768Y-88220207D01*
X120865020Y-88220207D01*
X120865020Y-88501575D01*
X120635309Y-88501575D01*
X120635309Y-86977500D01*
X120348813Y-86977500D01*
X120026046Y-86977500D01*
X119678732Y-86977500D01*
X119660471Y-86977536D01*
X119642552Y-86977645D01*
X119624977Y-86977828D01*
X119607743Y-86978083D01*
X119590853Y-86978412D01*
X119574306Y-86978813D01*
X119558101Y-86979288D01*
X119542239Y-86979835D01*
X119526719Y-86980455D01*
X119511543Y-86981149D01*
X119482218Y-86982755D01*
X119454264Y-86984652D01*
X119427681Y-86986842D01*
X119402469Y-86989323D01*
X119378628Y-86992097D01*
X119356159Y-86995162D01*
X119335060Y-86998520D01*
X119315332Y-87002169D01*
X119296975Y-87006110D01*
X119279989Y-87010343D01*
X119264374Y-87014869D01*
X119249511Y-87019773D01*
X119234779Y-87025144D01*
X119220179Y-87030982D01*
X119205710Y-87037286D01*
X119191373Y-87044056D01*
X119177168Y-87051293D01*
X119163095Y-87058997D01*
X119149153Y-87067167D01*
X119135342Y-87075804D01*
X119121664Y-87084907D01*
X119108117Y-87094477D01*
X119094702Y-87104513D01*
X119081418Y-87115016D01*
X119068266Y-87125986D01*
X119055246Y-87137422D01*
X119042358Y-87149324D01*
X119029708Y-87161702D01*
X119017405Y-87174472D01*
X119005448Y-87187634D01*
X118993837Y-87201188D01*
X118982573Y-87215134D01*
X118971655Y-87229472D01*
X118961083Y-87244203D01*
X118950858Y-87259325D01*
X118940979Y-87274840D01*
X118931446Y-87290747D01*
X118922260Y-87307046D01*
X118913420Y-87323737D01*
X118904927Y-87340820D01*
X118896779Y-87358295D01*
X118888978Y-87376163D01*
X118881524Y-87394422D01*
X118874470Y-87412989D01*
X118867871Y-87431780D01*
X118861727Y-87450793D01*
X118856038Y-87470030D01*
X118850805Y-87489491D01*
X118846026Y-87509174D01*
X118841703Y-87529081D01*
X118837835Y-87549211D01*
X118834421Y-87569564D01*
X118831463Y-87590141D01*
X118828960Y-87610940D01*
X118826912Y-87631963D01*
X118825320Y-87653210D01*
X118824182Y-87674679D01*
X118823499Y-87696372D01*
X118823272Y-87718288D01*
X118158987Y-87718288D01*
X118158987Y-86289767D01*
X125560779Y-86289767D01*
X125560779Y-89236204D01*
G37*
D12*
%TO.C,D1*%
X116125000Y-79875000D02*
G75*
G03*
X116125000Y-79875000I-125000J0D01*
G01*
D13*
%TO.C,R6*%
X128653641Y-72130000D02*
X128346359Y-72130000D01*
X128653641Y-71370000D02*
X128346359Y-71370000D01*
%TO.C,C21*%
X127640000Y-70107836D02*
X127640000Y-69892164D01*
X128360000Y-70107836D02*
X128360000Y-69892164D01*
%TO.C,C23*%
X132860000Y-69892164D02*
X132860000Y-70107836D01*
X132140000Y-69892164D02*
X132140000Y-70107836D01*
%TO.C,C24*%
X133390000Y-74127836D02*
X133390000Y-73912164D01*
X134110000Y-74127836D02*
X134110000Y-73912164D01*
%TO.C,U3*%
X128690000Y-68270000D02*
X128690000Y-70070000D01*
X128690000Y-68270000D02*
X128690000Y-67470000D01*
X131810000Y-68270000D02*
X131810000Y-69070000D01*
X131810000Y-68270000D02*
X131810000Y-67470000D01*
%TO.C,C29*%
X127357836Y-68860000D02*
X127142164Y-68860000D01*
X127357836Y-68140000D02*
X127142164Y-68140000D01*
%TO.C,C8*%
X115610000Y-64392164D02*
X115610000Y-64607836D01*
X114890000Y-64392164D02*
X114890000Y-64607836D01*
%TO.C,SW1*%
X109775000Y-71200000D02*
X109225000Y-71200000D01*
X107650000Y-70175000D02*
X107650000Y-71100000D01*
X107650000Y-66400000D02*
X107650000Y-67325000D01*
X109775000Y-66300000D02*
X109225000Y-66300000D01*
%TO.C,U1*%
X116390000Y-73110000D02*
X116390000Y-72635000D01*
X116865000Y-67890000D02*
X116390000Y-67890000D01*
X116865000Y-73110000D02*
X116390000Y-73110000D01*
X121135000Y-67890000D02*
X121610000Y-67890000D01*
X121135000Y-73110000D02*
X121610000Y-73110000D01*
X121610000Y-67890000D02*
X121610000Y-68365000D01*
X121610000Y-73110000D02*
X121610000Y-72635000D01*
%TO.C,C14*%
X117140000Y-82107836D02*
X117140000Y-81892164D01*
X117860000Y-82107836D02*
X117860000Y-81892164D01*
%TO.C,R9*%
X134620000Y-74173641D02*
X134620000Y-73866359D01*
X135380000Y-74173641D02*
X135380000Y-73866359D01*
%TO.C,C35*%
X122642164Y-79890000D02*
X122857836Y-79890000D01*
X122642164Y-80610000D02*
X122857836Y-80610000D01*
%TO.C,C9*%
X114110000Y-79642164D02*
X114110000Y-79857836D01*
X113390000Y-79642164D02*
X113390000Y-79857836D01*
%TO.C,C19*%
X135360000Y-76892164D02*
X135360000Y-77107836D01*
X134640000Y-76892164D02*
X134640000Y-77107836D01*
%TO.C,C5*%
X123107836Y-75860000D02*
X122892164Y-75860000D01*
X123107836Y-75140000D02*
X122892164Y-75140000D01*
%TO.C,L2*%
X124190000Y-81649622D02*
X124190000Y-80850378D01*
X125310000Y-81649622D02*
X125310000Y-80850378D01*
%TO.C,C20*%
X134110000Y-76892164D02*
X134110000Y-77107836D01*
X133390000Y-76892164D02*
X133390000Y-77107836D01*
%TO.C,R1*%
X114380000Y-64346359D02*
X114380000Y-64653641D01*
X113620000Y-64346359D02*
X113620000Y-64653641D01*
%TO.C,C11*%
X112140000Y-82107836D02*
X112140000Y-81892164D01*
X112860000Y-82107836D02*
X112860000Y-81892164D01*
%TO.C,C4*%
X114360000Y-67892164D02*
X114360000Y-68107836D01*
X113640000Y-67892164D02*
X113640000Y-68107836D01*
%TO.C,C27*%
X129110000Y-83892164D02*
X129110000Y-84107836D01*
X128390000Y-83892164D02*
X128390000Y-84107836D01*
%TO.C,C36*%
X122857836Y-79360000D02*
X122642164Y-79360000D01*
X122857836Y-78640000D02*
X122642164Y-78640000D01*
%TO.C,L1*%
X120350378Y-83690000D02*
X121149622Y-83690000D01*
X120350378Y-84810000D02*
X121149622Y-84810000D01*
%TO.C,C16*%
X114640000Y-82107836D02*
X114640000Y-81892164D01*
X115360000Y-82107836D02*
X115360000Y-81892164D01*
%TO.C,C30*%
X119142164Y-81140000D02*
X119357836Y-81140000D01*
X119142164Y-81860000D02*
X119357836Y-81860000D01*
%TO.C,R10*%
X129620000Y-84153641D02*
X129620000Y-83846359D01*
X130380000Y-84153641D02*
X130380000Y-83846359D01*
%TO.C,C22*%
X129890000Y-71607836D02*
X129890000Y-71392164D01*
X130610000Y-71607836D02*
X130610000Y-71392164D01*
%TO.C,C18*%
X112860000Y-74392164D02*
X112860000Y-74607836D01*
X112140000Y-74392164D02*
X112140000Y-74607836D01*
%TO.C,C31*%
X119337836Y-83110000D02*
X119122164Y-83110000D01*
X119337836Y-82390000D02*
X119122164Y-82390000D01*
%TO.C,C3*%
X115610000Y-67892164D02*
X115610000Y-68107836D01*
X114890000Y-67892164D02*
X114890000Y-68107836D01*
%TO.C,C28*%
X123640000Y-67107836D02*
X123640000Y-66892164D01*
X124360000Y-67107836D02*
X124360000Y-66892164D01*
%TO.C,C1*%
X114140000Y-71357836D02*
X114140000Y-71142164D01*
X114860000Y-71357836D02*
X114860000Y-71142164D01*
%TO.C,R8*%
X132153641Y-72130000D02*
X131846359Y-72130000D01*
X132153641Y-71370000D02*
X131846359Y-71370000D01*
%TO.C,C33*%
X121607836Y-81860000D02*
X121392164Y-81860000D01*
X121607836Y-81140000D02*
X121392164Y-81140000D01*
%TO.C,C32*%
X121392164Y-82390000D02*
X121607836Y-82390000D01*
X121392164Y-83110000D02*
X121607836Y-83110000D01*
%TO.C,C7*%
X112860000Y-71142164D02*
X112860000Y-71357836D01*
X112140000Y-71142164D02*
X112140000Y-71357836D01*
%TO.C,C15*%
X113390000Y-82107836D02*
X113390000Y-81892164D01*
X114110000Y-82107836D02*
X114110000Y-81892164D01*
%TO.C,FB2*%
X126100378Y-66440000D02*
X126899622Y-66440000D01*
X126100378Y-67560000D02*
X126899622Y-67560000D01*
%TO.C,C17*%
X112140000Y-77107836D02*
X112140000Y-76892164D01*
X112860000Y-77107836D02*
X112860000Y-76892164D01*
%TO.C,C38*%
X127140000Y-82107836D02*
X127140000Y-81892164D01*
X127860000Y-82107836D02*
X127860000Y-81892164D01*
%TO.C,R11*%
X129130000Y-81846359D02*
X129130000Y-82153641D01*
X128370000Y-81846359D02*
X128370000Y-82153641D01*
%TO.C,C2*%
X122390000Y-73107836D02*
X122390000Y-72892164D01*
X123110000Y-73107836D02*
X123110000Y-72892164D01*
%TO.C,C6*%
X123107836Y-77110000D02*
X122892164Y-77110000D01*
X123107836Y-76390000D02*
X122892164Y-76390000D01*
%TO.C,C10*%
X112860000Y-79642164D02*
X112860000Y-79857836D01*
X112140000Y-79642164D02*
X112140000Y-79857836D01*
%TO.C,C12*%
X110890000Y-82107836D02*
X110890000Y-81892164D01*
X111610000Y-82107836D02*
X111610000Y-81892164D01*
%TO.C,C13*%
X115890000Y-82107836D02*
X115890000Y-81892164D01*
X116610000Y-82107836D02*
X116610000Y-81892164D01*
%TO.C,R4*%
X114753641Y-66630000D02*
X114446359Y-66630000D01*
X114753641Y-65870000D02*
X114446359Y-65870000D01*
%TO.C,C25*%
X132140000Y-84107836D02*
X132140000Y-83892164D01*
X132860000Y-84107836D02*
X132860000Y-83892164D01*
%TO.C,R5*%
X127130000Y-72846359D02*
X127130000Y-73153641D01*
X126370000Y-72846359D02*
X126370000Y-73153641D01*
%TO.C,R7*%
X125880000Y-72846359D02*
X125880000Y-73153641D01*
X125120000Y-72846359D02*
X125120000Y-73153641D01*
%TO.C,U2*%
X127690000Y-76250000D02*
X127690000Y-79700000D01*
X127690000Y-76250000D02*
X127690000Y-74300000D01*
X132810000Y-76250000D02*
X132810000Y-78200000D01*
X132810000Y-76250000D02*
X132810000Y-74300000D01*
%TO.C,C37*%
X125890000Y-82107836D02*
X125890000Y-81892164D01*
X126610000Y-82107836D02*
X126610000Y-81892164D01*
%TO.C,C26*%
X130890000Y-84107836D02*
X130890000Y-83892164D01*
X131610000Y-84107836D02*
X131610000Y-83892164D01*
%TO.C,Y1*%
X108350000Y-77000000D02*
X111650000Y-77000000D01*
X111650000Y-77000000D02*
X111650000Y-73000000D01*
%TO.C,C34*%
X122890000Y-83107836D02*
X122890000Y-82892164D01*
X123610000Y-83107836D02*
X123610000Y-82892164D01*
%TO.C,R3*%
X110596359Y-79870000D02*
X110903641Y-79870000D01*
X110596359Y-80630000D02*
X110903641Y-80630000D01*
%TD*%
M02*
